SplineFontDB: 3.2
FontName: Multivers-Semibold
FullName: Multivers SemiBold
FamilyName: Multivers
Weight: Semibold
Copyright: 
Version: 1.000
ItalicAngle: 0
UnderlinePosition: -199
UnderlineWidth: 38
Ascent: 800
Descent: 200
InvalidEm: 0
sfntRevision: 0x00010000
LayerCount: 3
Layer: 0 0 "Back" 1
Layer: 1 0 "Fore" 0
Layer: 2 0 "Back 2" 1
XUID: [1021 473 -325923738 4484261]
StyleMap: 0x0040
FSType: 0
OS2Version: 4
OS2_WeightWidthSlopeOnly: 0
OS2_UseTypoMetrics: 0
CreationTime: 1659194366
ModificationTime: 1739283932
PfmFamily: 81
TTFWeight: 600
TTFWidth: 5
LineGap: 0
VLineGap: 0
Panose: 0 0 0 0 0 0 0 0 0 0
OS2TypoAscent: 970
OS2TypoAOffset: 0
OS2TypoDescent: -250
OS2TypoDOffset: 0
OS2TypoLinegap: 0
OS2WinAscent: 986
OS2WinAOffset: 0
OS2WinDescent: 350
OS2WinDOffset: 0
HheadAscent: 970
HheadAOffset: 0
HheadDescent: -250
HheadDOffset: 0
OS2SubXSize: 650
OS2SubYSize: 600
OS2SubXOff: 0
OS2SubYOff: 75
OS2SupXSize: 650
OS2SupYSize: 600
OS2SupXOff: 0
OS2SupYOff: 350
OS2StrikeYSize: 38
OS2StrikeYPos: 301
OS2CapHeight: 720
OS2XHeight: 510
OS2Vendor: 'NONE'
OS2CodePages: 00000093.00000000
OS2UnicodeRanges: a000006f.0000006a.00000000.00000000
Lookup: 1 0 0 "'aalt' Access All Alternates in Latin lookup 0" { "'aalt' Access All Alternates in Latin lookup 0 subtable"  } ['aalt' ('DFLT' <'dflt' > 'latn' <'AZE ' 'CAT ' 'CRT ' 'KAZ ' 'MOL ' 'ROM ' 'TAT ' 'TRK ' 'dflt' > ) ]
Lookup: 3 0 0 "'aalt' Access All Alternates in Latin lookup 1" { "'aalt' Access All Alternates in Latin lookup 1 subtable"  } ['aalt' ('DFLT' <'dflt' > 'latn' <'AZE ' 'CAT ' 'CRT ' 'KAZ ' 'MOL ' 'ROM ' 'TAT ' 'TRK ' 'dflt' > ) ]
Lookup: 6 0 0 "'ccmp' Glyph Composition/Decomposition in Latin lookup 2" { "'ccmp' Glyph Composition/Decomposition in Latin lookup 2 subtable"  } ['ccmp' ('DFLT' <'dflt' > 'latn' <'AZE ' 'CAT ' 'CRT ' 'KAZ ' 'MOL ' 'ROM ' 'TAT ' 'TRK ' 'dflt' > ) ]
Lookup: 1 0 0 "Single Substitution lookup 3" { "Single Substitution lookup 3 subtable"  } []

StartChar: .notdef
Encoding: 65536 -1 0
Width: 652
Flags: HW
LayerCount: 3
Fore
SplineSet
62 0 m 1
 62 720 l 1
 591 720 l 1
 591 0 l 1
 62 0 l 1
191 102 m 1
 462 102 l 1
 462 618 l 1
 191 618 l 1
 191 102 l 1
EndSplineSet
Validated: 1
EndChar

StartChar: A
Encoding: 65 65 1
Width: 712
GlyphClass: 2
Flags: HW
AnchorPoint: "Anchor-3" 685 0 basechar 0
AnchorPoint: "Anchor-2" 356 0 basechar 0
AnchorPoint: "Anchor-0" 356 720 basechar 0
LayerCount: 3
Fore
SplineSet
27 0 m 1
 282 720 l 1
 392 720 l 1
 154 0 l 1
 27 0 l 1
552 0 m 1
 314 720 l 1
 430 720 l 1
 685 0 l 1
 552 0 l 1
160 282 m 1
 543 282 l 1
 543 179 l 1
 160 179 l 1
 160 282 l 1
EndSplineSet
Validated: 5
Substitution2: "Single Substitution lookup 17 subtable" ordfeminine
Substitution2: "'aalt' Access All Alternates in Latin lookup 0 subtable" ordfeminine
EndChar

StartChar: AE
Encoding: 198 198 12
Width: 945
Flags: HW
LayerCount: 3
Fore
SplineSet
27 0 m 1
 282 720 l 1
 394 720 l 1
 154 0 l 1
 27 0 l 1
470 0 m 1
 470 720 l 1
 599 720 l 1
 599 0 l 1
 470 0 l 1
532 0 m 1
 532 102 l 1
 895 102 l 1
 895 0 l 1
 532 0 l 1
228 320 m 1
 228 421 l 1
 861 421 l 1
 861 320 l 1
 228 320 l 1
324 618 m 1
 324 720 l 1
 885 720 l 1
 885 618 l 1
 324 618 l 1
EndSplineSet
Validated: 5
EndChar

StartChar: B
Encoding: 66 66 13
Width: 629
Flags: HW
LayerCount: 3
Fore
SplineSet
163 0 m 1
 163 96 l 1
 353 96 l 2
 389 96 416.833333333 106 436.5 126 c 128
 456.166666667 146 466 173.666666667 466 209 c 0
 466 246.333333333 455.5 275.833333333 434.5 297.5 c 128
 413.5 319.166666667 384.333333333 330 347 330 c 2
 163 330 l 1
 163 424 l 1
 338 424 l 2
 373.333333333 424 400.5 432.666666667 419.5 450 c 128
 438.5 467.333333333 448 492.666666667 448 526 c 0
 448 558 439 582.333333333 421 599 c 128
 403 615.666666667 376.666666667 624 342 624 c 2
 163 624 l 1
 163 720 l 1
 366 720 l 2
 430 720 481.166666667 703.833333333 519.5 671.5 c 128
 557.833333333 639.166666667 577 595.333333333 577 540 c 0
 577 505.333333333 569 475.166666667 553 449.5 c 128
 537 423.833333333 515.5 404 488.5 390 c 128
 461.5 376 431 369 397 369 c 1
 402 390 l 1
 438 390 470.833333333 381.833333333 500.5 365.5 c 128
 530.166666667 349.166666667 553.666666667 326.333333333 571 297 c 128
 588.333333333 267.666666667 597 233.666666667 597 195 c 0
 597 155.666666667 587.833333333 121.333333333 569.5 92 c 128
 551.166666667 62.6666666667 525.666666667 40 493 24 c 128
 460.333333333 8 422 0 378 0 c 2
 163 0 l 1
62 0 m 1
 62 720 l 1
 191 720 l 1
 191 0 l 1
 62 0 l 1
EndSplineSet
Validated: 5
EndChar

StartChar: C
Encoding: 67 67 14
Width: 726
GlyphClass: 2
Flags: HW
AnchorPoint: "Anchor-2" 375 0 basechar 0
AnchorPoint: "Anchor-0" 375 720 basechar 0
LayerCount: 3
Back
SplineSet
380 -10 m 4
 330 -10 284 -1 242 17 c 132
 200 35 163.666666667 60.6666666667 133 94 c 132
 102.333333333 127.333333333 78.5 166.666666667 61.5 212 c 132
 44.5 257.333333333 36 307.333333333 36 362 c 260
 36 416.666666667 44.5 466.333333333 61.5 511 c 132
 78.5 555.666666667 102.166666667 594.5 132.5 627.5 c 132
 162.833333333 660.5 199 685.833333333 241 703.5 c 132
 283 721.166666667 329 730 379 730 c 4
 435.666666667 730 486.333333333 718.666666667 531 696 c 132
 575.666666667 673.333333333 612.166666667 641.333333333 640.5 600 c 132
 668.833333333 558.666666667 686 510.333333333 692 455 c 5
 559 455 l 5
 549.96484375 516.740234375 514.890386725 625 380 625 c 4
 277.508874729 625 182 558.841796875 182 363 c 4
 182 301.858398438 186.381110471 95 381 95 c 4
 431.483676321 95 536.02734375 113.790039062 560 265 c 5
 694 265 l 5
 686.666666667 209 668.833333333 160.333333333 640.5 119 c 132
 612.166666667 77.6666666667 575.666666667 45.8333333333 531 23.5 c 132
 486.333333333 1.16666666667 436 -10 380 -10 c 4
EndSplineSet
Fore
SplineSet
380 -10 m 0
 330 -10 284 -1 242 17 c 128
 200 35 163.666666667 60.6666666667 133 94 c 128
 102.333333333 127.333333333 78.5 166.666666667 61.5 212 c 128
 44.5 257.333333333 36 307.333333333 36 362 c 256
 36 416.666666667 44.5 466.333333333 61.5 511 c 128
 78.5 555.666666667 102.166666667 594.5 132.5 627.5 c 128
 162.833333333 660.5 199 685.833333333 241 703.5 c 128
 283 721.166666667 329 730 379 730 c 0
 435.666666667 730 486.333333333 718.666666667 531 696 c 128
 575.666666667 673.333333333 612.166666667 641.333333333 640.5 600 c 128
 668.833333333 558.666666667 686 510.333333333 692 455 c 1
 549 455 l 5
 539.96484375 516.740234375 514.890386725 625 380 625 c 4
 217.508874729 625 182 448.841796875 182 363 c 4
 182 281.858398438 206.381110471 95 381 95 c 4
 504 95 539 192 550 265 c 5
 694 265 l 1
 686.666666667 209 668.833333333 160.333333333 640.5 119 c 128
 612.166666667 77.6666666667 575.666666667 45.8333333333 531 23.5 c 128
 486.333333333 1.16666666667 436 -10 380 -10 c 0
EndSplineSet
EndChar

StartChar: D
Encoding: 68 68 19
Width: 735
GlyphClass: 2
Flags: HW
AnchorPoint: "Anchor-2" 369 0 basechar 0
AnchorPoint: "Anchor-0" 369 720 basechar 0
LayerCount: 3
Fore
SplineSet
140 0 m 1
 140 103 l 1
 318 103 l 2
 370.666666667 103 415.666666667 114 453 136 c 128
 490.333333333 158 508.833007812 188.5 528.5 227.5 c 128
 548.166992188 266.5 558 312 558 364 c 0
 558 415.333007812 548.333007812 459.833007812 529 497.5 c 128
 509.666992188 535.166992188 491.333333333 564.5 454 585.5 c 128
 416.666666667 606.5 371.333333333 617 318 617 c 2
 142 617 l 1
 142 720 l 1
 318 720 l 2
 395.333333333 720 462.5 705.5 519.5 676.5 c 128
 576.5 647.5 620.666666667 606.166666667 652 552.5 c 128
 683.333333333 498.833333333 699 435.333333333 699 362 c 256
 699 288.666666667 683.166666667 224.833333333 651.5 170.5 c 128
 619.833333333 116.166666667 575.666666667 74.1666666667 519 44.5 c 128
 462.333333333 14.8333333333 395.666666667 0 319 0 c 2
 140 0 l 1
62 0 m 1
 62 720 l 1
 201 720 l 5
 201 0 l 5
 62 0 l 1
EndSplineSet
EndChar

StartChar: Eth
Encoding: 208 208 20
Width: 745
GlyphClass: 2
Flags: HW
AnchorPoint: "Anchor-2" 382 0 basechar 0
AnchorPoint: "Anchor-0" 382 720 basechar 0
LayerCount: 3
Fore
SplineSet
7 310 m 1
 7 412 l 1
 381 412 l 1
 381 310 l 1
 7 310 l 1
152 0 m 1
 152 103 l 1
 331 103 l 2
 383.666666667 103 428.666666667 114 466 136 c 128
 503.333333333 158 531.666666667 188.5 551 227.5 c 128
 570.333333333 266.5 580 312 580 364 c 0
 580 415.333333333 570.333333333 459.833333333 551 497.5 c 128
 531.666666667 535.166666667 503.5 564.5 466.5 585.5 c 128
 429.5 606.5 384.333333333 617 331 617 c 2
 155 617 l 1
 155 720 l 1
 331 720 l 2
 407.666666667 720 474.5 705.5 531.5 676.5 c 128
 588.5 647.5 632.666666667 606.166666667 664 552.5 c 128
 695.333333333 498.833333333 711 435.333333333 711 362 c 256
 711 288.666666667 695.166666667 224.833333333 663.5 170.5 c 128
 631.833333333 116.166666667 587.666666667 74.1666666667 531 44.5 c 128
 474.333333333 14.8333333333 408 0 332 0 c 2
 152 0 l 1
74 0 m 1
 74 720 l 1
 203 720 l 1
 203 0 l 1
 74 0 l 1
EndSplineSet
Validated: 5
EndChar

StartChar: E
Encoding: 69 69 23
Width: 612
GlyphClass: 2
Flags: HW
AnchorPoint: "Anchor-3" 526 0 basechar 0
AnchorPoint: "Anchor-2" 307 0 basechar 0
AnchorPoint: "Anchor-0" 317 720 basechar 0
LayerCount: 3
Fore
SplineSet
62 0 m 1
 62 720 l 1
 201 720 l 5
 201 0 l 5
 62 0 l 1
124 0 m 1
 124 102 l 1
 563 102 l 1
 563 0 l 1
 124 0 l 1
124 320 m 1
 124 421 l 1
 529 421 l 1
 529 320 l 1
 124 320 l 1
124 618 m 1
 124 720 l 1
 553 720 l 1
 553 618 l 1
 124 618 l 1
EndSplineSet
EndChar

StartChar: F
Encoding: 70 70 32
Width: 577
Flags: HW
LayerCount: 3
Fore
SplineSet
62 0 m 1
 62 720 l 1
 201 720 l 5
 201 0 l 5
 62 0 l 1
124 290 m 1
 124 391 l 1
 513 391 l 1
 513 290 l 1
 124 290 l 1
124 618 m 1
 124 720 l 1
 537 720 l 1
 537 618 l 1
 124 618 l 1
EndSplineSet
EndChar

StartChar: G
Encoding: 71 71 33
Width: 742
GlyphClass: 2
Flags: HW
AnchorPoint: "Anchor-2" 381 0 basechar 0
AnchorPoint: "Anchor-0" 381 720 basechar 0
LayerCount: 3
Fore
SplineSet
396 -10 m 0
 321.333333333 -10 257.166666667 5 203.5 35 c 128
 149.833333333 65 108.5 107.5 79.5 162.5 c 128
 50.5 217.5 36 282.333333333 36 357 c 0
 36 431 50.6666666667 496 80 552 c 128
 109.333333333 608 149.833333333 651.666666667 201.5 683 c 128
 253.166666667 714.333333333 313.333333333 730 382 730 c 0
 438 730 488.166666667 719.5 532.5 698.5 c 128
 576.833333333 677.5 612.666666667 648.833333333 640 612.5 c 128
 667.333333333 576.166666667 683.666666667 533.666666667 689 485 c 1
 550 485 l 1
 544 528.333007812 535.166666667 562.5 503.5 587.5 c 128
 471.833333333 612.5 432 625 384 625 c 0
 260.288601435 625 226.506507968 551.180480762 204 502 c 128
 186 462.666992188 177 415.333007812 177 360 c 0
 177 102.37037037 348.112761801 96.032860674 403 94 c 4
 477 90.6666666667 521 97.2900390625 555 113.87109375 c 1
 555 287 l 1
 400 287 l 1
 400 389 l 1
 694 389 l 1
 694 51 l 1
 678.666666667 38.3333333333 627 22.1666666667 539 2.5 c 0
 501.666666667 -5.83333333333 454 -10 396 -10 c 0
EndSplineSet
Substitution2: "'ss07' Style Set 7 in Latin lookup 28 subtable" G.ss07
Substitution2: "'aalt' Access All Alternates in Latin lookup 0 subtable" G.ss07
EndChar

StartChar: H
Encoding: 72 72 37
Width: 707
GlyphClass: 2
Flags: HW
AnchorPoint: "Anchor-2" 354 0 basechar 0
AnchorPoint: "Anchor-0" 354 720 basechar 0
LayerCount: 3
Fore
SplineSet
62 0 m 1
 62 720 l 1
 201 720 l 1
 201 0 l 1
 62 0 l 1
507 0 m 5
 507 720 l 5
 646 720 l 1
 646 0 l 1
 507 0 l 5
124 426 m 1
 575 426 l 1
 575 324 l 1
 124 324 l 1
 124 426 l 1
EndSplineSet
EndChar

StartChar: Hbar
Encoding: 294 294 38
Width: 728
GlyphClass: 2
Flags: HW
AnchorPoint: "Anchor-2" 364 0 basechar 0
AnchorPoint: "Anchor-0" 364 720 basechar 0
LayerCount: 3
Fore
SplineSet
7 529 m 1
 7 631 l 1
 721 631 l 1
 721 529 l 1
 7 529 l 1
72 0 m 1
 72 720 l 1
 201 720 l 1
 201 0 l 1
 72 0 l 1
527 0 m 1
 527 720 l 1
 656 720 l 1
 656 0 l 1
 527 0 l 1
134 426 m 1
 586 426 l 1
 586 324 l 1
 134 324 l 1
 134 426 l 1
EndSplineSet
Validated: 5
EndChar

StartChar: I
Encoding: 73 73 39
Width: 252
GlyphClass: 2
Flags: HW
AnchorPoint: "Anchor-3" 172 0 basechar 0
AnchorPoint: "Anchor-2" 126 0 basechar 0
AnchorPoint: "Anchor-0" 126 720 basechar 0
LayerCount: 3
Fore
SplineSet
52 0 m 5
 52 720 l 5
 201 720 l 1
 201 0 l 1
 52 0 l 5
EndSplineSet
EndChar

StartChar: J
Encoding: 74 74 48
Width: 417
Flags: HW
LayerCount: 3
Fore
SplineSet
133 -10 m 0
 96.3333333333 -10 56.3333333333 -8 13 -4 c 1
 13 100 l 1
 46.3333333333 95.3333333333 81.3333333333 93 118 93 c 128
 154.666666667 93 182.166666667 100.5 200.5 115.5 c 128
 218.833333333 130.5 226 155.333007812 226 190 c 6
 226 720 l 5
 359 720 l 1
 359 184 l 2
 359 118.666666667 339.666666667 70 301 38 c 128
 262.333333333 6 206.333333333 -10 133 -10 c 0
EndSplineSet
Substitution2: "'ss08' Style Set 8 in Latin lookup 29 subtable" J.ss08
Substitution2: "'aalt' Access All Alternates in Latin lookup 0 subtable" J.ss08
EndChar

StartChar: K
Encoding: 75 75 49
Width: 694
GlyphClass: 2
Flags: HW
AnchorPoint: "Anchor-2" 362 0 basechar 0
AnchorPoint: "Anchor-0" 358 720 basechar 0
LayerCount: 3
Fore
SplineSet
62 0 m 1
 62 720 l 1
 201 720 l 1
 201 0 l 1
 62 0 l 1
201 374 m 1
 527 720 l 1
 695 720 l 1
 369 374 l 1
 201 374 l 1
543 0 m 1
 201 374 l 1
 369 374 l 1
 711 0 l 1
 543 0 l 1
EndSplineSet
Substitution2: "'ss04' Style Set 4 in Latin lookup 25 subtable" K.ss04
Substitution2: "'aalt' Access All Alternates in Latin lookup 0 subtable" K.ss04
EndChar

StartChar: L
Encoding: 76 76 51
Width: 572
GlyphClass: 2
Flags: HW
AnchorPoint: "Anchor-2" 310 0 basechar 0
AnchorPoint: "Anchor-1" 361 720 basechar 0
AnchorPoint: "Anchor-0" 126 720 basechar 0
LayerCount: 3
Fore
SplineSet
62 0 m 1
 62 720 l 1
 211 720 l 5
 211 0 l 5
 62 0 l 1
124 0 m 1
 124 102 l 1
 530 102 l 1
 530 0 l 1
 124 0 l 1
EndSplineSet
EndChar

StartChar: Lslash
Encoding: 321 321 55
Width: 577
GlyphClass: 2
Flags: HW
AnchorPoint: "Anchor-2" 317 0 basechar 0
AnchorPoint: "Anchor-1" 368 720 basechar 0
AnchorPoint: "Anchor-0" 132 720 basechar 0
LayerCount: 3
Fore
SplineSet
150 331 m 1
 0 270 l 1
 0 363 l 1
 149 424 l 1
 150 331 l 1
149 432 m 1
 343 514 l 1
 343 421 l 1
 150 339 l 1
 149 432 l 1
68 0 m 1
 68 720 l 1
 197 720 l 1
 197 0 l 1
 68 0 l 1
130 0 m 1
 130 102 l 1
 536 102 l 1
 536 0 l 1
 130 0 l 1
EndSplineSet
Validated: 5
EndChar

StartChar: M
Encoding: 77 77 56
Width: 881
Flags: HW
LayerCount: 3
Fore
SplineSet
62 0 m 1
 62 720 l 1
 261 720 l 1
 476 27 l 1
 405 27 l 1
 619 720 l 1
 819 720 l 1
 819 0 l 1
 664 0 l 5
 672 672 l 5
 713 672 l 1
 505 0 l 1
 370 0 l 1
 163 667 l 1
 211 667 l 1
 211 0 l 1
 62 0 l 1
EndSplineSet
Substitution2: "'ss06' Style Set 6 in Latin lookup 27 subtable" M.ss06
Substitution2: "'aalt' Access All Alternates in Latin lookup 0 subtable" M.ss06
EndChar

StartChar: N
Encoding: 78 78 57
Width: 708
GlyphClass: 2
Flags: HW
AnchorPoint: "Anchor-2" 354 0 basechar 0
AnchorPoint: "Anchor-0" 354 720 basechar 0
LayerCount: 3
Fore
SplineSet
62 0 m 1
 62 720 l 1
 221 720 l 1
 557 95 l 1
 512 87 l 5
 512 720 l 5
 646 720 l 1
 646 0 l 1
 487 0 l 1
 150 625 l 1
 196 633 l 1
 196 0 l 1
 62 0 l 1
EndSplineSet
EndChar

StartChar: Eng
Encoding: 330 330 62
Width: 703
Flags: HW
LayerCount: 3
Fore
SplineSet
59 0 m 1
 59 720 l 1
 218 720 l 1
 589 107 l 1
 519 118 l 1
 519 720 l 1
 644 720 l 1
 644 0 l 1
 520 0 l 1
 148 617 l 1
 184 625 l 1
 184 0 l 1
 59 0 l 1
469 -215 m 0
 451.666666667 -215 436.5 -214 423.5 -212 c 128
 410.5 -210 399.666666667 -207.666666667 391 -205 c 1
 391 -103 l 1
 398.333333333 -105 407 -107 417 -109 c 128
 427 -111 437.666666667 -112 449 -112 c 0
 473.666666667 -112 491.166666667 -107 501.5 -97 c 128
 511.833333333 -87 517 -71.3333333333 517 -50 c 2
 517 41 l 1
 644 41 l 1
 644 -54 l 2
 644 -104.666666667 630.166666667 -144.166666667 602.5 -172.5 c 128
 574.833333333 -200.833333333 530.333333333 -215 469 -215 c 0
EndSplineSet
Validated: 5
EndChar

StartChar: O
Encoding: 79 79 63
Width: 772
GlyphClass: 2
Flags: HW
AnchorPoint: "Anchor-3" 532 20 basechar 0
AnchorPoint: "Anchor-2" 386 0 basechar 0
AnchorPoint: "Anchor-1" 752 720 basechar 0
AnchorPoint: "Anchor-0" 386 720 basechar 0
LayerCount: 3
Fore
SplineSet
386 -10 m 0
 334.666666667 -10 287.833333333 -1 245.5 17 c 128
 203.166666667 35 166.333333333 60.5 135 93.5 c 128
 103.666666667 126.5 79.3333333333 165.833333333 62 211.5 c 128
 44.6666666667 257.166666667 36 307.666666667 36 363 c 0
 36 436.333333333 50.8333333333 500.5 80.5 555.5 c 128
 110.166666667 610.5 151.333333333 653.333333333 204 684 c 128
 256.666666667 714.666666667 317 730 385 730 c 0
 453.666666667 730 514.333333333 714.666666667 567 684 c 128
 619.666666667 653.333333333 660.833333333 610.333333333 690.5 555 c 128
 720.166666667 499.666666667 735 435.333333333 735 362 c 0
 735 307.333333333 726.333333333 257.166666667 709 211.5 c 128
 691.666666667 165.833333333 667.5 126.5 636.5 93.5 c 128
 605.5 60.5 568.666666667 35 526 17 c 128
 483.333333333 -1 436.666666667 -10 386 -10 c 0
385 95 m 256
 515.984954849 95 594 205.919921875 594 364 c 0
 594 394.278320312 597.043472594 625 385 625 c 256
 255.062568473 625 177 526.889648438 177 364 c 4
 177 201.057617188 255.342513098 95 385 95 c 256
EndSplineSet
Substitution2: "Single Substitution lookup 17 subtable" ordmasculine
Substitution2: "'aalt' Access All Alternates in Latin lookup 0 subtable" ordmasculine
EndChar

StartChar: Oslash
Encoding: 216 216 70
Width: 772
GlyphClass: 2
Flags: HW
AnchorPoint: "Anchor-3" 532 20 basechar 0
AnchorPoint: "Anchor-2" 386 0 basechar 0
AnchorPoint: "Anchor-1" 752 720 basechar 0
AnchorPoint: "Anchor-0" 386 720 basechar 0
LayerCount: 3
Fore
SplineSet
115 -10 m 1
 46 51 l 1
 649 730 l 1
 718 669 l 1
 115 -10 l 1
386 -10 m 0
 334.666666667 -10 287.833333333 -1 245.5 17 c 128
 203.166666667 35 166.333333333 60.5 135 93.5 c 128
 103.666666667 126.5 79.3333333333 165.833333333 62 211.5 c 128
 44.6666666667 257.166666667 36 307.666666667 36 363 c 0
 36 436.333333333 50.8333333333 500.5 80.5 555.5 c 128
 110.166666667 610.5 151.333333333 653.333333333 204 684 c 128
 256.666666667 714.666666667 317 730 385 730 c 0
 453.666666667 730 514.333333333 714.666666667 567 684 c 128
 619.666666667 653.333333333 660.833333333 610.333333333 690.5 555 c 128
 720.166666667 499.666666667 735 435.333333333 735 362 c 0
 735 307.333333333 726.333333333 257.166666667 709 211.5 c 128
 691.666666667 165.833333333 667.5 126.5 636.5 93.5 c 128
 605.5 60.5 568.666666667 35 526 17 c 128
 483.333333333 -1 436.666666667 -10 386 -10 c 0
385 95 m 256
 428.333333333 95 466.333333333 106.333333333 499 129 c 128
 531.666666667 151.666666667 557.333333333 183.166666667 576 223.5 c 128
 594.666666667 263.833333333 604 310.666666667 604 364 c 0
 604 416.666666667 594.833333333 462.666666667 576.5 502 c 128
 558.166666667 541.333333333 532.666666667 571.666666667 500 593 c 128
 467.333333333 614.333333333 429 625 385 625 c 256
 341 625 302.666666667 614.333333333 270 593 c 128
 237.333333333 571.666666667 212 541.5 194 502.5 c 128
 176 463.5 167 417.333333333 167 364 c 0
 167 310 176.166666667 262.833333333 194.5 222.5 c 128
 212.833333333 182.166666667 238.333333333 150.833333333 271 128.5 c 128
 303.666666667 106.166666667 341.666666667 95 385 95 c 256
EndSplineSet
Validated: 5
EndChar

StartChar: OE
Encoding: 338 338 72
Width: 1049
Flags: HW
LayerCount: 3
Fore
SplineSet
415 -10 m 0
 339 -10 272.666666667 5.5 216 36.5 c 128
 159.333333333 67.5 115.166666667 110.833333333 83.5 166.5 c 128
 51.8333333333 222.166666667 36 287 36 361 c 256
 36 435 51.8333333333 499.666666667 83.5 555 c 128
 115.166666667 610.333333333 159.333333333 653.333333333 216 684 c 128
 272.666666667 714.666666667 339 730 415 730 c 0
 444.333333333 730 470.666666667 728.666666667 494 726 c 128
 517.333333333 723.333333333 539 719.666666667 559 715 c 1
 555 603 l 1
 537 610.333333333 516.5 615.833333333 493.5 619.5 c 128
 470.5 623.166666667 444.333333333 625 415 625 c 0
 361 625 315.5 614.333333333 278.5 593 c 128
 241.5 571.666666667 213.666666667 541.166666667 195 501.5 c 128
 176.333333333 461.833333333 167 415 167 361 c 0
 167 306.333333333 176.333333333 259 195 219 c 128
 213.666666667 179 241.5 148.333333333 278.5 127 c 128
 315.5 105.666666667 361 95 415 95 c 0
 444.333333333 95 470.5 96.8333333333 493.5 100.5 c 128
 516.5 104.166666667 537 109.666666667 555 117 c 1
 559 5 l 1
 539 0.333333333333 517.333333333 -3.33333333333 494 -6 c 128
 470.666666667 -8.66666666667 444.333333333 -10 415 -10 c 0
529 0 m 1
 529 720 l 1
 989 720 l 1
 989 618 l 1
 658 618 l 1
 658 421 l 1
 965 421 l 1
 965 320 l 1
 658 320 l 1
 658 102 l 1
 999 102 l 1
 999 0 l 1
 529 0 l 1
EndSplineSet
Validated: 5
EndChar

StartChar: P
Encoding: 80 80 73
Width: 649
Flags: HW
LayerCount: 3
Fore
SplineSet
62 0 m 1
 62 720 l 1
 372 720 l 2
 424 720 468.5 711 505.5 693 c 128
 542.5 675 571 649.666666667 591 617 c 128
 611 584.333333333 621 545.666666667 621 501 c 256
 621 456.333333333 610.833333333 417.5 590.5 384.5 c 128
 570.166666667 351.5 541.5 325.833333333 504.5 307.5 c 128
 467.5 289.166666667 423.333333333 280 372 280 c 2
 162 280 l 1
 162 382 l 1
 356 382 l 6
 396.666992188 382 427.833007812 392.5 449.5 413.5 c 132
 471.166992188 434.5 482 463.666992188 482 501 c 4
 482 537.666992188 471.166992188 566.333007812 449.5 587 c 132
 427.833007812 607.666992188 396.666992188 618 356 618 c 6
 201 618 l 1
 201 0 l 1
 62 0 l 1
EndSplineSet
EndChar

StartChar: Thorn
Encoding: 222 222 74
Width: 647
Flags: HW
LayerCount: 3
Fore
SplineSet
159 154 m 1
 159 256 l 1
 361 256 l 2
 401.666666667 256 433.333333333 266.333333333 456 287 c 128
 478.666666667 307.666666667 490 335.333333333 490 370 c 256
 490 404.666666667 478.666666667 432.333333333 456 453 c 128
 433.333333333 473.666666667 401.666666667 484 361 484 c 2
 159 484 l 1
 159 586 l 1
 369 586 l 2
 420.333333333 586 464.5 577 501.5 559 c 128
 538.5 541 567.333333333 515.833333333 588 483.5 c 128
 608.666666667 451.166666667 619 413.333333333 619 370 c 0
 619 327.333333333 608.666666667 289.666666667 588 257 c 128
 567.333333333 224.333333333 538.5 199 501.5 181 c 128
 464.5 163 420.333333333 154 369 154 c 2
 159 154 l 1
59 0 m 1
 59 720 l 1
 188 720 l 1
 188 0 l 1
 59 0 l 1
EndSplineSet
Validated: 5
EndChar

StartChar: Q
Encoding: 81 81 75
Width: 783
Flags: HW
LayerCount: 3
Fore
SplineSet
392 -10 m 1
 321.333333333 -10 259.166666667 5.66666666667 205.5 37 c 128
 151.833333333 68.3333333333 110.166666667 112 80.5 168 c 128
 50.8333333333 224 36 289 36 363 c 0
 36 436.333333333 50.8333333333 500.5 80.5 555.5 c 128
 110.166666667 610.5 151.333333333 653.333333333 204 684 c 128
 256.666666667 714.666666667 317 730 385 730 c 0
 453.666666667 730 514.333333333 714.666666667 567 684 c 128
 619.666666667 653.333333333 660.833333333 610.333333333 690.5 555 c 128
 720.166666667 499.666666667 735 435.333333333 735 362 c 0
 735 312.666666667 727.333333333 266.666666667 712 224 c 128
 696.666666667 181.333333333 672.666666667 144.833333333 640 114.5 c 128
 607.333333333 84.1666666667 565.333333333 62.3333333333 514 49 c 1
 392 -10 l 1
385 90 m 256
 515.51631988 90 594 195.713867188 594 364 c 4
 594 394.278320312 597.043472594 625 385 625 c 256
 255.062568473 625 177 526.889648438 177 364 c 0
 177 192.919921875 257.117326725 90 385 90 c 256
392 -10 m 1
 390 52 l 1
 777 119 l 1
 777 0 l 1
 736.333333333 0 699.166666667 -0.5 665.5 -1.5 c 128
 631.833333333 -2.5 601.5 -3.66666666667 574.5 -5 c 128
 547.5 -6.33333333333 519.5 -7.5 490.5 -8.5 c 128
 461.5 -9.5 428.666666667 -10 392 -10 c 1
EndSplineSet
Substitution2: "'ss09' Style Set 9 in Latin lookup 30 subtable" Q.ss09
Substitution2: "'aalt' Access All Alternates in Latin lookup 0 subtable" Q.ss09
EndChar

StartChar: R
Encoding: 65537 -1 76
Width: 647
GlyphClass: 2
Flags: HW
AnchorPoint: "Anchor-2" 323 0 basechar 0
AnchorPoint: "Anchor-0" 323 720 basechar 0
LayerCount: 3
Fore
SplineSet
59 0 m 1
 59 720 l 1
 351 720 l 2
 401.666666667 720 445.666666667 711.333333333 483 694 c 128
 520.333333333 676.666666667 549 652.333333333 569 621 c 128
 589 589.666666667 599 553 599 511 c 0
 599 469.666666667 589 433.5 569 402.5 c 128
 549 371.5 520.333333333 347.166666667 483 329.5 c 128
 445.666666667 311.833333333 401.666666667 303 351 303 c 2
 159 303 l 1
 159 402 l 1
 347 402 l 2
 388.333333333 402 419.833333333 411.666666667 441.5 431 c 128
 463.166666667 450.333333333 474 477 474 511 c 256
 474 545 463.333333333 571.333333333 442 590 c 128
 420.666666667 608.666666667 389 618 347 618 c 2
 188 618 l 1
 188 0 l 1
 59 0 l 1
458 0 m 1
 150 369 l 1
 294 369 l 1
 634 0 l 1
 458 0 l 1
EndSplineSet
Validated: 5
Substitution2: "'calt' Contextual Alternates in Latin lookup 26 subtable" R.ss05
Substitution2: "'aalt' Access All Alternates in Latin lookup 0 subtable" R.ss05
EndChar

StartChar: S
Encoding: 83 83 80
Width: 621
GlyphClass: 2
Flags: HWO
AnchorPoint: "Anchor-2" 326 0 basechar 0
AnchorPoint: "Anchor-0" 320 720 basechar 0
LayerCount: 3
Fore
SplineSet
331 -9 m 0
 243 -9 172.833333333 11.8333333333 120.5 53.5 c 128
 68.1666666667 95.1666666667 38 154 30 230 c 1
 154 230 l 1
 159.333333333 185.333333333 177.833333333 150.833333333 209.5 126.5 c 128
 241.166666667 102.166666667 283.333333333 90 336 90 c 0
 424 90 458 120.666992188 458 182 c 0
 458 237.9296875 436.349024614 266.43952169 374 286 c 2
 249 327 l 2
 185 347.666666667 138.166666667 374.333333333 108.5 407 c 128
 78.8333333333 439.666666667 64 480.333333333 64 529 c 0
 64 663.666666667 148 731 316 731 c 0
 394 731 456.333333333 711.5 503 672.5 c 128
 549.666666667 633.5 576 580.666666667 582 514 c 1
 458 514 l 1
 451.333333333 554.666666667 435.5 584.333333333 410.5 603 c 128
 385.5 621.666666667 352 631 310 631 c 0
 228.666666667 631 198 582.666992188 198 546 c 0
 198 484.017578125 242.950195312 451.608398438 283 439 c 2
 411 397 l 2
 474.333007812 377 520.5 360.166666667 549.5 326.5 c 128
 578.5 292.833333333 603 251 603 201 c 4
 603 61 505.666666667 -9 331 -9 c 0
EndSplineSet
EndChar

StartChar: uni1E9E
Encoding: 7838 7838 85
Width: 698
Flags: HW
LayerCount: 3
Fore
SplineSet
404 -9 m 0
 380.666666667 -9 358 -7.5 336 -4.5 c 128
 314 -1.5 293.666666667 3 275 9 c 1
 275 116 l 1
 292.333333333 108.666666667 310.666666667 103.166666667 330 99.5 c 128
 349.333333333 95.8333333333 370.333333333 94 393 94 c 0
 442.333333333 94 479 103 503 121 c 128
 527 139 539 166.666666667 539 204 c 0
 539 240 525.833333333 269.833333333 499.5 293.5 c 128
 473.166666667 317.166666667 429.333333333 338.333333333 368 357 c 2
 330 368 l 1
 532 636 l 1
 520 568 l 1
 502 588 480.166666667 603 454.5 613 c 128
 428.833333333 623 399.666666667 628 367 628 c 0
 309.666666667 628 266 612.333333333 236 581 c 128
 206 549.666666667 191 503.333333333 191 442 c 2
 191 0 l 1
 62 0 l 1
 62 432 l 2
 62 529.333333333 88.6666666667 603.5 142 654.5 c 128
 195.333333333 705.5 272.666666667 731 374 731 c 0
 432.666666667 731 485.5 722.166666667 532.5 704.5 c 128
 579.5 686.833333333 622.666666667 659.333333333 662 622 c 1
 473 377 l 1
 425 442 l 1
 509 414.666666667 570.666666667 381 610 341 c 128
 649.333333333 301 669 252 669 194 c 0
 669 152 658.5 115.833333333 637.5 85.5 c 128
 616.5 55.1666666667 586.166666667 31.8333333333 546.5 15.5 c 128
 506.833333333 -0.833333333333 459.333333333 -9 404 -9 c 0
EndSplineSet
Validated: 5
EndChar

StartChar: T
Encoding: 84 84 86
Width: 644
GlyphClass: 2
Flags: HW
AnchorPoint: "Anchor-2" 322 0 basechar 0
AnchorPoint: "Anchor-0" 322 720 basechar 0
LayerCount: 3
Fore
SplineSet
248 0 m 1
 248 618 l 1
 27 618 l 1
 27 720 l 1
 617 720 l 1
 617 618 l 1
 397 618 l 5
 397 0 l 5
 248 0 l 1
EndSplineSet
EndChar

StartChar: U
Encoding: 85 85 89
Width: 686
GlyphClass: 2
Flags: HW
AnchorPoint: "Anchor-3" 489 20 basechar 0
AnchorPoint: "Anchor-2" 343 0 basechar 0
AnchorPoint: "Anchor-1" 670 720 basechar 0
AnchorPoint: "Anchor-0" 343 720 basechar 0
LayerCount: 3
Back
SplineSet
342 -10 m 4
 247.333333333 -10 175.666666667 16.8333333333 127 70.5 c 132
 78.3333333333 124.166666667 54 201.333333333 54 302 c 6
 54 720 l 5
 193 720 l 5
 193 282 l 6
 193 222.842075725 208.553841507 95 343 95 c 260
 414.093401939 95 503 126.154120554 503 282 c 6
 503 720 l 5
 632 720 l 5
 632 301 l 6
 632 201 607.5 124.166666667 558.5 70.5 c 132
 509.5 16.8333333333 437.333333333 -10 342 -10 c 4
EndSplineSet
Fore
SplineSet
342 -10 m 0
 247.333333333 -10 175.666666667 16.8333333333 127 70.5 c 128
 78.3333333333 124.166666667 54 171.333333333 54 302 c 6
 54 720 l 1
 213 720 l 1
 213 282 l 2
 213 134 277 93 343 95 c 256
 414.060782804 97.1533570547 483 126.154296875 483 282 c 2
 483 720 l 1
 632 720 l 1
 632 301 l 6
 632 161 607.5 124.166666667 558.5 70.5 c 128
 509.5 16.8333333333 437.333333333 -10 342 -10 c 0
EndSplineSet
EndChar

StartChar: V
Encoding: 86 86 99
Width: 712
Flags: HW
LayerCount: 3
Fore
SplineSet
282 0 m 1
 27 720 l 1
 162 720 l 1
 370 91 l 1
 349 91 l 1
 557 720 l 1
 685 720 l 1
 430 0 l 1
 282 0 l 1
EndSplineSet
Validated: 5
EndChar

StartChar: W
Encoding: 87 87 100
Width: 1051
GlyphClass: 2
Flags: HW
AnchorPoint: "Anchor-2" 526 0 basechar 0
AnchorPoint: "Anchor-0" 526 720 basechar 0
LayerCount: 3
Fore
SplineSet
235 0 m 1
 38 720 l 1
 189 720 l 1
 345 58 l 1
 299 58 l 1
 455 720 l 1
 603 720 l 1
 757 58 l 1
 712 58 l 1
 869 720 l 1
 1013 720 l 1
 816 0 l 1
 669 0 l 1
 512 647 l 1
 541 647 l 1
 383 0 l 1
 235 0 l 1
EndSplineSet
EndChar

StartChar: X
Encoding: 88 88 105
Width: 686
Flags: HW
LayerCount: 3
Fore
SplineSet
501 0 m 5
 297 323 l 5
 32 720 l 5
 202 720 l 5
 394 416 l 5
 671 0 l 5
 501 0 l 5
326 417 m 1
 524 720 l 1
 661 720 l 1
 374 307 l 1
 326 417 l 1
359 303 m 1
 161 0 l 1
 25 0 l 1
 311 413 l 1
 359 303 l 1
EndSplineSet
EndChar

StartChar: Y
Encoding: 89 89 106
Width: 682
GlyphClass: 2
Flags: HW
AnchorPoint: "Anchor-2" 341 0 basechar 0
AnchorPoint: "Anchor-0" 341 720 basechar 0
LayerCount: 3
Fore
SplineSet
277 0 m 1
 277 304 l 1
 15 720 l 1
 189 720 l 1
 393 351 l 1
 304 351 l 1
 507 720 l 5
 668 720 l 1
 406 304 l 1
 406 0 l 1
 277 0 l 1
EndSplineSet
EndChar

StartChar: Z
Encoding: 90 90 111
Width: 616
GlyphClass: 2
Flags: HW
AnchorPoint: "Anchor-2" 309 0 basechar 0
AnchorPoint: "Anchor-0" 309 720 basechar 0
LayerCount: 3
Fore
SplineSet
47 0 m 1
 47 90 l 1
 408 667 l 5
 472 618 l 1
 59 618 l 1
 59 720 l 1
 568 720 l 1
 568 632 l 1
 200 57 l 1
 148 102 l 1
 574 102 l 1
 574 0 l 1
 47 0 l 1
EndSplineSet
EndChar

StartChar: K.ss04
Encoding: 65559 -1 133
Width: 694
GlyphClass: 2
Flags: HW
AnchorPoint: "Anchor-2" 352 0 basechar 0
AnchorPoint: "Anchor-0" 348 720 basechar 0
LayerCount: 3
Fore
SplineSet
62 0 m 1
 62 720 l 1
 191 720 l 1
 191 0 l 1
 62 0 l 1
135 298 m 1
 493 720 l 1
 655 720 l 1
 341 358 l 1
 319 350 l 1
 150 155 l 1
 135 298 l 1
516 0 m 1
 248 404 l 1
 368 442 l 1
 674 0 l 1
 516 0 l 1
EndSplineSet
Validated: 5
EndChar

StartChar: R.ss05
Encoding: 82 82 135
Width: 640
GlyphClass: 2
Flags: HW
AnchorPoint: "Anchor-2" 327 0 basechar 0
AnchorPoint: "Anchor-0" 321 720 basechar 0
LayerCount: 3
Fore
SplineSet
62 0 m 1
 62 720 l 1
 361 720 l 2
 411 720 454 712 490 696 c 128
 526 680 553.666666667 657.166666667 573 627.5 c 128
 592.333333333 597.833333333 602 562.666666667 602 522 c 0
 602 423.333333333 539.333333333 366.333333333 414 351 c 1
 417 363 l 1
 451.666666667 365.666666667 484.923502604 355.064778646 516.770507812 331.194335938 c 0
 553.590169271 304.398111979 577.526041667 255.144205729 588.578125 183.432617188 c 0
 600.192708333 104.477539063 617.626302083 43.3333333333 640.87890625 0 c 1
 502.87890625 0 l 1
 490.29296875 43.3330078125 477 104.833007812 463 184.5 c 128
 449 264.166992188 403.333007812 304 326 304 c 2
 124 304 l 1
 124 402 l 1
 336 402 l 2
 376.666992188 402 408 411.666992188 430 431 c 128
 452 450.333007812 463 477 463 511 c 0
 463 545.666992188 452.166992188 572.166992188 430.5 590.5 c 128
 408.833007812 608.833007812 377.333007812 618 336 618 c 2
 201 618 l 5
 201 0 l 5
 62 0 l 1
EndSplineSet
EndChar

StartChar: M.ss06
Encoding: 65561 -1 139
Width: 860
Flags: HW
LayerCount: 3
Fore
SplineSet
42 0 m 1
 114 720 l 1
 279 720 l 1
 460 15 l 1
 399 15 l 1
 579 720 l 1
 745 720 l 1
 818 0 l 1
 691 0 l 1
 623 686 l 1
 668 686 l 1
 497 0 l 1
 356 0 l 1
 187 680 l 1
 230 680 l 1
 163 0 l 1
 42 0 l 1
EndSplineSet
Validated: 5
EndChar

StartChar: G.ss07
Encoding: 65562 -1 140
Width: 750
GlyphClass: 2
Flags: HW
AnchorPoint: "Anchor-2" 381 0 basechar 0
AnchorPoint: "Anchor-0" 381 720 basechar 0
LayerCount: 3
Fore
SplineSet
388 -10 m 0
 318.666666667 -10 257.5 5.66666666667 204.5 37 c 128
 151.5 68.3333333333 110.166666667 112 80.5 168 c 128
 50.8333333333 224 36 288 36 360 c 0
 36 432.666666667 51 496.666666667 81 552 c 128
 111 607.333333333 152.5 650.833333333 205.5 682.5 c 128
 258.5 714.166666667 319.666666667 730 389 730 c 0
 445.666666667 730 496.166666667 719.333333333 540.5 698 c 128
 584.833333333 676.666666667 621.166666667 647.666666667 649.5 611 c 128
 677.833333333 574.333333333 695.333333333 532.333333333 702 485 c 1
 575 485 l 1
 570.333333333 512.333333333 559.666666667 536.5 543 557.5 c 128
 526.333333333 578.5 505.166666667 595 479.5 607 c 128
 453.833333333 619 424 625 390 625 c 0
 344.666666667 625 305.333333333 614.333333333 272 593 c 128
 238.666666667 571.666666667 212.833333333 541.166666667 194.5 501.5 c 128
 176.166666667 461.833333333 167 414.666666667 167 360 c 0
 167 306.666666667 176 260 194 220 c 128
 212 180 237.833333333 149.166666667 271.5 127.5 c 128
 305.166666667 105.833333333 345 95 391 95 c 0
 431.666666667 95 467.166666667 103.833333333 497.5 121.5 c 128
 527.833333333 139.166666667 551.333333333 165.666666667 568 201 c 128
 584.666666667 236.333333333 593 280.333333333 593 333 c 1
 713 333 l 1
 713 260.333333333 699.333333333 198.333333333 672 147 c 128
 644.666666667 95.6666666667 606.666666667 56.6666666667 558 30 c 128
 509.333333333 3.33333333333 452.666666667 -10 388 -10 c 0
622 282 m 1
 402 282 l 1
 402 384 l 1
 713 384 l 1
 713 333 l 1
 622 282 l 1
EndSplineSet
Validated: 5
EndChar

StartChar: J.ss08
Encoding: 65566 -1 144
Width: 619
Flags: HW
LayerCount: 3
Fore
SplineSet
301 -10 m 0
 245.666666667 -10 198.666666667 1.33333333333 160 24 c 128
 121.333333333 46.6666666667 91.8333333333 77.3333333333 71.5 116 c 128
 51.1666666667 154.666666667 41 198.333333333 41 247 c 1
 167 247 l 1
 167 199 179.833333333 161.666666667 205.5 135 c 128
 231.166666667 108.333333333 263 95 301 95 c 0
 326.333333333 95 349.166666667 100.333333333 369.5 111 c 128
 389.833333333 121.666666667 405.833333333 138.833333333 417.5 162.5 c 128
 429.166666667 186.166666667 435 217.666666667 435 257 c 2
 435 720 l 1
 564 720 l 1
 564 274 l 2
 564 212 553.833333333 160 533.5 118 c 128
 513.166666667 76 483.5 44.1666666667 444.5 22.5 c 128
 405.5 0.833333333333 357.666666667 -10 301 -10 c 0
EndSplineSet
Validated: 1
EndChar

StartChar: Q.ss09
Encoding: 65567 -1 145
Width: 772
Flags: HW
LayerCount: 3
Fore
SplineSet
386 -10 m 0
 334.666666667 -10 287.833333333 -1 245.5 17 c 128
 203.166666667 35 166.333333333 60.5 135 93.5 c 128
 103.666666667 126.5 79.3333333333 165.833333333 62 211.5 c 128
 44.6666666667 257.166666667 36 307.666666667 36 363 c 0
 36 436.333333333 50.8333333333 500.5 80.5 555.5 c 128
 110.166666667 610.5 151.333333333 653.333333333 204 684 c 128
 256.666666667 714.666666667 317 730 385 730 c 0
 453.666666667 730 514.333333333 714.666666667 567 684 c 128
 619.666666667 653.333333333 660.833333333 610.333333333 690.5 555 c 128
 720.166666667 499.666666667 735 435.333333333 735 362 c 0
 735 307.333333333 726.333333333 257.166666667 709 211.5 c 128
 691.666666667 165.833333333 667.5 126.5 636.5 93.5 c 128
 605.5 60.5 568.666666667 35 526 17 c 128
 483.333333333 -1 436.666666667 -10 386 -10 c 0
385 95 m 0
 417 95 446.5 101.166666667 473.5 113.5 c 128
 500.5 125.833333333 523.833333333 143.833333333 543.5 167.5 c 128
 563.166666667 191.166666667 578.166666667 219.5 588.5 252.5 c 128
 598.833333333 285.5 604 322.666666667 604 364 c 0
 604 416.666666667 594.833333333 462.666666667 576.5 502 c 128
 558.166666667 541.333333333 532.666666667 571.666666667 500 593 c 128
 467.333333333 614.333333333 429 625 385 625 c 256
 341 625 302.666666667 614.333333333 270 593 c 128
 237.333333333 571.666666667 212 541.5 194 502.5 c 128
 176 463.5 167 417.333333333 167 364 c 0
 167 310 176.166666667 262.833333333 194.5 222.5 c 128
 212.833333333 182.166666667 238.333333333 150.833333333 271 128.5 c 128
 303.666666667 106.166666667 341.666666667 95 385 95 c 0
361 241 m 1
 450 292 l 1
 671 -92 l 1
 582 -143 l 1
 361 241 l 1
EndSplineSet
Validated: 5
EndChar

StartChar: a
Encoding: 97 97 150
Width: 546
GlyphClass: 2
Flags: HW
AnchorPoint: "Anchor-3" 500 0 basechar 0
AnchorPoint: "Anchor-2" 278 0 basechar 0
AnchorPoint: "Anchor-0" 286 510 basechar 0
LayerCount: 3
Fore
SplineSet
375 0 m 1
 371.666666667 13.3333333333 369.166666667 28 367.5 44 c 128
 365.833333333 60 365 78.6666666667 365 100 c 1
 361 100 l 1
 361 346 l 2
 361 372 355.166666667 391.833333333 343.5 405.5 c 128
 331.833333333 419.166666667 311 426 281 426 c 0
 260.583333333 426 239.75 420.333333333 218.5 409 c 0
 204.166666667 401.666666667 195.333333333 385.666666667 192 361 c 1
 72 361 l 1
 77.3333333333 408.333333333 99.8333333333 446.666666667 139.5 476 c 128
 179.166666667 505.333333333 228 520 286 520 c 0
 354 520 404.333333333 504.333333333 437 473 c 128
 469.666666667 441.666666667 486 396 486 336 c 2
 486 100 l 2
 486 84.6666666667 487 68.6666666667 489 52 c 128
 491 35.3333333333 494.333333333 18 499 0 c 1
 375 0 l 1
203 -10 m 0
 153 -10 113.333333333 2.66666666667 84 28 c 128
 54.6666666667 53.3333333333 40 87.6666666667 40 131 c 0
 40 185.666666667 56.1666666667 226.666666667 88.5 254 c 4
 124.50087146 284.386056645 178.667538127 303.386056645 251 311 c 6
 384 325 l 5
 384 244 l 5
 274 235 l 6
 232 231.666666667 202.666666667 223 186 209 c 4
 171.333333333 197 164 175.666666667 164 145 c 0
 164 125.666666667 170.833333333 110.833333333 184.5 100.5 c 128
 198.166666667 90.1666666667 217 85 241 85 c 0
 275 85 303.5 93.8333333333 326.5 111.5 c 128
 349.5 129.166666667 361 150.666666667 361 176 c 1
 374 100 l 1
 361.333333333 64 340.166666667 36.6666666667 310.5 18 c 128
 280.833333333 -0.666666666667 245 -10 203 -10 c 0
EndSplineSet
Substitution2: "'ss02' Style Set 2 in Latin lookup 23 subtable" a.ss02
Substitution2: "Single Substitution lookup 17 subtable" ordfeminine
AlternateSubs2: "'aalt' Access All Alternates in Latin lookup 1 subtable" a.ss02 ordfeminine
EndChar

StartChar: ae
Encoding: 230 230 161
Width: 860
Flags: HW
LayerCount: 3
Fore
SplineSet
358 139 m 1
 358 346 l 2
 358 372 350.5 391.833333333 335.5 405.5 c 128
 320.5 419.166666667 299 426 271 426 c 0
 245 426 223.166666667 420.333333333 205.5 409 c 128
 187.833333333 397.666666667 177.333333333 381.666666667 174 361 c 1
 54 361 l 1
 59.3333333333 408.333333333 80.6666666667 446.666666667 118 476 c 128
 155.333333333 505.333333333 206.333333333 520 271 520 c 0
 337.666666667 520 388.333333333 504.333333333 423 473 c 128
 457.666666667 441.666666667 475 396 475 336 c 2
 475 139 l 1
 358 139 l 1
209 -10 m 0
 158.333333333 -10 117.5 2.83333333333 86.5 28.5 c 128
 55.5 54.1666666667 40 89 40 133 c 0
 40 173.666666667 54.5 207.833333333 83.5 235.5 c 128
 112.5 263.166666667 159.666666667 282.333333333 225 293 c 2
 370 317 l 1
 370 237 l 1
 254 217 l 2
 222 211.666666667 199 202.833333333 185 190.5 c 128
 171 178.166666667 164 162.333333333 164 143 c 0
 164 125 170.666666667 110.833333333 184 100.5 c 128
 197.333333333 90.1666666667 217 85 243 85 c 0
 261.666666667 85 279.833333333 89.1666666667 297.5 97.5 c 128
 315.166666667 105.833333333 329.666666667 117 341 131 c 128
 352.333333333 145 358 160.333333333 358 177 c 1
 431 140 l 1
 409 84 379.333333333 45 342 23 c 128
 304.666666667 1 260.333333333 -10 209 -10 c 0
602 -10 m 0
 552 -10 508.833333333 1.33333333333 472.5 24 c 128
 436.166666667 46.6666666667 408.333333333 77.8333333333 389 117.5 c 128
 369.666666667 157.166666667 360 203.333333333 360 256 c 256
 360 308.666666667 369.833333333 354.833333333 389.5 394.5 c 128
 409.166666667 434.166666667 437.166666667 465 473.5 487 c 128
 509.833333333 509 552 520 600 520 c 0
 647.333333333 520 688.333333333 509.5 723 488.5 c 128
 757.666666667 467.5 784.666666667 438.166666667 804 400.5 c 128
 823.333333333 362.833333333 833 318.333333333 833 267 c 0
 833 257.666666667 832.833333333 249 832.5 241 c 128
 832.166666667 233 831.333333333 225.333333333 830 218 c 1
 428 218 l 1
 428 305 l 1
 741 305 l 1
 717 280 l 1
 717 328.666666667 707.166666667 365.166666667 687.5 389.5 c 128
 667.833333333 413.833333333 640 426 604 426 c 0
 578 426 555.333333333 419.833333333 536 407.5 c 128
 516.666666667 395.166666667 501.666666667 376.333333333 491 351 c 128
 480.333333333 325.666666667 475 293.333333333 475 254 c 0
 475 198.666666667 486.166666667 156.5 508.5 127.5 c 128
 530.833333333 98.5 562.333333333 84 603 84 c 0
 628.333333333 84 648.833333333 89.1666666667 664.5 99.5 c 128
 680.166666667 109.833333333 692.333333333 126 701 148 c 1
 820 148 l 1
 804 99.3333333333 777.333333333 60.8333333333 740 32.5 c 128
 702.666666667 4.16666666667 656.666666667 -10 602 -10 c 0
EndSplineSet
Validated: 5
EndChar

StartChar: b
Encoding: 98 98 162
Width: 608
Flags: HW
LayerCount: 3
Fore
SplineSet
351 -10 m 0
 304.333333333 -10 265.666666667 2.66666666667 235 28 c 128
 204.333333333 53.3333333333 185.333333333 86 178 126 c 1
 187 120 l 1
 184 0 l 1
 62 0 l 1
 65 117 l 5
 63.6666666667 65 63.6666666667 266 65 720 c 1
 191 720 l 1
 191 396 l 1
 182 392 l 1
 190.666666667 429.333333333 210.833333333 460 242.5 484 c 128
 274.166666667 508 313 520 359 520 c 0
 403.666666667 520 442.333333333 509.166666667 475 487.5 c 128
 507.666666667 465.833333333 533 435.333333333 551 396 c 128
 569 356.666666667 578 310.333333333 578 257 c 0
 578 203 568.666666667 156 550 116 c 128
 531.333333333 76 505 45 471 23 c 128
 437 1 397 -10 351 -10 c 0
319 93 m 0
 358.333333333 93 389.666666667 107.166666667 413 135.5 c 128
 436.333333333 163.833333333 448 204 448 256 c 256
 448 308 436.166666667 347.833333333 412.5 375.5 c 128
 388.833333333 403.166666667 357.333333333 417 318 417 c 256
 278.666666667 417 247.166666667 402.833333333 223.5 374.5 c 128
 199.833333333 346.166666667 188 306.333333333 188 255 c 0
 188 203 199.833333333 163 223.5 135 c 128
 247.166666667 107 279 93 319 93 c 0
EndSplineSet
Validated: 37
EndChar

StartChar: c
Encoding: 99 99 163
Width: 540
GlyphClass: 2
Flags: HW
AnchorPoint: "Anchor-2" 276 0 basechar 0
AnchorPoint: "Anchor-0" 285 510 basechar 0
LayerCount: 3
Fore
SplineSet
282 -10 m 0
 232 -10 187.833333333 1.33333333333 149.5 24 c 128
 111.166666667 46.6666666667 81.1666666667 78 59.5 118 c 128
 37.8333333333 158 27 204 27 256 c 0
 27 307.333333333 37.8333333333 353 59.5 393 c 128
 81.1666666667 433 111.166666667 464.166666667 149.5 486.5 c 128
 187.833333333 508.833333333 232 520 282 520 c 0
 323.333333333 520 360.666666667 512.166666667 394 496.5 c 128
 427.333333333 480.833333333 454.5 458.833333333 475.5 430.5 c 128
 496.5 402.166666667 510 368.666666667 516 330 c 1
 390 330 l 5
 383.333333333 358.666666667 371.166666667 380.666666667 353.5 396 c 128
 335.833333333 411.333333333 312.666666667 419 284 419 c 0
 258 419 235.5 412.5 216.5 399.5 c 128
 197.5 386.5 183.333333333 367.833333333 174 343.5 c 128
 164.666666667 319.166666667 160 290 160 256 c 256
 160 222 164.666666667 192.666666667 174 168 c 128
 183.333333333 143.333333333 197.5 124.333333333 216.5 111 c 128
 235.5 97.6666666667 258 91 284 91 c 0
 312 91 335.166666667 98.6666666667 353.5 114 c 128
 371.833333333 129.333333333 384 151.333333333 390 180 c 5
 516 180 l 1
 510 141.333333333 496.333333333 107.833333333 475 79.5 c 128
 453.666666667 51.1666666667 426.333333333 29.1666666667 393 13.5 c 128
 359.666666667 -2.16666666667 322.666666667 -10 282 -10 c 0
EndSplineSet
EndChar

StartChar: d
Encoding: 100 100 168
Width: 608
GlyphClass: 2
Flags: HW
AnchorPoint: "Anchor-2" 304 0 basechar 0
AnchorPoint: "Anchor-1" 598 720 basechar 0
AnchorPoint: "Anchor-0" 304 738 basechar 0
LayerCount: 3
Fore
SplineSet
426 0 m 1
 421 114 l 1
 431 116 l 1
 422.333333333 79.3333333333 401.666666667 49.1666666667 369 25.5 c 128
 336.333333333 1.83333333333 297.666666667 -10 253 -10 c 0
 207.666666667 -10 168.333333333 0.833333333333 135 22.5 c 128
 101.666666667 44.1666666667 75.8333333333 74.6666666667 57.5 114 c 128
 39.1666666667 153.333333333 30 199.666666667 30 253 c 0
 30 307 39.3333333333 354 58 394 c 128
 76.6666666667 434 103 465 137 487 c 128
 171 509 211 520 257 520 c 0
 303.666666667 520 342.333333333 507.833333333 373 483.5 c 128
 403.666666667 459.166666667 422.666666667 427 430 387 c 1
 417 390 l 1
 417 720 l 1
 543 720 l 1
 543 131 l 6
 543 127 544.666666667 83.3333333333 548 0 c 1
 426 0 l 1
290 93 m 0
 330 93 361.666666667 107.166666667 385 135.5 c 128
 408.333333333 163.833333333 420 203.666666667 420 255 c 0
 420 307 408.166666667 347 384.5 375 c 128
 360.833333333 403 329 417 289 417 c 0
 250.333333333 417 219.166666667 402.833333333 195.5 374.5 c 128
 171.833333333 346.166666667 160 306 160 254 c 256
 160 202 171.833333333 162.166666667 195.5 134.5 c 128
 219.166666667 106.833333333 250.666666667 93 290 93 c 0
EndSplineSet
Validated: 5
EndChar

StartChar: eth
Encoding: 240 240 169
Width: 596
Flags: HW
LayerCount: 3
Fore
SplineSet
291 -10 m 0
 241.666666667 -10 197.5 0 158.5 20 c 128
 119.5 40 88.8333333333 68.8333333333 66.5 106.5 c 128
 44.1666666667 144.166666667 33 190 33 244 c 0
 33 297.333333333 44.3333333333 342.666666667 67 380 c 128
 89.6666666667 417.333333333 119.666666667 445.833333333 157 465.5 c 128
 194.333333333 485.166666667 234.666666667 495 278 495 c 0
 314 495 345.5 488.666666667 372.5 476 c 128
 399.5 463.333333333 421.5 445.666666667 438.5 423 c 128
 455.5 400.333333333 466.333333333 373.333333333 471 342 c 1
 438 293 l 1
 438 355 l 2
 438 417 425.833333333 469.333333333 401.5 512 c 128
 377.166666667 554.666666667 340.333333333 587.166666667 291 609.5 c 128
 241.666666667 631.833333333 179.666666667 643 105 643 c 1
 125 730 l 1
 193.666666667 730 255.166666667 721.166666667 309.5 703.5 c 128
 363.833333333 685.833333333 410 659.833333333 448 625.5 c 128
 486 591.166666667 515.166666667 548.833333333 535.5 498.5 c 128
 555.833333333 448.166666667 566 390 566 324 c 0
 566 218 542.666666667 135.833333333 496 77.5 c 128
 449.333333333 19.1666666667 381 -10 291 -10 c 0
293 92 m 0
 317.666666667 92 340.333333333 97.6666666667 361 109 c 128
 381.666666667 120.333333333 398.166666667 137.666666667 410.5 161 c 128
 422.833333333 184.333333333 429 213.333333333 429 248 c 256
 429 282.666666667 422.833333333 310.833333333 410.5 332.5 c 128
 398.166666667 354.166666667 381.833333333 370.166666667 361.5 380.5 c 128
 341.166666667 390.833333333 319 396 295 396 c 0
 259 396 228.666666667 383.5 204 358.5 c 128
 179.333333333 333.5 167 295.333333333 167 244 c 0
 167 208.666666667 172.666666667 179.833333333 184 157.5 c 128
 195.333333333 135.166666667 210.5 118.666666667 229.5 108 c 128
 248.5 97.3333333333 269.666666667 92 293 92 c 0
199 512 m 1
 158 577 l 1
 442 756 l 1
 483 691 l 1
 199 512 l 1
EndSplineSet
Validated: 5
EndChar

StartChar: dcroat
Encoding: 273 273 171
Width: 608
GlyphClass: 2
Flags: HW
AnchorPoint: "Anchor-2" 304 0 basechar 0
AnchorPoint: "Anchor-1" 598 720 basechar 0
AnchorPoint: "Anchor-0" 304 738 basechar 0
LayerCount: 3
Fore
SplineSet
245 584 m 1
 245 668 l 1
 608 668 l 1
 608 584 l 1
 245 584 l 1
421 0 m 1
 421 114 l 1
 431 111 l 1
 422.333333333 74.3333333333 401.666666667 45 369 23 c 128
 336.333333333 1 297.666666667 -10 253 -10 c 0
 207.666666667 -10 168.333333333 0.833333333333 135 22.5 c 128
 101.666666667 44.1666666667 75.8333333333 74.6666666667 57.5 114 c 128
 39.1666666667 153.333333333 30 199.666666667 30 253 c 0
 30 307 39.3333333333 354 58 394 c 128
 76.6666666667 434 103 465 137 487 c 128
 171 509 211 520 257 520 c 0
 303.666666667 520 342.333333333 508.666666667 373 486 c 128
 403.666666667 463.333333333 422.666666667 432 430 392 c 1
 417 390 l 1
 417 720 l 1
 543 720 l 1
 543 0 l 1
 421 0 l 1
290 93 m 0
 330 93 361.666666667 107.166666667 385 135.5 c 128
 408.333333333 163.833333333 420 203.666666667 420 255 c 0
 420 307 408.166666667 347 384.5 375 c 128
 360.833333333 403 329 417 289 417 c 0
 250.333333333 417 219.166666667 402.833333333 195.5 374.5 c 128
 171.833333333 346.166666667 160 306 160 254 c 256
 160 202 171.833333333 162.166666667 195.5 134.5 c 128
 219.166666667 106.833333333 250.666666667 93 290 93 c 0
EndSplineSet
Validated: 5
EndChar

StartChar: e
Encoding: 101 101 172
Width: 559
GlyphClass: 2
Flags: HW
AnchorPoint: "Anchor-3" 417 20 basechar 0
AnchorPoint: "Anchor-2" 279 0 basechar 0
AnchorPoint: "Anchor-0" 290 510 basechar 0
LayerCount: 3
Fore
SplineSet
290 -10 m 0
 237.333333333 -10 191.166666667 1.33333333333 151.5 24 c 128
 111.833333333 46.6666666667 81.1666666667 77.8333333333 59.5 117.5 c 128
 37.8333333333 157.166666667 27 203.333333333 27 256 c 256
 27 308.666666667 37.8333333333 354.833333333 59.5 394.5 c 128
 81.1666666667 434.166666667 111.666666667 465 151 487 c 128
 190.333333333 509 236 520 288 520 c 0
 338 520 381.166666667 509.5 417.5 488.5 c 128
 453.833333333 467.5 482 438.166666667 502 400.5 c 128
 522 362.833333333 532 318.333333333 532 267 c 0
 532 257.666666667 531.833333333 249 531.5 241 c 128
 531.166666667 233 530.333333333 225.333333333 529 218 c 1
 105 218 l 1
 105 305 l 1
 434 305 l 1
 398 280 l 5
 398 328.666666667 389 365.166666667 371 389.5 c 128
 353 413.833333333 325 426 287 426 c 0
 245 426 212 411.333333333 188 382 c 128
 164 352.666666667 152 310 152 254 c 0
 152 198.666666667 164 156.5 188 127.5 c 128
 212 98.5 246.333333333 84 291 84 c 0
 317 84 338 89.1666666667 354 99.5 c 128
 370 109.833333333 382.333333333 126 391 148 c 5
 519 148 l 1
 503 99.3333333333 475.5 60.8333333333 436.5 32.5 c 128
 397.5 4.16666666667 348.666666667 -10 290 -10 c 0
EndSplineSet
EndChar

StartChar: f
Encoding: 102 102 181
Width: 363
Flags: HW
LayerCount: 3
Fore
SplineSet
104 0 m 1
 104 559 l 2
 104 615 119.333333333 656.166666667 150 682.5 c 128
 180.666666667 708.833333333 226.333333333 722 287 722 c 4
 318 722 318 722 348 722 c 1
 348 626 l 1
 345 626 345 626 307 626 c 0
 280.333333333 626 260.666666667 620.333333333 248 609 c 128
 235.333333333 597.666666667 229 580.333333333 229 557 c 2
 229 0 l 1
 104 0 l 1
15 412 m 1
 15 510 l 1
 338 510 l 1
 338 412 l 1
 15 412 l 1
EndSplineSet
Validated: 5
EndChar

StartChar: g
Encoding: 103 103 182
Width: 608
GlyphClass: 2
Flags: HW
AnchorPoint: "Anchor-2" 304 -159 basechar 0
AnchorPoint: "Anchor-0" 289 510 basechar 0
LayerCount: 3
Fore
SplineSet
286 -169 m 0
 217.333333333 -169 162.5 -155 121.5 -127 c 128
 80.5 -99 56.3333333333 -58.6666666667 49 -6 c 1
 168 -6 l 1
 173.333333333 -24.6666666667 185.833333333 -39 205.5 -49 c 0
 222.5 -57.6666666667 248.333333333 -62 283 -62 c 0
 372.333333333 -62 417 -27.6666666667 417 41 c 2
 417 136 l 1
 426 140 l 1
 418 102.666666667 398 72 366 48 c 128
 334 24 295.333333333 12 250 12 c 0
 205.333333333 12 166.666666667 22.6666666667 134 44 c 128
 101.333333333 65.3333333333 75.8333333333 95 57.5 133 c 128
 39.1666666667 171 30 213.666666667 30 261 c 256
 30 313 39.5 358.333333333 58.5 397 c 128
 77.5 435.666666667 104 465.833333333 138 487.5 c 128
 172 509.166666667 212 520 258 520 c 0
 304.666666667 520 343 508 373 484 c 128
 403 460 421.666666667 427.666666667 429 387 c 1
 421 391 l 1
 425 510 l 1
 547 510 l 1
 543 394 l 0
 543 46 l 2
 543 -24.6666666667 520.833333333 -78.1666666667 476.5 -114.5 c 128
 432.166666667 -150.833333333 368.666666667 -169 286 -169 c 0
291 112 m 0
 329.666666667 112 359.166666667 126.5 379.5 155.5 c 128
 399.833333333 184.5 410 221.666666667 410 267 c 260
 410 317 399.833333333 355 379.5 381 c 128
 359.166666667 407 329 420 289 420 c 0
 250.333333333 420 220.833333333 406.166666667 200.5 378.5 c 128
 180.166666667 350.833333333 170 312 170 262 c 256
 170 216.666666667 180.333333333 180.333333333 201 153 c 128
 221.666666667 125.666666667 251.666666667 112 291 112 c 0
EndSplineSet
EndChar

StartChar: h
Encoding: 104 104 186
Width: 599
GlyphClass: 2
Flags: HW
AnchorPoint: "Anchor-2" 293 0 basechar 0
AnchorPoint: "Anchor-0" 293 510 basechar 0
LayerCount: 3
Fore
SplineSet
65 0 m 1
 65 720 l 1
 191 720 l 1
 191 0 l 1
 65 0 l 1
414 0 m 1
 414 326 l 2
 414 356.666666667 406.333333333 379.5 391 394.5 c 128
 375.666666667 409.5 353 417 323 417 c 0
 297.666666667 417 275 411.166666667 255 399.5 c 128
 235 387.833333333 219.333333333 371.833333333 208 351.5 c 128
 196.666666667 331.166666667 191 307.333333333 191 280 c 1
 178 398 l 1
 194.666666667 435.333333333 219.333333333 465 252 487 c 128
 284.666666667 509 323.666666667 520 369 520 c 0
 423 520 465 504.666666667 495 474 c 128
 525 443.333333333 540 402.666666667 540 352 c 2
 540 0 l 1
 414 0 l 1
EndSplineSet
Validated: 5
EndChar

StartChar: hbar
Encoding: 295 295 187
Width: 599
GlyphClass: 2
Flags: HW
AnchorPoint: "Anchor-2" 293 0 basechar 0
AnchorPoint: "Anchor-0" 293 510 basechar 0
LayerCount: 3
Fore
SplineSet
0 584 m 1
 0 668 l 1
 363 668 l 1
 363 584 l 1
 0 584 l 1
65 0 m 1
 65 720 l 1
 191 720 l 1
 191 0 l 1
 65 0 l 1
414 0 m 1
 414 326 l 2
 414 356.666666667 406.333333333 379.5 391 394.5 c 128
 375.666666667 409.5 353.333333333 417 324 417 c 0
 297.333333333 417 274 411.166666667 254 399.5 c 128
 234 387.833333333 218.5 371.833333333 207.5 351.5 c 128
 196.5 331.166666667 191 307.333333333 191 280 c 1
 178 398 l 1
 194.666666667 435.333333333 219.333333333 465 252 487 c 128
 284.666666667 509 323.666666667 520 369 520 c 0
 423 520 465 504.666666667 495 474 c 128
 525 443.333333333 540 402.666666667 540 352 c 2
 540 0 l 1
 414 0 l 1
EndSplineSet
Validated: 5
EndChar

StartChar: dotlessi
Encoding: 305 305 189
Width: 256
GlyphClass: 2
Flags: HW
AnchorPoint: "Anchor-3" 191 0 basechar 0
AnchorPoint: "Anchor-2" 128 0 basechar 0
AnchorPoint: "Anchor-0" 128 510 basechar 0
LayerCount: 3
Fore
SplineSet
65 0 m 1
 65 510 l 1
 191 510 l 1
 191 0 l 1
 65 0 l 1
EndSplineSet
Validated: 1
EndChar

StartChar: uni0237
Encoding: 567 567 199
Width: 256
GlyphClass: 2
Flags: HW
AnchorPoint: "Anchor-2" 128 -165 basechar 0
AnchorPoint: "Anchor-0" 128 510 basechar 0
LayerCount: 3
Fore
SplineSet
27 -167 m 4
 27 -167 27 -167 -31 -167 c 5
 -31 -70 l 5
 -12 -70 -12 -70 8 -70 c 4
 27.3333333333 -70 41.6666666667 -66.5 51 -59.5 c 132
 60.3333333333 -52.5 65 -39.6666666667 65 -21 c 6
 65 510 l 1
 191 510 l 1
 191 -24 l 6
 191 -71.3333333333 177.666666667 -107 151 -131 c 132
 124.333333333 -155 83 -167 27 -167 c 4
EndSplineSet
EndChar

StartChar: k
Encoding: 107 107 200
Width: 569
GlyphClass: 2
Flags: HW
AnchorPoint: "Anchor-2" 309 0 basechar 0
AnchorPoint: "Anchor-0" 274 740 basechar 0
LayerCount: 3
Fore
SplineSet
65 0 m 1
 65 726 l 1
 191 726 l 1
 191 0 l 1
 65 0 l 1
415 0 m 1
 191 265 l 1
 408 510 l 1
 558 510 l 1
 307 242 l 1
 313 289 l 1
 568 0 l 1
 415 0 l 1
EndSplineSet
Validated: 5
Substitution2: "'ss04' Style Set 4 in Latin lookup 25 subtable" k.ss04
Substitution2: "'aalt' Access All Alternates in Latin lookup 0 subtable" k.ss04
EndChar

StartChar: l
Encoding: 108 108 202
Width: 256
GlyphClass: 2
Flags: HW
AnchorPoint: "Anchor-2" 128 0 basechar 0
AnchorPoint: "Anchor-1" 247 720 basechar 0
AnchorPoint: "Anchor-0" 128 720 basechar 0
LayerCount: 3
Fore
SplineSet
65 0 m 1
 65 720 l 1
 191 720 l 1
 191 0 l 1
 65 0 l 1
EndSplineSet
Validated: 1
EndChar

StartChar: lslash
Encoding: 322 322 206
Width: 289
GlyphClass: 2
Flags: HW
AnchorPoint: "Anchor-2" 145 0 basechar 0
AnchorPoint: "Anchor-1" 263 720 basechar 0
AnchorPoint: "Anchor-0" 145 720 basechar 0
LayerCount: 3
Fore
SplineSet
149 335 m 1
 7 276 l 1
 7 363 l 1
 149 421 l 1
 149 335 l 1
149 429 m 1
 282 485 l 1
 282 399 l 1
 149 343 l 1
 149 429 l 1
82 0 m 1
 82 720 l 1
 207 720 l 1
 207 0 l 1
 82 0 l 1
EndSplineSet
Validated: 5
EndChar

StartChar: m
Encoding: 109 109 207
Width: 919
Flags: HW
LayerCount: 3
Fore
SplineSet
65 0 m 1
 65 404 l 6
 65 444 63.6666666667 479.333333333 61 510 c 1
 183 510 l 1
 187 392 l 1
 191 392 l 1
 191 0 l 1
 65 0 l 1
400 0 m 1
 400 332 l 2
 400 361.333333333 392.833333333 382.833333333 378.5 396.5 c 128
 364.166666667 410.166666667 343.666666667 417 317 417 c 0
 293.666666667 417 272.333333333 411.5 253 400.5 c 128
 233.666666667 389.5 218.5 374.166666667 207.5 354.5 c 128
 196.5 334.833333333 191 311.666666667 191 285 c 1
 178 393 l 1
 194.666666667 431 218.833333333 461.666666667 250.5 485 c 128
 282.166666667 508.333333333 319.333333333 520 362 520 c 0
 412.666666667 520 452.5 505.5 481.5 476.5 c 128
 510.5 447.5 525 409.666666667 525 363 c 2
 525 0 l 1
 400 0 l 1
734 0 m 1
 734 332 l 2
 734 361.333333333 726.833333333 382.833333333 712.5 396.5 c 128
 698.166666667 410.166666667 677.666666667 417 651 417 c 0
 627.666666667 417 606.333333333 411.5 587 400.5 c 128
 567.666666667 389.5 552.5 374.166666667 541.5 354.5 c 128
 530.5 334.833333333 525 311.666666667 525 285 c 1
 503 394 l 1
 519.666666667 431.333333333 544.666666667 461.666666667 578 485 c 128
 611.333333333 508.333333333 650 520 694 520 c 0
 745.333333333 520 785.666666667 505.166666667 815 475.5 c 128
 844.333333333 445.833333333 859 406.333333333 859 357 c 2
 859 0 l 1
 734 0 l 1
EndSplineSet
Validated: 5
EndChar

StartChar: n
Encoding: 110 110 208
Width: 599
GlyphClass: 2
Flags: HW
AnchorPoint: "Anchor-2" 310 0 basechar 0
AnchorPoint: "Anchor-0" 323 510 basechar 0
LayerCount: 3
Fore
SplineSet
65 0 m 1
 65 413 l 2
 65 445.666666667 63.6666666667 478 61 510 c 1
 183 510 l 1
 187 392 l 1
 191 392 l 1
 191 0 l 1
 65 0 l 1
414 0 m 1
 414 326 l 2
 414 356.666666667 406.333333333 379.5 391 394.5 c 128
 375.666666667 409.5 353 417 323 417 c 0
 297.666666667 417 275 411.166666667 255 399.5 c 128
 235 387.833333333 219.333333333 371.833333333 208 351.5 c 128
 196.666666667 331.166666667 191 307.333333333 191 280 c 1
 178 392 l 1
 194.666666667 429.333333333 219.333333333 460 252 484 c 128
 284.666666667 508 323.666666667 520 369 520 c 0
 423 520 465 504.666666667 495 474 c 128
 525 443.333333333 540 402.666666667 540 352 c 2
 540 0 l 1
 414 0 l 1
EndSplineSet
Validated: 5
EndChar

StartChar: eng
Encoding: 331 331 213
Width: 599
Flags: HW
LayerCount: 3
Fore
SplineSet
376 -215 m 0
 364 -215 353.5 -214.166666667 344.5 -212.5 c 128
 335.5 -210.833333333 326.666666667 -209 318 -207 c 1
 318 -110 l 1
 323.333333333 -111.333333333 329.166666667 -112.666666667 335.5 -114 c 128
 341.833333333 -115.333333333 349 -116 357 -116 c 0
 376.333333333 -116 390.666666667 -111.5 400 -102.5 c 128
 409.333333333 -93.5 414 -79.6666666667 414 -61 c 2
 414 326 l 2
 414 356.666666667 406.333333333 379.5 391 394.5 c 128
 375.666666667 409.5 353 417 323 417 c 0
 297.666666667 417 275 411.166666667 255 399.5 c 128
 235 387.833333333 219.333333333 371.833333333 208 351.5 c 128
 196.666666667 331.166666667 191 307.333333333 191 280 c 1
 178 398 l 1
 194.666666667 435.333333333 219.333333333 465 252 487 c 128
 284.666666667 509 323.666666667 520 369 520 c 0
 423 520 465 504.666666667 495 474 c 128
 525 443.333333333 540 402.666666667 540 352 c 2
 540 -64 l 2
 540 -111.333333333 526.666666667 -148.333333333 500 -175 c 128
 473.333333333 -201.666666667 432 -215 376 -215 c 0
65 0 m 1
 65 510 l 1
 187 510 l 1
 187 392 l 1
 191 392 l 1
 191 0 l 1
 65 0 l 1
EndSplineSet
Validated: 5
EndChar

StartChar: o
Encoding: 111 111 214
Width: 585
GlyphClass: 2
Flags: HW
AnchorPoint: "Anchor-3" 424 20 basechar 0
AnchorPoint: "Anchor-2" 293 0 basechar 0
AnchorPoint: "Anchor-1" 565 510 basechar 0
AnchorPoint: "Anchor-0" 293 510 basechar 0
LayerCount: 3
Fore
SplineSet
293 -10 m 0
 239.666666667 -10 193 1.33333333333 153 24 c 128
 113 46.6666666667 82.6666666667 78.1666666667 62 118.5 c 128
 41.3333333333 158.833333333 31 205 31 257 c 256
 31 309 41.5 354.666666667 62.5 394 c 128
 83.5 433.333333333 113.833333333 464.166666667 153.5 486.5 c 128
 193.166666667 508.833333333 239.666666667 520 293 520 c 256
 346.333333333 520 392.833333333 508.833333333 432.5 486.5 c 128
 472.166666667 464.166666667 502.666666667 433.333333333 524 394 c 128
 545.333333333 354.666666667 556 309 556 257 c 256
 556 205 545.333333333 158.833333333 524 118.5 c 128
 502.666666667 78.1666666667 472 46.6666666667 432 24 c 128
 392 1.33333333333 345.666666667 -10 293 -10 c 0
295.799804688 91 m 4
 319.933268229 91 341.246744792 97.6666666667 359.740234375 111 c 4
 378.580078125 124.333333333 392.686523437 143.5 402.059570312 168.5 c 132
 411.353190104 193.5 416.106770833 223.333333333 416.3203125 258 c 4
 416.106770833 308.666666667 405.066731771 348.166666667 383.200195312 376.5 c 4
 361.066731771 404.833333333 331.933268229 419 295.799804688 419 c 260
 259.933268229 419 230.493489583 404.833333333 207.48046875 376.5 c 132
 184.493489583 348.166666667 173.146809896 308.666666667 173.440429688 258 c 4
 173.146809896 223.333333333 178.053385417 193.5 188.16015625 168.5 c 4
 198.053385417 143.5 212.313476563 124.333333333 230.940429688 111 c 132
 249.646809896 97.6666666667 271.266601563 91 295.799804688 91 c 4
EndSplineSet
Substitution2: "Single Substitution lookup 17 subtable" ordmasculine
Substitution2: "'aalt' Access All Alternates in Latin lookup 0 subtable" ordmasculine
EndChar

StartChar: oslash
Encoding: 248 248 221
Width: 585
Flags: HW
LayerCount: 3
Fore
SplineSet
293 -10 m 0
 239.666666667 -10 193 1.33333333333 153 24 c 128
 113 46.6666666667 82 78.1666666667 60 118.5 c 128
 38 158.833333333 27 205 27 257 c 256
 27 309 38.1666666667 354.666666667 60.5 394 c 128
 82.8333333333 433.333333333 113.833333333 464.166666667 153.5 486.5 c 128
 193.166666667 508.833333333 239.666666667 520 293 520 c 256
 346.333333333 520 392.833333333 508.833333333 432.5 486.5 c 128
 472.166666667 464.166666667 503.166666667 433.333333333 525.5 394 c 128
 547.833333333 354.666666667 559 309 559 257 c 256
 559 205 547.833333333 158.833333333 525.5 118.5 c 128
 503.166666667 78.1666666667 472 46.6666666667 432 24 c 128
 392 1.33333333333 345.666666667 -10 293 -10 c 0
293 87 m 0
 320.333333333 87 344.333333333 93.8333333333 365 107.5 c 128
 385.666666667 121.166666667 402 140.833333333 414 166.5 c 128
 426 192.166666667 432 222.666666667 432 258 c 0
 432 310 419.166666667 350.5 393.5 379.5 c 128
 367.833333333 408.5 334.333333333 423 293 423 c 0
 251 423 217.166666667 408.5 191.5 379.5 c 128
 165.833333333 350.5 153 310 153 258 c 0
 153 222.666666667 159 192.166666667 171 166.5 c 128
 183 140.833333333 199.333333333 121.166666667 220 107.5 c 128
 240.666666667 93.8333333333 265 87 293 87 c 0
89 -13 m 1
 29 45 l 1
 496 523 l 1
 556 465 l 1
 89 -13 l 1
EndSplineSet
Validated: 5
EndChar

StartChar: oe
Encoding: 339 339 223
Width: 925
Flags: HW
LayerCount: 3
Fore
SplineSet
283 -10 m 0
 233 -10 188.666666667 1.33333333333 150 24 c 128
 111.333333333 46.6666666667 81.1666666667 78.1666666667 59.5 118.5 c 128
 37.8333333333 158.833333333 27 205 27 257 c 256
 27 309 38 354.666666667 60 394 c 128
 82 433.333333333 112.166666667 464.166666667 150.5 486.5 c 128
 188.833333333 508.833333333 233 520 283 520 c 256
 333 520 376.333333333 508.833333333 413 486.5 c 128
 449.666666667 464.166666667 478 433.333333333 498 394 c 128
 518 354.666666667 528 309 528 257 c 256
 528 205 518 158.833333333 498 118.5 c 128
 478 78.1666666667 449.5 46.6666666667 412.5 24 c 128
 375.5 1.33333333333 332.333333333 -10 283 -10 c 0
283 91 m 0
 307.666666667 91 329.333333333 97.6666666667 348 111 c 128
 366.666666667 124.333333333 381.333333333 143.5 392 168.5 c 128
 402.666666667 193.5 408 223.333333333 408 258 c 0
 408 292 402.666666667 321 392 345 c 128
 381.333333333 369 366.666666667 387.333333333 348 400 c 128
 329.333333333 412.666666667 307.666666667 419 283 419 c 256
 258.333333333 419 236.666666667 412.666666667 218 400 c 128
 199.333333333 387.333333333 184.5 369 173.5 345 c 128
 162.5 321 157 292 157 258 c 0
 157 223.333333333 162.5 193.5 173.5 168.5 c 128
 184.5 143.5 199.5 124.333333333 218.5 111 c 128
 237.5 97.6666666667 259 91 283 91 c 0
666 -10 m 0
 616.666666667 -10 573.166666667 1.33333333333 535.5 24 c 128
 497.833333333 46.6666666667 468.666666667 77.8333333333 448 117.5 c 128
 427.333333333 157.166666667 417 203.333333333 417 256 c 256
 417 308.666666667 427.333333333 354.833333333 448 394.5 c 128
 468.666666667 434.166666667 497.666666667 465 535 487 c 128
 572.333333333 509 615.333333333 520 664 520 c 0
 710.666666667 520 751.5 509.5 786.5 488.5 c 128
 821.5 467.5 848.833333333 438.166666667 868.5 400.5 c 128
 888.166666667 362.833333333 898 318.333333333 898 267 c 0
 898 257.666666667 897.666666667 249 897 241 c 128
 896.333333333 233 895.666666667 225.333333333 895 218 c 1
 491 218 l 1
 491 305 l 1
 800 305 l 1
 776 280 l 1
 776 328.666666667 765.833333333 365.166666667 745.5 389.5 c 128
 725.166666667 413.833333333 698.333333333 426 665 426 c 0
 639.666666667 426 617.333333333 419.5 598 406.5 c 128
 578.666666667 393.5 563.833333333 374.166666667 553.5 348.5 c 128
 543.166666667 322.833333333 538 291.333333333 538 254 c 0
 538 217.333333333 543.166666667 186.333333333 553.5 161 c 128
 563.833333333 135.666666667 578.666666667 116.5 598 103.5 c 128
 617.333333333 90.5 640.333333333 84 667 84 c 0
 688.333333333 84 708 89.1666666667 726 99.5 c 128
 744 109.833333333 757 126 765 148 c 1
 885 148 l 1
 869 99.3333333333 842 60.8333333333 804 32.5 c 128
 766 4.16666666667 720 -10 666 -10 c 0
EndSplineSet
Validated: 5
EndChar

StartChar: p
Encoding: 112 112 224
Width: 608
Flags: HW
LayerCount: 3
Fore
SplineSet
351 16 m 0
 304.333333333 16 266 28 236 52 c 128
 206 76 187.333333333 108 180 148 c 1
 191 146 l 1
 189 -158.5 l 1
 63 -158.5 l 1
 65 406 l 1
 60 510 l 1
 182 510 l 1
 187 396 l 1
 178 395 l 1
 186.666666667 432.333333333 207.333333333 462.5 240 485.5 c 128
 272.666666667 508.5 312.333333333 520 359 520 c 0
 403.666666667 520 442.333333333 509.166666667 475 487.5 c 128
 507.666666667 465.833333333 532.5 435.833333333 549.5 397.5 c 128
 566.5 359.166666667 575 317.5 575 272.5 c 128
 575 227.5 566.166666667 184.5 548.5 143.5 c 128
 530.833333333 102.5 505 71 471 49 c 128
 437 27 397 16 351 16 c 0
319 119 m 0
 402.333333333 119 444 165.666666667 444 259 c 256
 444 364.333333333 402 417 318 417 c 256
 278.666666667 417 247.166666667 403.333333333 223.5 376 c 128
 199.833333333 348.666666667 188 313.5 188 270.5 c 132
 188 227.5 199.833333333 191.5 223.5 162.5 c 128
 247.166666667 133.5 279 119 319 119 c 0
EndSplineSet
EndChar

StartChar: thorn
Encoding: 254 254 225
Width: 608
Flags: HW
LayerCount: 3
Fore
SplineSet
351 -10 m 0
 304.333333333 -10 266 1.33333333333 236 24 c 128
 206 46.6666666667 187.333333333 78 180 118 c 1
 191 120 l 1
 191 -205 l 1
 65 -205 l 1
 65 720 l 1
 191 720 l 1
 191 396 l 1
 178 399 l 1
 186.666666667 436.333333333 207.333333333 465.833333333 240 487.5 c 128
 272.666666667 509.166666667 312.333333333 520 359 520 c 0
 403.666666667 520 442.333333333 509.166666667 475 487.5 c 128
 507.666666667 465.833333333 533 435.333333333 551 396 c 128
 569 356.666666667 578 310.333333333 578 257 c 0
 578 203 568.666666667 156 550 116 c 128
 531.333333333 76 505 45 471 23 c 128
 437 1 397 -10 351 -10 c 0
319 93 m 0
 359 93 390.5 107.166666667 413.5 135.5 c 128
 436.5 163.833333333 448 204 448 256 c 256
 448 308 436.333333333 347.833333333 413 375.5 c 128
 389.666666667 403.166666667 358 417 318 417 c 256
 278 417 246.333333333 402.833333333 223 374.5 c 128
 199.666666667 346.166666667 188 306.333333333 188 255 c 0
 188 203 199.666666667 163 223 135 c 128
 246.333333333 107 278.333333333 93 319 93 c 0
EndSplineSet
Validated: 5
EndChar

StartChar: q
Encoding: 113 113 226
Width: 608
Flags: HW
LayerCount: 3
Fore
SplineSet
417 -158.5 m 1
 417 139 l 1
 431 140 l 1
 422.333333333 103.333333333 401.666666667 73.3333333333 369 50 c 128
 336.333333333 26.6666666667 297.666666667 15 253 15 c 0
 207.666666667 15 168.333333333 25.8333333333 135 47.5 c 128
 101.666666667 69.1666666667 76.3333333333 99.6666666667 59 139 c 128
 41.6666666667 178.333333333 33 219.333333333 33 262 c 128
 33 304.666666667 41.8333333333 346 59.5 386 c 128
 77.1666666667 426 103.166666667 458.333333333 137.5 483 c 128
 171.833333333 507.666666667 211.666666667 520 257 520 c 0
 304.333333333 520 343.166666667 508 373.5 484 c 128
 403.833333333 460 422.666666667 428 430 388 c 1
 421 390 l 1
 426 510 l 1
 548 510 l 1
 543 398 l 2
 542.333333333 383.333333333 542.333333333 197.833333333 543 -158.5 c 1
 417 -158.5 l 1
290 118 m 4
 379.561904762 118 422.895238095 168.666666667 420 270 c 0
 416.929072049 371.340622372 373.262405383 420.840622372 289 418.5 c 0
 206.333333333 416.203703704 165 366.370370371 165 269 c 260
 165 168.333333333 206.666666667 118 290 118 c 4
EndSplineSet
EndChar

StartChar: r
Encoding: 114 114 227
Width: 383
GlyphClass: 2
Flags: HW
AnchorPoint: "Anchor-2" 126 0 basechar 0
AnchorPoint: "Anchor-0" 212 510 basechar 0
LayerCount: 3
Fore
SplineSet
65 0 m 1
 65 510 l 1
 187 510 l 1
 187 387 l 1
 191 387 l 1
 191 0 l 1
 65 0 l 1
191 269 m 1
 178 382 l 5
 190 425.333333333 209.833333333 459.166666667 237.5 483.5 c 128
 265.166666667 507.833333333 298.666666667 520 338 520 c 0
 351.333333333 520 361 518.666666667 367 516 c 1
 367 398 l 1
 363.666666667 398.666666667 359.166666667 399.166666667 353.5 399.5 c 128
 347.833333333 399.833333333 340.666666667 400 332 400 c 0
 284.666666667 400 249.333333333 389.5 226 368.5 c 128
 202.666666667 347.5 191 314.333333333 191 269 c 1
EndSplineSet
Validated: 5
EndChar

StartChar: s
Encoding: 115 115 231
Width: 482
GlyphClass: 2
Flags: HW
AnchorPoint: "Anchor-2" 253 0 basechar 0
AnchorPoint: "Anchor-0" 242 510 basechar 0
LayerCount: 3
Fore
SplineSet
255 -10 m 0
 186.333333333 -10 131.666666667 4.83333333333 91 34.5 c 128
 50.3333333333 64.1666666667 28 105.333333333 24 158 c 1
 137 158 l 1
 140.333333333 132 152.166666667 112.166666667 172.5 98.5 c 128
 192.833333333 84.8333333333 220.666666667 78 256 78 c 0
 287.333333333 78 310.833333333 83.1666666667 326.5 93.5 c 128
 342.166666667 103.833333333 350 118.666666667 350 138 c 0
 350 152 345.333333333 163.666666667 336 173 c 128
 326.666666667 182.333333333 309.333333333 190 284 196 c 2
 204 216 l 2
 150 229.333333333 110.166666667 248.5 84.5 273.5 c 128
 58.8333333333 298.5 46 330.333333333 46 369 c 0
 46 415.666666667 63.6666666667 452.5 99 479.5 c 128
 134.333333333 506.5 183 520 245 520 c 256
 307 520 356.5 506.5 393.5 479.5 c 128
 430.5 452.5 451 415.333333333 455 368 c 1
 342 368 l 1
 338.666666667 388.666666667 328.666666667 404.5 312 415.5 c 128
 295.333333333 426.5 272.333333333 432 243 432 c 0
 215.666666667 432 194.833333333 427.333333333 180.5 418 c 128
 166.166666667 408.666666667 159 395.666666667 159 379 c 0
 159 365.666666667 164.5 354.333333333 175.5 345 c 128
 186.5 335.666666667 205 327.666666667 231 321 c 2
 317 299 l 2
 365 287.666666667 401.333333333 268.166666667 426 240.5 c 128
 450.666666667 212.833333333 463 180 463 142 c 0
 463 94 444.833333333 56.6666666667 408.5 30 c 128
 372.166666667 3.33333333333 321 -10 255 -10 c 0
EndSplineSet
Validated: 1
EndChar

StartChar: germandbls
Encoding: 223 223 236
Width: 618
Flags: HW
LayerCount: 3
Fore
SplineSet
342 -10 m 0
 324.666666667 -10 309.166666667 -8.83333333333 295.5 -6.5 c 128
 281.833333333 -4.16666666667 270.666666667 -1 262 3 c 1
 262 100 l 1
 270.666666667 97.3333333333 280.166666667 95.1666666667 290.5 93.5 c 128
 300.833333333 91.8333333333 312 91 324 91 c 0
 369.333333333 91 402.666666667 101 424 121 c 128
 445.333333333 141 456 169.666666667 456 207 c 0
 456 243 444.166666667 272 420.5 294 c 128
 396.833333333 316 363.666666667 327 321 327 c 2
 272 327 l 1
 272 426 l 1
 313 426 l 2
 333 426 351 430 367 438 c 128
 383 446 395.666666667 457.5 405 472.5 c 128
 414.333333333 487.5 419 505 419 525 c 0
 419 557.666666667 409.333333333 583.5 390 602.5 c 128
 370.666666667 621.5 343.666666667 631 309 631 c 0
 271 631 241.833333333 619.333333333 221.5 596 c 128
 201.166666667 572.666666667 191 537.666666667 191 491 c 2
 191 0 l 1
 65 0 l 1
 65 488 l 2
 65 561.333333333 85.8333333333 620 127.5 664 c 128
 169.166666667 708 230.333333333 730 311 730 c 0
 359.666666667 730 401.666666667 721.833333333 437 705.5 c 128
 472.333333333 689.166666667 499.833333333 666.5 519.5 637.5 c 128
 539.166666667 608.5 549 575 549 537 c 0
 549 502.333333333 541.166666667 472.5 525.5 447.5 c 128
 509.833333333 422.5 488.333333333 403.333333333 461 390 c 128
 433.666666667 376.666666667 403 370 369 370 c 1
 371 391 l 1
 417 391 456 382.5 488 365.5 c 128
 520 348.5 544.5 325.5 561.5 296.5 c 128
 578.5 267.5 587 234.333333333 587 197 c 0
 587 155 576.833333333 118.5 556.5 87.5 c 128
 536.166666667 56.5 507.666666667 32.5 471 15.5 c 128
 434.333333333 -1.5 391.333333333 -10 342 -10 c 0
EndSplineSet
Validated: 5
EndChar

StartChar: t
Encoding: 116 116 237
Width: 397
GlyphClass: 2
Flags: HW
AnchorPoint: "Anchor-2" 257 0 basechar 0
AnchorPoint: "Anchor-1" 313 786 basechar 0
AnchorPoint: "Anchor-0" 157 510 basechar 0
LayerCount: 3
Fore
SplineSet
290 0 m 0
 228.666666667 0 183.333333333 12.8333333333 154 38.5 c 128
 124.666666667 64.1666666667 110 106 110 164 c 2
 110 624 l 1
 236 672 l 1
 236 162 l 2
 236 138 242.5 122 255.5 114 c 0
 269.166666667 106 289.666666667 101.333333333 317 100 c 4
 317 100 317 100 371 100 c 1
 371 0 l 1
 330 0 330 0 290 0 c 0
15 412 m 1
 15 510 l 1
 371 510 l 1
 371 412 l 1
 15 412 l 1
EndSplineSet
Validated: 5
EndChar

StartChar: u
Encoding: 117 117 240
Width: 591
GlyphClass: 2
Flags: HW
AnchorPoint: "Anchor-3" 529 0 basechar 0
AnchorPoint: "Anchor-2" 296 0 basechar 0
AnchorPoint: "Anchor-1" 571 510 basechar 0
AnchorPoint: "Anchor-0" 296 510 basechar 0
LayerCount: 3
Fore
SplineSet
226 -10 m 0
 192 -10 162.5 -2.66666666667 137.5 12 c 128
 112.5 26.6666666667 93.1666666667 46.6666666667 79.5 72 c 128
 65.8333333333 97.3333333333 59 126 59 158 c 2
 59 510 l 1
 185 510 l 1
 185 184 l 2
 185 153.333333333 192.5 130.5 207.5 115.5 c 128
 222.5 100.5 244 93 272 93 c 0
 296.666666667 93 318.5 98.8333333333 337.5 110.5 c 128
 356.5 122.166666667 371.666666667 138.333333333 383 159 c 128
 394.333333333 179.666666667 400 203.333333333 400 230 c 1
 413 116 l 1
 396.333333333 79.3333333333 371.833333333 49.1666666667 339.5 25.5 c 128
 307.166666667 1.83333333333 269.333333333 -10 226 -10 c 0
408 0 m 1
 404 118 l 1
 400 118 l 1
 400 510 l 1
 525 510 l 1
 525 106 l 5
 525 110 526.333333333 74.6666666667 529 0 c 1
 408 0 l 1
EndSplineSet
Validated: 37
EndChar

StartChar: v
Encoding: 118 118 250
Width: 526
Flags: HW
LayerCount: 3
Fore
SplineSet
204 0 m 1
 6 510 l 1
 140 510 l 1
 297 44 l 1
 234 44 l 1
 390 510 l 1
 520 510 l 1
 322 0 l 1
 204 0 l 1
EndSplineSet
Validated: 5
EndChar

StartChar: w
Encoding: 119 119 251
Width: 787
GlyphClass: 2
Flags: HW
AnchorPoint: "Anchor-2" 394 0 basechar 0
AnchorPoint: "Anchor-0" 394 510 basechar 0
LayerCount: 3
Fore
SplineSet
169 0 m 1
 17 510 l 1
 158 510 l 1
 247 127 l 1
 228 127 l 1
 338 510 l 1
 453 510 l 1
 564 127 l 1
 545 127 l 5
 633 510 l 5
 770 510 l 1
 618 0 l 1
 500 0 l 1
 389 379 l 1
 399 379 l 1
 287 0 l 1
 169 0 l 1
EndSplineSet
EndChar

StartChar: x
Encoding: 120 120 256
Width: 572
Flags: HW
LayerCount: 3
Fore
SplineSet
406 0 m 1
 253 228 l 1
 47 510 l 1
 188 510 l 1
 325 303 l 1
 547 0 l 1
 406 0 l 1
263 307 m 1
 402 510 l 1
 539 510 l 1
 324 218 l 1
 263 307 l 1
312 212 m 1
 163 0 l 1
 26 0 l 1
 252 302 l 1
 312 212 l 1
EndSplineSet
Validated: 5
EndChar

StartChar: y
Encoding: 65573 -1 257
Width: 533
GlyphClass: 2
Flags: HW
AnchorPoint: "Anchor-2" 264 0 basechar 0
AnchorPoint: "Anchor-0" 266 510 basechar 0
LayerCount: 3
Fore
SplineSet
122 -207 m 0
 92 -207 92 -207 63 -207 c 1
 63 -104 l 1
 84 -104 84 -104 106 -104 c 0
 130 -104 146.833333333 -100.333333333 156.5 -93 c 0
 169.543551089 -82.9664991625 180.710217755 -65.2998324958 190 -40 c 2
 237 88 l 1
 266 124 l 1
 402 510 l 1
 527 510 l 1
 289 -90 l 2
 277.666666667 -118.666666667 264.166666667 -142.333333333 248.5 -161 c 128
 232.833333333 -179.666666667 214.666666667 -192 194 -198 c 128
 173.333333333 -204 149.333333333 -207 122 -207 c 0
215 4 m 1
 12 510 l 1
 146 510 l 1
 311 61 l 1
 215 4 l 1
EndSplineSet
Substitution2: "'calt' Contextual Alternates in Latin lookup 24 subtable" y.ss03
Substitution2: "'aalt' Access All Alternates in Latin lookup 0 subtable" y.ss03
EndChar

StartChar: z
Encoding: 122 122 262
Width: 502
GlyphClass: 2
Flags: HW
AnchorPoint: "Anchor-2" 251 0 basechar 0
AnchorPoint: "Anchor-0" 251 510 basechar 0
LayerCount: 3
Fore
SplineSet
46 0 m 1
 46 88 l 1
 330 457 l 1
 359 412 l 1
 55 412 l 1
 55 510 l 1
 456 510 l 1
 456 423 l 1
 174 57 l 1
 147 98 l 1
 461 98 l 1
 461 0 l 1
 46 0 l 1
EndSplineSet
Validated: 5
EndChar

StartChar: a.ss02
Encoding: 65601 -1 289
Width: 608
GlyphClass: 2
Flags: HW
AnchorPoint: "Anchor-3" 543 0 basechar 0
AnchorPoint: "Anchor-2" 304 0 basechar 0
AnchorPoint: "Anchor-0" 304 510 basechar 0
LayerCount: 3
Fore
SplineSet
253 -10 m 0
 207.666666667 -10 168.333333333 0.833333333333 135 22.5 c 128
 101.666666667 44.1666666667 75.8333333333 74.6666666667 57.5 114 c 128
 39.1666666667 153.333333333 30 199.666666667 30 253 c 0
 30 307 39.3333333333 354 58 394 c 128
 76.6666666667 434 103 465 137 487 c 128
 171 509 211 520 257 520 c 0
 303.666666667 520 342.333333333 508.666666667 373 486 c 128
 403.666666667 463.333333333 422.666666667 432 430 392 c 1
 421 390 l 1
 421 510 l 1
 543 510 l 1
 543 0 l 1
 421 0 l 1
 421 114 l 1
 431 111 l 1
 422.333333333 74.3333333333 401.666666667 45 369 23 c 128
 336.333333333 1 297.666666667 -10 253 -10 c 0
290 93 m 0
 330.666666667 93 362.5 107.166666667 385.5 135.5 c 128
 408.5 163.833333333 420 203.666666667 420 255 c 0
 420 307 408.333333333 347 385 375 c 128
 361.666666667 403 329.666666667 417 289 417 c 0
 249 417 217.5 402.833333333 194.5 374.5 c 128
 171.5 346.166666667 160 306 160 254 c 256
 160 202 171.666666667 162.166666667 195 134.5 c 128
 218.333333333 106.833333333 250 93 290 93 c 0
EndSplineSet
Validated: 5
EndChar

StartChar: y.ss03
Encoding: 121 121 300
Width: 526
GlyphClass: 2
Flags: HW
AnchorPoint: "Anchor-2" 264 0 basechar 0
AnchorPoint: "Anchor-0" 264 510 basechar 0
LayerCount: 3
Fore
SplineSet
118 -158.5 m 5
 226 91 l 1
 249 128 l 1
 388 510 l 1
 520 510 l 1
 244 -158.5 l 5
 118 -158.5 l 5
208 4 m 1
 6 510 l 1
 142 510 l 1
 309 53 l 1
 208 4 l 1
EndSplineSet
EndChar

StartChar: k.ss04
Encoding: 65612 -1 305
Width: 547
GlyphClass: 2
Flags: HW
AnchorPoint: "Anchor-2" 281 0 basechar 0
AnchorPoint: "Anchor-0" 274 740 basechar 0
LayerCount: 3
Fore
SplineSet
65 0 m 1
 65 720 l 1
 191 720 l 1
 191 0 l 1
 65 0 l 1
137 235 m 1
 379 510 l 1
 526 510 l 1
 315 276 l 1
 306 275 l 1
 172 131 l 1
 137 235 l 1
332 315 m 1
 540 0 l 1
 400 0 l 1
 228 270 l 1
 332 315 l 1
EndSplineSet
Validated: 5
EndChar

StartChar: f_f_i
Encoding: 65617 -1 310
Width: 932
GlyphClass: 3
LigCaretCntFixed: 1
Flags: HW
LayerCount: 3
Fore
SplineSet
104 0 m 1
 104 559 l 2
 104 615 119.333333333 657.5 150 686.5 c 128
 180.666666667 715.5 226 730 286 730 c 0
 300 730 311.5 729.333333333 320.5 728 c 128
 329.5 726.666666667 338.333333333 724.666666667 347 722 c 1
 347 618 l 1
 342.333333333 620 336.5 621.5 329.5 622.5 c 128
 322.5 623.5 314.333333333 624 305 624 c 0
 279 624 259.833333333 617.666666667 247.5 605 c 128
 235.166666667 592.333333333 229 574 229 550 c 2
 229 0 l 1
 104 0 l 1
424 0 m 1
 424 559 l 2
 424 615 439.333333333 657.5 470 686.5 c 128
 500.666666667 715.5 546 730 606 730 c 0
 619.333333333 730 630.666666667 729.333333333 640 728 c 128
 649.333333333 726.666666667 658.333333333 724.666666667 667 722 c 1
 667 618 l 1
 662.333333333 620 656.5 621.5 649.5 622.5 c 128
 642.5 623.5 634.333333333 624 625 624 c 0
 599 624 579.833333333 617.666666667 567.5 605 c 128
 555.166666667 592.333333333 549 574 549 550 c 2
 549 0 l 1
 424 0 l 1
744 0 m 1
 744 510 l 1
 869 510 l 1
 869 0 l 1
 744 0 l 1
15 412 m 1
 15 510 l 1
 783 510 l 1
 783 412 l 1
 15 412 l 1
742 587 m 1
 742 720 l 1
 872 720 l 1
 872 587 l 1
 742 587 l 1
EndSplineSet
Validated: 5
Substitution2: "'ss01' Style Set 1 in Latin lookup 22 subtable" f_f_i.ss01
Ligature2: "'liga' Standard Ligatures in Latin lookup 21 subtable" f f i
Substitution2: "'aalt' Access All Alternates in Latin lookup 0 subtable" f_f_i.ss01
LCarets2: 2 311 621
EndChar

StartChar: f_f_l
Encoding: 65618 -1 311
Width: 935
GlyphClass: 3
LigCaretCntFixed: 1
Flags: HW
LayerCount: 3
Fore
SplineSet
424 0 m 1
 424 549 l 2
 424 605 439.333333333 647.5 470 676.5 c 128
 500.666666667 705.5 546.666666667 720 608 720 c 2
 806 720 l 1
 806 614 l 1
 626 614 l 2
 600 614 580.666666667 607.666666667 568 595 c 128
 555.333333333 582.333333333 549 564 549 540 c 2
 549 0 l 1
 424 0 l 1
104 0 m 1
 104 549 l 2
 104 605 119.333333333 647.5 150 676.5 c 128
 180.666666667 705.5 226.333333333 720 287 720 c 0
 300.333333333 720 311.666666667 719.333333333 321 718 c 128
 330.333333333 716.666666667 339.333333333 714.666666667 348 712 c 1
 348 608 l 1
 343.333333333 610 337.5 611.5 330.5 612.5 c 128
 323.5 613.5 315.333333333 614 306 614 c 0
 280 614 260.666666667 607.666666667 248 595 c 128
 235.333333333 582.333333333 229 564 229 540 c 2
 229 0 l 1
 104 0 l 1
15 405 m 1
 15 510 l 1
 648 510 l 1
 648 405 l 1
 15 405 l 1
744 0 m 1
 744 720 l 1
 869 720 l 1
 869 0 l 1
 744 0 l 1
EndSplineSet
Validated: 5
Ligature2: "'liga' Standard Ligatures in Latin lookup 21 subtable" f f l
LCarets2: 2 312 623
EndChar

StartChar: f_i
Encoding: 65619 -1 312
Width: 599
GlyphClass: 3
LigCaretCntFixed: 1
Flags: HW
AnchorPoint: "Anchor-5" 150 0 baselig 0
AnchorPoint: "Anchor-4" 150 740 baselig 0
AnchorPoint: "Anchor-5" 449 0 baselig 1
AnchorPoint: "Anchor-4" 449 740 baselig 1
LayerCount: 3
Fore
SplineSet
104 0 m 1
 104 559 l 2
 104 615 119.333333333 657.5 150 686.5 c 128
 180.666666667 715.5 226 730 286 730 c 0
 299.333333333 730 310.666666667 729.333333333 320 728 c 128
 329.333333333 726.666666667 338.333333333 724.666666667 347 722 c 1
 347 618 l 1
 342.333333333 620 336.5 621.5 329.5 622.5 c 128
 322.5 623.5 314.333333333 624 305 624 c 0
 279 624 259.833333333 617.666666667 247.5 605 c 128
 235.166666667 592.333333333 229 574 229 550 c 2
 229 0 l 1
 104 0 l 1
424 0 m 1
 424 510 l 1
 549 510 l 1
 549 0 l 1
 424 0 l 1
15 405 m 1
 15 510 l 1
 463 510 l 1
 463 405 l 1
 15 405 l 1
422 587 m 1
 422 720 l 1
 552 720 l 1
 552 587 l 1
 422 587 l 1
EndSplineSet
Validated: 5
Substitution2: "'ss01' Style Set 1 in Latin lookup 22 subtable" f_i.ss01
Ligature2: "'liga' Standard Ligatures in Latin lookup 21 subtable" f i
Substitution2: "'aalt' Access All Alternates in Latin lookup 0 subtable" f_i.ss01
LCarets2: 1 300
EndChar

StartChar: f_l
Encoding: 65620 -1 313
Width: 615
GlyphClass: 3
LigCaretCntFixed: 1
Flags: HW
AnchorPoint: "Anchor-5" 154 0 baselig 0
AnchorPoint: "Anchor-4" 154 740 baselig 0
AnchorPoint: "Anchor-5" 461 0 baselig 1
AnchorPoint: "Anchor-4" 461 740 baselig 1
LayerCount: 3
Fore
SplineSet
104 0 m 1
 104 549 l 2
 104 605 119.333333333 647.5 150 676.5 c 128
 180.666666667 705.5 226.666666667 720 288 720 c 2
 486 720 l 1
 486 614 l 1
 306 614 l 2
 280 614 260.666666667 607.666666667 248 595 c 128
 235.333333333 582.333333333 229 564 229 540 c 2
 229 0 l 1
 104 0 l 1
15 405 m 1
 15 510 l 1
 328 510 l 1
 328 405 l 1
 15 405 l 1
424 0 m 1
 424 720 l 1
 549 720 l 1
 549 0 l 1
 424 0 l 1
EndSplineSet
Validated: 5
Ligature2: "'liga' Standard Ligatures in Latin lookup 21 subtable" f l
LCarets2: 1 308
EndChar

StartChar: w_w_w.liga
Encoding: 65621 -1 314
Width: 2093
GlyphClass: 3
LigCaretCntFixed: 1
Flags: HW
AnchorPoint: "Anchor-5" 349 0 baselig 0
AnchorPoint: "Anchor-4" 349 510 baselig 0
AnchorPoint: "Anchor-5" 1046 0 baselig 1
AnchorPoint: "Anchor-4" 1046 510 baselig 1
AnchorPoint: "Anchor-5" 1744 0 baselig 2
AnchorPoint: "Anchor-4" 1744 510 baselig 2
LayerCount: 3
Fore
SplineSet
169 0 m 1
 17 510 l 1
 148 510 l 1
 237 127 l 1
 228 127 l 1
 338 510 l 1
 453 510 l 1
 564 127 l 1
 555 127 l 1
 665 510 l 1
 779 510 l 1
 890 127 l 1
 881 127 l 1
 991 510 l 1
 1105 510 l 1
 1217 127 l 1
 1207 127 l 1
 1318 510 l 1
 1432 510 l 1
 1543 127 l 1
 1534 127 l 1
 1644 510 l 1
 1758 510 l 1
 1870 127 l 1
 1860 127 l 1
 1949 510 l 1
 2076 510 l 1
 1923 0 l 1
 1806 0 l 1
 1695 379 l 1
 1705 379 l 1
 1593 0 l 1
 1479 0 l 1
 1368 379 l 1
 1378 379 l 1
 1266 0 l 1
 1153 0 l 1
 1042 379 l 1
 1051 379 l 1
 940 0 l 1
 826 0 l 1
 715 379 l 1
 725 379 l 1
 613 0 l 1
 500 0 l 1
 389 379 l 1
 399 379 l 1
 287 0 l 1
 169 0 l 1
EndSplineSet
Validated: 5
Ligature2: "'liga' Standard Ligatures in Latin lookup 21 subtable" w w w
LCarets2: 2 698 1395
EndChar

StartChar: f_f_i.ss01
Encoding: 65622 -1 315
Width: 929
GlyphClass: 3
LigCaretCntFixed: 1
Flags: HW
AnchorPoint: "Anchor-5" 155 0 baselig 0
AnchorPoint: "Anchor-4" 155 740 baselig 0
AnchorPoint: "Anchor-5" 465 0 baselig 1
AnchorPoint: "Anchor-4" 465 740 baselig 1
AnchorPoint: "Anchor-5" 774 0 baselig 2
AnchorPoint: "Anchor-4" 774 740 baselig 2
LayerCount: 3
Fore
SplineSet
424 0 m 1
 424 559 l 2
 424 615 439.333333333 657.5 470 686.5 c 128
 500.666666667 715.5 546 730 606 730 c 0
 619.333333333 730 630.666666667 729.333333333 640 728 c 128
 649.333333333 726.666666667 658.333333333 724.666666667 667 722 c 1
 667 618 l 1
 662.333333333 620 656.5 621.5 649.5 622.5 c 128
 642.5 623.5 634.333333333 624 625 624 c 0
 599 624 579.833333333 617.666666667 567.5 605 c 128
 555.166666667 592.333333333 549 574 549 550 c 2
 549 0 l 1
 424 0 l 1
104 0 m 1
 104 559 l 2
 104 615 119.333333333 657.5 150 686.5 c 128
 180.666666667 715.5 226 730 286 730 c 0
 300 730 311.5 729.333333333 320.5 728 c 128
 329.5 726.666666667 338.333333333 724.666666667 347 722 c 1
 347 618 l 1
 342.333333333 620 336.5 621.5 329.5 622.5 c 128
 322.5 623.5 314.333333333 624 305 624 c 0
 279 624 259.833333333 617.666666667 247.5 605 c 128
 235.166666667 592.333333333 229 574 229 550 c 2
 229 0 l 1
 104 0 l 1
15 405 m 1
 15 510 l 1
 783 510 l 1
 783 405 l 1
 15 405 l 1
744 0 m 1
 744 510 l 1
 869 510 l 1
 869 0 l 1
 744 0 l 1
808 577 m 256
 787.333333333 577 769.5 584.5 754.5 599.5 c 128
 739.5 614.5 732 632.333333333 732 653 c 0
 732 675.666666667 739.5 694 754.5 708 c 128
 769.5 722 787.333333333 729 808 729 c 256
 828.666666667 729 846.166666667 722 860.5 708 c 128
 874.833333333 694 882 675.666666667 882 653 c 0
 882 632.333333333 874.833333333 614.5 860.5 599.5 c 128
 846.166666667 584.5 828.666666667 577 808 577 c 256
EndSplineSet
Validated: 5
LCarets2: 2 310 619
EndChar

StartChar: f_i.ss01
Encoding: 65623 -1 316
Width: 622
GlyphClass: 3
LigCaretCntFixed: 1
Flags: HW
AnchorPoint: "Anchor-5" 156 0 baselig 0
AnchorPoint: "Anchor-4" 156 740 baselig 0
AnchorPoint: "Anchor-5" 466 0 baselig 1
AnchorPoint: "Anchor-4" 466 740 baselig 1
LayerCount: 3
Fore
SplineSet
104 0 m 1
 104 559 l 2
 104 615 119.333333333 657.5 150 686.5 c 128
 180.666666667 715.5 226 730 286 730 c 0
 299.333333333 730 310.666666667 729.333333333 320 728 c 128
 329.333333333 726.666666667 338.333333333 724.666666667 347 722 c 1
 347 618 l 1
 342.333333333 620 336.5 621.5 329.5 622.5 c 128
 322.5 623.5 314.333333333 624 305 624 c 0
 279 624 259.833333333 617.666666667 247.5 605 c 128
 235.166666667 592.333333333 229 574 229 550 c 2
 229 0 l 1
 104 0 l 1
424 0 m 1
 424 510 l 1
 549 510 l 1
 549 0 l 1
 424 0 l 1
488 578 m 256
 467.333333333 578 449.5 585.333333333 434.5 600 c 128
 419.5 614.666666667 412 632.666666667 412 654 c 0
 412 676.666666667 419.5 695 434.5 709 c 128
 449.5 723 467.333333333 730 488 730 c 256
 508.666666667 730 526.166666667 723 540.5 709 c 128
 554.833333333 695 562 676.666666667 562 654 c 0
 562 632.666666667 554.833333333 614.666666667 540.5 600 c 128
 526.166666667 585.333333333 508.666666667 578 488 578 c 256
15 405 m 1
 15 510 l 1
 463 510 l 1
 463 405 l 1
 15 405 l 1
EndSplineSet
Validated: 5
LCarets2: 1 311
EndChar

StartChar: ordfeminine
Encoding: 170 170 317
Width: 367
Flags: HW
LayerCount: 3
Fore
SplineSet
232 418 m 1
 230 426 228.333333333 435 227 445 c 128
 225.666666667 455 225 466.666666667 225 480 c 1
 224 480 l 1
 224 621 l 2
 224 633 220.333333333 642.5 213 649.5 c 128
 205.666666667 656.5 194.666666667 660 180 660 c 0
 167.333333333 660 157.166666667 657.5 149.5 652.5 c 128
 141.833333333 647.5 136.666666667 641.333333333 134 634 c 1
 48 634 l 1
 51.3333333333 662 64.6666666667 685 88 703 c 128
 111.333333333 721 143 730 183 730 c 0
 225 730 257 720.333333333 279 701 c 128
 301 681.666666667 312 654 312 618 c 2
 312 480 l 2
 312 468 312.833333333 457.166666667 314.5 447.5 c 128
 316.166666667 437.833333333 318.333333333 428 321 418 c 1
 232 418 l 1
131 412 m 0
 103 412 80.8333333333 419.666666667 64.5 435 c 128
 48.1666666667 450.333333333 40 470.666666667 40 496 c 0
 40 524 49 547 67 565 c 128
 85 583 112 595 148 601 c 2
 235 616 l 1
 235 557 l 1
 164 543 l 2
 152 541 143 537.5 137 532.5 c 128
 131 527.5 128 520.333333333 128 511 c 256
 128 501.666666667 131.166666667 494.5 137.5 489.5 c 128
 143.833333333 484.5 152.333333333 482 163 482 c 0
 179.666666667 482 194 487 206 497 c 128
 218 507 224 518.333333333 224 531 c 1
 231 480 l 1
 223 456.666666667 210 439.5 192 428.5 c 128
 174 417.5 153.666666667 412 131 412 c 0
EndSplineSet
Validated: 5
EndChar

StartChar: ordmasculine
Encoding: 186 186 318
Width: 404
Flags: HW
LayerCount: 3
Fore
SplineSet
202 412 m 0
 169.333333333 412 140.5 418.833333333 115.5 432.5 c 128
 90.5 446.166666667 71 465 57 489 c 128
 43 513 36 540.666666667 36 572 c 0
 36 619.333333333 51.1666666667 657.5 81.5 686.5 c 128
 111.833333333 715.5 152 730 202 730 c 256
 252 730 292 715.5 322 686.5 c 128
 352 657.5 367 619.333333333 367 572 c 256
 367 524.666666667 351.833333333 486.166666667 321.5 456.5 c 128
 291.166666667 426.833333333 251.333333333 412 202 412 c 0
202 488 m 0
 223.333333333 488 240.666666667 495.833333333 254 511.5 c 128
 267.333333333 527.166666667 274 547.666666667 274 573 c 256
 274 598.333333333 267.333333333 618.166666667 254 632.5 c 128
 240.666666667 646.833333333 223.333333333 654 202 654 c 0
 181.333333333 654 164 646.666666667 150 632 c 128
 136 617.333333333 129 597.666666667 129 573 c 0
 129 547 136 526.333333333 150 511 c 128
 164 495.666666667 181.333333333 488 202 488 c 0
EndSplineSet
Validated: 1
EndChar

StartChar: zero
Encoding: 48 48 319
Width: 661
Flags: HW
LayerCount: 3
Fore
SplineSet
330 -10 m 0
 272.666666667 -10 221.833333333 5.66666666667 177.5 37 c 128
 133.166666667 68.3333333333 98.5 112 73.5 168 c 128
 48.5 224 36 289 36 363 c 256
 36 437 48.5 501.333333333 73.5 556 c 128
 98.5 610.666666667 133.166666667 653.333333333 177.5 684 c 128
 221.833333333 714.666666667 272.666666667 730 330 730 c 0
 388 730 439 714.666666667 483 684 c 128
 527 653.333333333 561.5 610.666666667 586.5 556 c 128
 611.5 501.333333333 624 437 624 363 c 0
 624 288.333333333 611.5 223.166666667 586.5 167.5 c 128
 561.5 111.833333333 527 68.3333333333 483 37 c 128
 439 5.66666666667 388 -10 330 -10 c 0
330 98 m 0
 364.666666667 98 393.666666667 109.333333333 417 132 c 128
 440.333333333 154.666666667 458 186 470 226 c 128
 482 266 488 312 488 364 c 0
 488 415.333333333 482.166666667 460.5 470.5 499.5 c 128
 458.833333333 538.5 441.333333333 568.666666667 418 590 c 128
 394.666666667 611.333333333 365.333333333 622 330 622 c 0
 295.333333333 622 266.333333333 611.166666667 243 589.5 c 128
 219.666666667 567.833333333 202.166666667 537.666666667 190.5 499 c 128
 178.833333333 460.333333333 173 415.333333333 173 364 c 0
 173 312 178.833333333 265.833333333 190.5 225.5 c 128
 202.166666667 185.166666667 219.833333333 153.833333333 243.5 131.5 c 128
 267.166666667 109.166666667 296 98 330 98 c 0
EndSplineSet
Validated: 1
Substitution2: "'tnum' Tabular Numbers in Latin lookup 19 subtable" zero.tf
Substitution2: "'aalt' Access All Alternates in Latin lookup 0 subtable" zero.tf
EndChar

StartChar: one
Encoding: 49 49 320
Width: 382
Flags: HW
LayerCount: 3
Fore
SplineSet
195 0 m 1
 195 608 l 1
 214 594 l 1
 214 594 214 594 17 465 c 1
 17 590 l 5
 217 720 l 1
 321 720 l 1
 321 0 l 1
 195 0 l 1
EndSplineSet
Validated: 5
Substitution2: "'tnum' Tabular Numbers in Latin lookup 19 subtable" one.tf
Substitution2: "'aalt' Access All Alternates in Latin lookup 0 subtable" one.tf
EndChar

StartChar: two
Encoding: 50 50 321
Width: 545
Flags: HW
LayerCount: 3
Fore
SplineSet
31 0 m 1
 31 101 l 1
 96.3333333333 157 151.166666667 205.666666667 195.5 247 c 128
 239.833333333 288.333333333 275.333333333 325 302 357 c 128
 328.666666667 389 347.666666667 418.166666667 359 444.5 c 128
 370.333333333 470.833333333 376 497 376 523 c 0
 376 556.333333333 367 582.166666667 349 600.5 c 128
 331 618.833333333 306 628 274 628 c 0
 240 628 212.5 617.833333333 191.5 597.5 c 128
 170.5 577.166666667 157.666666667 548.333333333 153 511 c 1
 23 511 l 1
 29.6666666667 578.333333333 55.8333333333 631.666666667 101.5 671 c 128
 147.166666667 710.333333333 206.666666667 730 280 730 c 0
 352.666666667 730 409.666666667 711 451 673 c 128
 492.333333333 635 513 582.666666667 513 516 c 0
 513 482.666666667 507.166666667 450 495.5 418 c 128
 483.833333333 386 464.833333333 352.5 438.5 317.5 c 128
 412.166666667 282.5 377 244.333333333 333 203 c 128
 289 161.666666667 234.666666667 114.666666667 170 62 c 1
 139 102 l 1
 525 102 l 1
 525 0 l 1
 31 0 l 1
EndSplineSet
Validated: 5
Substitution2: "'ss10' Style Set 10 in Latin lookup 31 subtable" two.ss10
Substitution2: "'tnum' Tabular Numbers in Latin lookup 19 subtable" two.tf
AlternateSubs2: "'aalt' Access All Alternates in Latin lookup 1 subtable" two.ss10 two.tf
EndChar

StartChar: three
Encoding: 51 51 322
Width: 567
Flags: HW
LayerCount: 3
Fore
SplineSet
291 -10 m 0
 241.666666667 -10 198 -1 160 17 c 128
 122 35 91.1666666667 61.6666666667 67.5 97 c 128
 43.8333333333 132.333333333 30 175 26 225 c 1
 155 225 l 1
 160.333333333 180.333333333 174.333333333 147 197 125 c 128
 219.666666667 103 249.666666667 92 287 92 c 0
 321 92 348.5 101.833333333 369.5 121.5 c 128
 390.5 141.166666667 401 169 401 205 c 256
 401 241 390.666666667 270.166666667 370 292.5 c 128
 349.333333333 314.833333333 317.333333333 326 274 326 c 2
 203 326 l 1
 203 426 l 1
 271 426 l 2
 309.666666667 426 338.333333333 435.5 357 454.5 c 128
 375.666666667 473.5 385 498.333333333 385 529 c 256
 385 559.666666667 376.666666667 583.833333333 360 601.5 c 128
 343.333333333 619.166666667 318 628 284 628 c 0
 253.333333333 628 226.833333333 618.5 204.5 599.5 c 128
 182.166666667 580.5 169 552 165 514 c 1
 35 514 l 1
 39.6666666667 558.666666667 52.8333333333 597 74.5 629 c 128
 96.1666666667 661 125.333333333 685.833333333 162 703.5 c 128
 198.666666667 721.166666667 241 730 289 730 c 0
 335.666666667 730 376.333333333 722.166666667 411 706.5 c 128
 445.666666667 690.833333333 472.666666667 668.833333333 492 640.5 c 128
 511.333333333 612.166666667 521 578.333333333 521 539 c 0
 521 505.666666667 513.333333333 476.166666667 498 450.5 c 128
 482.666666667 424.833333333 463.166666667 404.833333333 439.5 390.5 c 128
 415.833333333 376.166666667 390.333333333 369 363 369 c 1
 361 390 l 1
 397 390 428.333333333 381.5 455 364.5 c 128
 481.666666667 347.5 502.166666667 324.666666667 516.5 296 c 128
 530.833333333 267.333333333 538 235 538 199 c 0
 538 156.333333333 527.333333333 119.333333333 506 88 c 128
 484.666666667 56.6666666667 455.333333333 32.5 418 15.5 c 128
 380.666666667 -1.5 338.333333333 -10 291 -10 c 0
EndSplineSet
Validated: 5
Substitution2: "'tnum' Tabular Numbers in Latin lookup 19 subtable" three.tf
Substitution2: "'aalt' Access All Alternates in Latin lookup 0 subtable" three.tf
EndChar

StartChar: four
Encoding: 52 52 323
Width: 600
Flags: HW
LayerCount: 3
Fore
SplineSet
368 0 m 1
 368 189 l 1
 374 209 l 1
 374 617 l 1
 423 597 l 1
 137 203 l 1
 85 247 l 1
 577 247 l 1
 577 145 l 1
 26 145 l 1
 26 244 l 1
 372 720 l 1
 500 720 l 1
 500 0 l 1
 368 0 l 1
EndSplineSet
Validated: 5
Substitution2: "'tnum' Tabular Numbers in Latin lookup 19 subtable" four.tf
Substitution2: "'aalt' Access All Alternates in Latin lookup 0 subtable" four.tf
EndChar

StartChar: five
Encoding: 53 53 324
Width: 570
Flags: HW
LayerCount: 3
Fore
SplineSet
287 -10 m 0
 215 -10 156.666666667 9.16666666667 112 47.5 c 128
 67.3333333333 85.8333333333 40 138.333333333 30 205 c 1
 160 205 l 1
 166 169 180.333333333 141.166666667 203 121.5 c 128
 225.666666667 101.833333333 252.666666667 92 284 92 c 0
 318.666666667 92 346.833333333 103.666666667 368.5 127 c 128
 390.166666667 150.333333333 401 186.333333333 401 235 c 0
 401 283 390.5 319.333333333 369.5 344 c 128
 348.5 368.666666667 320.333333333 381 285 381 c 0
 262.333333333 381 242 376 224 366 c 128
 206 356 192.333333333 341.666666667 183 323 c 1
 67 323 l 1
 101 720 l 1
 496 720 l 1
 496 618 l 1
 153 618 l 1
 216 638 l 1
 198 391 l 1
 159 397 l 1
 173.666666667 421 193.5 440 218.5 454 c 128
 243.5 468 275 475 313 475 c 0
 357.666666667 475 396.833333333 465.166666667 430.5 445.5 c 128
 464.166666667 425.833333333 490.5 398.166666667 509.5 362.5 c 128
 528.5 326.833333333 538 284 538 234 c 0
 538 182.666666667 527.666666667 138.833333333 507 102.5 c 128
 486.333333333 66.1666666667 457.166666667 38.3333333333 419.5 19 c 128
 381.833333333 -0.333333333333 337.666666667 -10 287 -10 c 0
EndSplineSet
Validated: 5
Substitution2: "'tnum' Tabular Numbers in Latin lookup 19 subtable" five.tf
Substitution2: "'aalt' Access All Alternates in Latin lookup 0 subtable" five.tf
EndChar

StartChar: six
Encoding: 54 54 325
Width: 602
Flags: HW
LayerCount: 3
Fore
SplineSet
316 -10 m 0
 226.666666667 -10 157.666666667 20.6666666667 109 82 c 128
 60.3333333333 143.333333333 36 231.333333333 36 346 c 0
 36 426.666666667 47.6666666667 495.5 71 552.5 c 128
 94.3333333333 609.5 127.666666667 653.333333333 171 684 c 128
 214.333333333 714.666666667 265.333333333 730 324 730 c 0
 390 730 444 714.5 486 683.5 c 128
 528 652.5 553.333333333 605 562 541 c 5
 433 541 l 5
 429 574.333333333 417.166666667 597.166666667 397.5 609.5 c 128
 377.833333333 621.833333333 353 628 323 628 c 0
 272.333333333 628 234.333333333 605.666666667 209 561 c 128
 183.666666667 516.333333333 171 447.333333333 171 354 c 2
 171 292 l 1
 143 301 l 1
 150.333333333 332.333333333 163.333333333 359.5 182 382.5 c 128
 200.666666667 405.5 224.166666667 423.166666667 252.5 435.5 c 128
 280.833333333 447.833333333 312 454 346 454 c 0
 391.333333333 454 431 444.333333333 465 425 c 128
 499 405.666666667 525.5 378.833333333 544.5 344.5 c 128
 563.5 310.166666667 573 270 573 224 c 0
 573 176.666666667 562.333333333 135.5 541 100.5 c 128
 519.666666667 65.5 489.833333333 38.3333333333 451.5 19 c 128
 413.166666667 -0.333333333333 368 -10 316 -10 c 0
310 92 m 0
 346.666666667 92 376.833333333 103.333333333 400.5 126 c 128
 424.166666667 148.666666667 436 181 436 223 c 0
 436 265.666666667 424 298.333333333 400 321 c 128
 376 343.666666667 345.333333333 355 308 355 c 0
 270 355 238.333333333 344 213 322 c 128
 187.666666667 300 175 268.333333333 175 227 c 0
 175 199.666666667 181 175.833333333 193 155.5 c 128
 205 135.166666667 221.166666667 119.5 241.5 108.5 c 128
 261.833333333 97.5 284.666666667 92 310 92 c 0
EndSplineSet
Validated: 5
Substitution2: "'tnum' Tabular Numbers in Latin lookup 19 subtable" six.tf
Substitution2: "'aalt' Access All Alternates in Latin lookup 0 subtable" six.tf
EndChar

StartChar: seven
Encoding: 55 55 326
Width: 548
Flags: HW
LayerCount: 3
Fore
SplineSet
150 0 m 1
 150 0 150 0 406 641 c 5
 416 610 l 1
 83 610 l 1
 83 720 l 1
 528 720 l 1
 528 627 l 1
 290 0 l 1
 150 0 l 1
EndSplineSet
Validated: 5
Substitution2: "'tnum' Tabular Numbers in Latin lookup 19 subtable" seven.tf
Substitution2: "'aalt' Access All Alternates in Latin lookup 0 subtable" seven.tf
EndChar

StartChar: eight
Encoding: 56 56 327
Width: 586
Flags: HW
LayerCount: 3
Fore
SplineSet
293 -10 m 0
 241 -10 195.5 -1 156.5 17 c 128
 117.5 35 87.1666666667 59.8333333333 65.5 91.5 c 128
 43.8333333333 123.166666667 33 159.666666667 33 201 c 0
 33 237 40.8333333333 269.333333333 56.5 298 c 128
 72.1666666667 326.666666667 93.6666666667 349.166666667 121 365.5 c 128
 148.333333333 381.833333333 179.666666667 390 215 390 c 1
 226 369 l 1
 190 369 159 375.833333333 133 389.5 c 128
 107 403.166666667 87 422.666666667 73 448 c 128
 59 473.333333333 52 502.333333333 52 535 c 0
 52 573.666666667 62 607.666666667 82 637 c 128
 102 666.333333333 130 689.166666667 166 705.5 c 128
 202 721.833333333 244.333333333 730 293 730 c 256
 341.666666667 730 384 721.833333333 420 705.5 c 128
 456 689.166666667 484 666.333333333 504 637 c 128
 524 607.666666667 534 573.666666667 534 535 c 0
 534 502.333333333 527 473.5 513 448.5 c 128
 499 423.5 479 404 453 390 c 128
 427 376 395.666666667 369 359 369 c 1
 371 390 l 1
 406.333333333 390 437.666666667 381.833333333 465 365.5 c 128
 492.333333333 349.166666667 513.833333333 326.666666667 529.5 298 c 128
 545.166666667 269.333333333 553 236.666666667 553 200 c 0
 553 158.666666667 542.166666667 122.166666667 520.5 90.5 c 128
 498.833333333 58.8333333333 468.666666667 34.1666666667 430 16.5 c 128
 391.333333333 -1.16666666667 345.666666667 -10 293 -10 c 0
293 92 m 0
 331.666666667 92 361.833333333 102.5 383.5 123.5 c 128
 405.166666667 144.5 416 173.666666667 416 211 c 0
 416 247.666666667 404.833333333 276.333333333 382.5 297 c 128
 360.166666667 317.666666667 330.333333333 328 293 328 c 0
 255 328 224.833333333 317.666666667 202.5 297 c 128
 180.166666667 276.333333333 169 247.666666667 169 211 c 0
 169 173.666666667 180.166666667 144.5 202.5 123.5 c 128
 224.833333333 102.5 255 92 293 92 c 0
293 423 m 0
 325 423 350.666666667 432.166666667 370 450.5 c 128
 389.333333333 468.833333333 399 493.666666667 399 525 c 0
 399 557 389.166666667 582.166666667 369.5 600.5 c 128
 349.833333333 618.833333333 324 628 292 628 c 0
 260.666666667 628 235.333333333 618.833333333 216 600.5 c 128
 196.666666667 582.166666667 187 557 187 525 c 0
 187 493.666666667 196.833333333 468.833333333 216.5 450.5 c 128
 236.166666667 432.166666667 261.666666667 423 293 423 c 0
EndSplineSet
Validated: 5
Substitution2: "'tnum' Tabular Numbers in Latin lookup 19 subtable" eight.tf
Substitution2: "'aalt' Access All Alternates in Latin lookup 0 subtable" eight.tf
EndChar

StartChar: nine
Encoding: 57 57 328
Width: 606
Flags: HW
LayerCount: 3
Fore
SplineSet
285 -10 m 0
 237.666666667 -10 196.666666667 -1 162 17 c 128
 127.333333333 35 99.8333333333 57 79.5 83 c 128
 59.1666666667 109 46.3333333333 145 41 191 c 1
 170 191 l 1
 174.666666667 149.666666667 187 122.833333333 207 110.5 c 128
 227 98.1666666667 254.333333333 92 289 92 c 0
 313.666666667 92 334.666666667 97.1666666667 352 107.5 c 128
 369.333333333 117.833333333 383.5 133.833333333 394.5 155.5 c 128
 405.5 177.166666667 413.5 205.333333333 418.5 240 c 128
 423.5 274.666666667 426 316.666666667 426 366 c 2
 426 428 l 1
 460 427 l 1
 453.333333333 395.666666667 440.5 368.5 421.5 345.5 c 128
 402.5 322.5 379 304.833333333 351 292.5 c 128
 323 280.166666667 291.333333333 274 256 274 c 0
 211.333333333 274 172.166666667 283.5 138.5 302.5 c 128
 104.833333333 321.5 78.3333333333 348 59 382 c 128
 39.6666666667 416 30 455 30 499 c 0
 30 545.666666667 40.8333333333 586.166666667 62.5 620.5 c 128
 84.1666666667 654.833333333 114.333333333 681.666666667 153 701 c 128
 191.666666667 720.333333333 236.333333333 730 287 730 c 0
 377.666666667 730 447 699.166666667 495 637.5 c 128
 543 575.833333333 567 486 567 368 c 0
 567 288 556 219.666666667 534 163 c 128
 512 106.333333333 480 63.3333333333 438 34 c 128
 396 4.66666666667 345 -10 285 -10 c 0
296 373 m 0
 334.666666667 373 365 384 387 406 c 128
 409 428 420 457.666666667 420 495 c 0
 420 520.333333333 415 543.166666667 405 563.5 c 128
 395 583.833333333 380.666666667 599.666666667 362 611 c 128
 343.333333333 622.333333333 320.666666667 628 294 628 c 0
 256 628 226.166666667 616.166666667 204.5 592.5 c 128
 182.833333333 568.833333333 172 538 172 500 c 0
 172 462.666666667 182.833333333 432.166666667 204.5 408.5 c 128
 226.166666667 384.833333333 256.666666667 373 296 373 c 0
EndSplineSet
Validated: 5
Substitution2: "'tnum' Tabular Numbers in Latin lookup 19 subtable" nine.tf
Substitution2: "'aalt' Access All Alternates in Latin lookup 0 subtable" nine.tf
EndChar

StartChar: two.ss10
Encoding: 65624 -1 329
Width: 545
Flags: HW
LayerCount: 3
Fore
SplineSet
31 0 m 1
 31 76 l 2
 31 118.666666667 39.1666666667 155.5 55.5 186.5 c 128
 71.8333333333 217.5 93.1666666667 244.5 119.5 267.5 c 128
 145.833333333 290.5 173.833333333 311.666666667 203.5 331 c 128
 233.166666667 350.333333333 261 369.333333333 287 388 c 128
 313 406.666666667 334.333333333 427 351 449 c 128
 367.666666667 471 376 496.333333333 376 525 c 0
 376 558.333333333 366.666666667 583.833333333 348 601.5 c 128
 329.333333333 619.166666667 305 628 275 628 c 0
 242.333333333 628 215 617.833333333 193 597.5 c 128
 171 577.166666667 157.666666667 548.333333333 153 511 c 1
 23 511 l 1
 29.6666666667 578.333333333 55.8333333333 631.666666667 101.5 671 c 128
 147.166666667 710.333333333 206.333333333 730 279 730 c 0
 350.333333333 730 407.166666667 711.5 449.5 674.5 c 128
 491.833333333 637.5 513 585.333333333 513 518 c 0
 513 482.666666667 506 451.333333333 492 424 c 128
 478 396.666666667 459.833333333 372.333333333 437.5 351 c 128
 415.166666667 329.666666667 390.833333333 310 364.5 292 c 128
 338.166666667 274 312 256.833333333 286 240.5 c 128
 260 224.166666667 236.666666667 207.166666667 216 189.5 c 128
 195.333333333 171.833333333 179.5 152.833333333 168.5 132.5 c 128
 157.5 112.166666667 153.666666667 89 157 63 c 1
 139 102 l 1
 525 102 l 1
 525 0 l 1
 31 0 l 1
EndSplineSet
Validated: 37
EndChar

StartChar: zero.tf
Encoding: 65625 -1 330
Width: 592
Flags: HW
LayerCount: 3
Fore
SplineSet
296 -10 m 0
 242 -10 194.333333333 5.83333333333 153 37.5 c 128
 111.666666667 69.1666666667 79.1666666667 112.833333333 55.5 168.5 c 128
 31.8333333333 224.166666667 20 289 20 363 c 256
 20 437 31.8333333333 501.333333333 55.5 556 c 128
 79.1666666667 610.666666667 111.833333333 653.333333333 153.5 684 c 128
 195.166666667 714.666666667 242.666666667 730 296 730 c 0
 350 730 397.666666667 714.666666667 439 684 c 128
 480.333333333 653.333333333 512.833333333 610.666666667 536.5 556 c 128
 560.166666667 501.333333333 572 437 572 363 c 256
 572 289 560 224 536 168 c 128
 512 112 479.333333333 68.3333333333 438 37 c 128
 396.666666667 5.66666666667 349.333333333 -10 296 -10 c 0
296 98 m 256
 326 98 351 109.333333333 371 132 c 128
 391 154.666666667 406 186.166666667 416 226.5 c 128
 426 266.833333333 431 312.666666667 431 364 c 256
 431 415.333333333 426 460.333333333 416 499 c 128
 406 537.666666667 391.166666667 567.833333333 371.5 589.5 c 128
 351.833333333 611.166666667 326.666666667 622 296 622 c 256
 265.333333333 622 240 611.166666667 220 589.5 c 128
 200 567.833333333 185 537.666666667 175 499 c 128
 165 460.333333333 160 415.333333333 160 364 c 0
 160 312 165 265.833333333 175 225.5 c 128
 185 185.166666667 200.166666667 153.833333333 220.5 131.5 c 128
 240.833333333 109.166666667 266 98 296 98 c 256
EndSplineSet
Validated: 1
Substitution2: "'pnum' Proportional Numbers in Latin lookup 18 subtable" zero
Substitution2: "'aalt' Access All Alternates in Latin lookup 0 subtable" zero
EndChar

StartChar: one.tf
Encoding: 65626 -1 331
Width: 592
Flags: HW
LayerCount: 3
Fore
SplineSet
278 30 m 1
 278 608 l 1
 295 594 l 1
 285 573.333333333 271.5 554.333333333 254.5 537 c 128
 237.5 519.666666667 217.5 504.666666667 194.5 492 c 128
 171.5 479.333333333 146 470.333333333 118 465 c 1
 118 590 l 1
 142 594.666666667 166 603.5 190 616.5 c 128
 214 629.5 235.666666667 645.166666667 255 663.5 c 128
 274.333333333 681.833333333 288.666666667 700.666666667 298 720 c 1
 408 720 l 1
 408 30 l 1
 278 30 l 1
111 0 m 1
 111 102 l 1
 547 102 l 1
 547 0 l 1
 111 0 l 1
EndSplineSet
Validated: 5
Substitution2: "'pnum' Proportional Numbers in Latin lookup 18 subtable" one
Substitution2: "'aalt' Access All Alternates in Latin lookup 0 subtable" one
EndChar

StartChar: two.tf
Encoding: 65627 -1 332
Width: 592
Flags: HW
LayerCount: 3
Fore
SplineSet
66 0 m 1
 66 101 l 1
 128 157 179.166666667 205.833333333 219.5 247.5 c 128
 259.833333333 289.166666667 291.666666667 326.5 315 359.5 c 128
 338.333333333 392.5 354.666666667 422.666666667 364 450 c 128
 373.333333333 477.333333333 378 503.666666667 378 529 c 0
 378 561 371.166666667 585.5 357.5 602.5 c 128
 343.833333333 619.5 323 628 295 628 c 0
 265 628 241.5 617.833333333 224.5 597.5 c 128
 207.5 577.166666667 197 548.333333333 193 511 c 1
 59 511 l 1
 65 578.333333333 89.5 631.666666667 132.5 671 c 128
 175.5 710.333333333 231.666666667 730 301 730 c 0
 369 730 422.333333333 711 461 673 c 128
 499.666666667 635 519 582.666666667 519 516 c 0
 519 482.666666667 513.5 450 502.5 418 c 128
 491.5 386 473.666666667 352.5 449 317.5 c 128
 424.333333333 282.5 391.333333333 244.333333333 350 203 c 128
 308.666666667 161.666666667 257.333333333 114.666666667 196 62 c 1
 168 102 l 1
 532 102 l 1
 532 0 l 1
 66 0 l 1
EndSplineSet
Validated: 5
Substitution2: "'ss10' Style Set 10 in Latin lookup 31 subtable" two.tf.ss10
Substitution2: "'pnum' Proportional Numbers in Latin lookup 18 subtable" two
AlternateSubs2: "'aalt' Access All Alternates in Latin lookup 1 subtable" two two.tf.ss10
EndChar

StartChar: three.tf
Encoding: 65628 -1 333
Width: 592
Flags: HW
LayerCount: 3
Fore
SplineSet
303 -10 m 0
 257 -10 216 -1 180 17 c 128
 144 35 115.166666667 61.6666666667 93.5 97 c 128
 71.8333333333 132.333333333 59 175 55 225 c 1
 188 225 l 1
 192.666666667 182.333333333 204 149.5 222 126.5 c 128
 240 103.5 265.333333333 92 298 92 c 0
 325.333333333 92 348.166666667 101.833333333 366.5 121.5 c 128
 384.833333333 141.166666667 394 169 394 205 c 256
 394 241 385.166666667 270.166666667 367.5 292.5 c 128
 349.833333333 314.833333333 320.666666667 326 280 326 c 2
 220 326 l 1
 220 426 l 1
 277 426 l 2
 312.333333333 426 338.166666667 435.5 354.5 454.5 c 128
 370.833333333 473.5 379 498.333333333 379 529 c 0
 379 559 372.5 583 359.5 601 c 128
 346.5 619 325.333333333 628 296 628 c 0
 270.666666667 628 248.666666667 618.5 230 599.5 c 128
 211.333333333 580.5 200 552 196 514 c 1
 63 514 l 1
 67.6666666667 558.666666667 80.1666666667 597 100.5 629 c 128
 120.833333333 661 148 685.833333333 182 703.5 c 128
 216 721.166666667 255.666666667 730 301 730 c 0
 345.666666667 730 384.333333333 722.166666667 417 706.5 c 128
 449.666666667 690.833333333 475 668.833333333 493 640.5 c 128
 511 612.166666667 520 578.333333333 520 539 c 0
 520 505.666666667 513 476.166666667 499 450.5 c 128
 485 424.833333333 467.333333333 404.833333333 446 390.5 c 128
 424.666666667 376.166666667 402.333333333 369 379 369 c 1
 378 390 l 1
 411.333333333 390 439.5 381.5 462.5 364.5 c 128
 485.5 347.5 503.333333333 324.666666667 516 296 c 128
 528.666666667 267.333333333 535 235 535 199 c 0
 535 156.333333333 525 119.333333333 505 88 c 128
 485 56.6666666667 457.5 32.5 422.5 15.5 c 128
 387.5 -1.5 347.666666667 -10 303 -10 c 0
EndSplineSet
Validated: 5
Substitution2: "'pnum' Proportional Numbers in Latin lookup 18 subtable" three
Substitution2: "'aalt' Access All Alternates in Latin lookup 0 subtable" three
EndChar

StartChar: four.tf
Encoding: 65629 -1 334
Width: 592
Flags: HW
LayerCount: 3
Fore
SplineSet
352 0 m 1
 352 189 l 1
 358 209 l 1
 358 617 l 1
 410 597 l 1
 150 203 l 1
 92 247 l 1
 554 247 l 1
 554 145 l 1
 38 145 l 1
 38 244 l 1
 355 720 l 1
 487 720 l 1
 487 0 l 1
 352 0 l 1
EndSplineSet
Validated: 5
Substitution2: "'pnum' Proportional Numbers in Latin lookup 18 subtable" four
Substitution2: "'aalt' Access All Alternates in Latin lookup 0 subtable" four
EndChar

StartChar: five.tf
Encoding: 65630 -1 335
Width: 592
Flags: HW
LayerCount: 3
Fore
SplineSet
298 -10 m 0
 231.333333333 -10 176.833333333 9.16666666667 134.5 47.5 c 128
 92.1666666667 85.8333333333 66.3333333333 138.333333333 57 205 c 1
 190 205 l 1
 194 169 206 141.166666667 226 121.5 c 128
 246 101.833333333 269 92 295 92 c 0
 323.666666667 92 347 103.666666667 365 127 c 128
 383 150.333333333 392 186.333333333 392 235 c 0
 392 283 383.5 319.333333333 366.5 344 c 128
 349.5 368.666666667 326.333333333 381 297 381 c 0
 279.666666667 381 263.333333333 376 248 366 c 128
 232.666666667 356 220.666666667 341.666666667 212 323 c 1
 91 323 l 1
 123 720 l 1
 494 720 l 1
 494 618 l 1
 172 618 l 1
 242 638 l 1
 226 391 l 1
 183 397 l 1
 198.333333333 421 217.333333333 440 240 454 c 128
 262.666666667 468 291 475 325 475 c 0
 366.333333333 475 402.666666667 465.166666667 434 445.5 c 128
 465.333333333 425.833333333 489.666666667 398.166666667 507 362.5 c 128
 524.333333333 326.833333333 533 284 533 234 c 0
 533 182.666666667 523.166666667 138.833333333 503.5 102.5 c 128
 483.833333333 66.1666666667 456.5 38.3333333333 421.5 19 c 128
 386.5 -0.333333333333 345.333333333 -10 298 -10 c 0
EndSplineSet
Validated: 5
Substitution2: "'pnum' Proportional Numbers in Latin lookup 18 subtable" five
Substitution2: "'aalt' Access All Alternates in Latin lookup 0 subtable" five
EndChar

StartChar: six.tf
Encoding: 65631 -1 336
Width: 592
Flags: HW
LayerCount: 3
Fore
SplineSet
309 -10 m 0
 225 -10 160.166666667 20.8333333333 114.5 82.5 c 128
 68.8333333333 144.166666667 46 232 46 346 c 0
 46 426 57 494.5 79 551.5 c 128
 101 608.5 132.333333333 652.5 173 683.5 c 128
 213.666666667 714.5 262 730 318 730 c 0
 380 730 430.833333333 711.833333333 470.5 675.5 c 128
 510.166666667 639.166666667 534.333333333 589 543 525 c 1
 410 525 l 1
 406.666666667 558.333333333 396.5 583.833333333 379.5 601.5 c 128
 362.5 619.166666667 341.666666667 628 317 628 c 0
 272.333333333 628 239.166666667 605.5 217.5 560.5 c 128
 195.833333333 515.5 185 446.666666667 185 354 c 2
 185 292 l 1
 157 301 l 1
 163.666666667 332.333333333 175.5 359.5 192.5 382.5 c 128
 209.5 405.5 230.666666667 423.166666667 256 435.5 c 128
 281.333333333 447.833333333 309.666666667 454 341 454 c 0
 383 454 419.833333333 444.333333333 451.5 425 c 128
 483.166666667 405.666666667 507.833333333 378.833333333 525.5 344.5 c 128
 543.166666667 310.166666667 552 270 552 224 c 0
 552 176.666666667 542 135.5 522 100.5 c 128
 502 65.5 473.833333333 38.3333333333 437.5 19 c 128
 401.166666667 -0.333333333333 358.333333333 -10 309 -10 c 0
301 92 m 0
 332.333333333 92 358.333333333 103.333333333 379 126 c 128
 399.666666667 148.666666667 410 181 410 223 c 0
 410 265.666666667 399.5 298.333333333 378.5 321 c 128
 357.5 343.666666667 331 355 299 355 c 256
 267 355 240 344 218 322 c 128
 196 300 185 268.333333333 185 227 c 0
 185 199.666666667 190.333333333 175.833333333 201 155.5 c 128
 211.666666667 135.166666667 225.833333333 119.5 243.5 108.5 c 128
 261.166666667 97.5 280.333333333 92 301 92 c 0
EndSplineSet
Validated: 5
Substitution2: "'pnum' Proportional Numbers in Latin lookup 18 subtable" six
Substitution2: "'aalt' Access All Alternates in Latin lookup 0 subtable" six
EndChar

StartChar: seven.tf
Encoding: 65632 -1 337
Width: 592
Flags: HW
LayerCount: 3
Fore
SplineSet
172 0 m 1
 181.333333333 114.666666667 206.5 225.5 247.5 332.5 c 128
 288.5 439.5 342 542.333333333 408 641 c 1
 414 618 l 1
 59 618 l 1
 59 720 l 1
 532 720 l 1
 532 627 l 1
 470.666666667 525 421.333333333 423 384 321 c 128
 346.666666667 219 324 112 316 0 c 1
 172 0 l 1
EndSplineSet
Validated: 5
Substitution2: "'pnum' Proportional Numbers in Latin lookup 18 subtable" seven
Substitution2: "'aalt' Access All Alternates in Latin lookup 0 subtable" seven
EndChar

StartChar: eight.tf
Encoding: 65633 -1 338
Width: 592
Flags: HW
LayerCount: 3
Fore
SplineSet
297 -10 m 256
 248.333333333 -10 205.5 -1 168.5 17 c 128
 131.5 35 102.666666667 59.8333333333 82 91.5 c 128
 61.3333333333 123.166666667 51 159.666666667 51 201 c 0
 51 237 58.1666666667 269.333333333 72.5 298 c 128
 86.8333333333 326.666666667 106.666666667 349.166666667 132 365.5 c 128
 157.333333333 381.833333333 186.666666667 390 220 390 c 1
 233 369 l 1
 198.333333333 369 168.666666667 375.833333333 144 389.5 c 128
 119.333333333 403.166666667 100.666666667 422.666666667 88 448 c 128
 75.3333333333 473.333333333 69 502.333333333 69 535 c 0
 69 573.666666667 78.3333333333 607.666666667 97 637 c 128
 115.666666667 666.333333333 142 689.166666667 176 705.5 c 128
 210 721.833333333 250 730 296 730 c 0
 342.666666667 730 382.833333333 721.833333333 416.5 705.5 c 128
 450.166666667 689.166666667 476.333333333 666.333333333 495 637 c 128
 513.666666667 607.666666667 523 573.666666667 523 535 c 0
 523 502.333333333 516.5 473.5 503.5 448.5 c 128
 490.5 423.5 471.833333333 404 447.5 390 c 128
 423.166666667 376 393.333333333 369 358 369 c 1
 372 390 l 1
 405.333333333 390 434.666666667 381.833333333 460 365.5 c 128
 485.333333333 349.166666667 505.166666667 326.666666667 519.5 298 c 128
 533.833333333 269.333333333 541 236.666666667 541 200 c 0
 541 158.666666667 530.833333333 122.166666667 510.5 90.5 c 128
 490.166666667 58.8333333333 461.666666667 34.1666666667 425 16.5 c 128
 388.333333333 -1.16666666667 345.666666667 -10 297 -10 c 256
296 92 m 0
 328 92 353.333333333 102.666666667 372 124 c 128
 390.666666667 145.333333333 400 174.333333333 400 211 c 256
 400 247.666666667 390.5 276.333333333 371.5 297 c 128
 352.5 317.666666667 327.333333333 328 296 328 c 256
 264.666666667 328 239.5 317.666666667 220.5 297 c 128
 201.5 276.333333333 192 247.666666667 192 211 c 0
 192 173.666666667 201.166666667 144.5 219.5 123.5 c 128
 237.833333333 102.5 263.333333333 92 296 92 c 0
296 423 m 0
 322 423 343 432.166666667 359 450.5 c 128
 375 468.833333333 383 493.666666667 383 525 c 0
 383 557 375 582.166666667 359 600.5 c 128
 343 618.833333333 321.666666667 628 295 628 c 0
 269.666666667 628 249 618.666666667 233 600 c 128
 217 581.333333333 209 556.333333333 209 525 c 0
 209 494.333333333 217.166666667 469.666666667 233.5 451 c 128
 249.833333333 432.333333333 270.666666667 423 296 423 c 0
EndSplineSet
Validated: 5
Substitution2: "'pnum' Proportional Numbers in Latin lookup 18 subtable" eight
Substitution2: "'aalt' Access All Alternates in Latin lookup 0 subtable" eight
EndChar

StartChar: nine.tf
Encoding: 65634 -1 339
Width: 592
Flags: HW
LayerCount: 3
Fore
SplineSet
278 -10 m 0
 233.333333333 -10 194.666666667 -1 162 17 c 128
 129.333333333 35 103.5 60.5 84.5 93.5 c 128
 65.5 126.5 53.6666666667 166 49 212 c 1
 181 212 l 1
 185 170 195.666666667 139.5 213 120.5 c 128
 230.333333333 101.5 253.666666667 92 283 92 c 0
 305 92 323.333333333 97.1666666667 338 107.5 c 128
 352.666666667 117.833333333 364.666666667 133.833333333 374 155.5 c 128
 383.333333333 177.166666667 389.833333333 205.5 393.5 240.5 c 128
 397.166666667 275.5 399 317.333333333 399 366 c 2
 399 428 l 1
 435 427 l 1
 428.333333333 395 416.333333333 367.5 399 344.5 c 128
 381.666666667 321.5 360.333333333 304 335 292 c 128
 309.666666667 280 281 274 249 274 c 0
 207.666666667 274 171.333333333 283.5 140 302.5 c 128
 108.666666667 321.5 84 348 66 382 c 128
 48 416 39 455 39 499 c 0
 39 545.666666667 49.1666666667 586.166666667 69.5 620.5 c 128
 89.8333333333 654.833333333 118.166666667 681.666666667 154.5 701 c 128
 190.833333333 720.333333333 233.333333333 730 282 730 c 0
 367.333333333 730 432.666666667 699.166666667 478 637.5 c 128
 523.333333333 575.833333333 546 486 546 368 c 0
 546 288 535.5 219.666666667 514.5 163 c 128
 493.5 106.333333333 463.166666667 63.3333333333 423.5 34 c 128
 383.833333333 4.66666666667 335.333333333 -10 278 -10 c 0
292 373 m 0
 326 373 351.833333333 384 369.5 406 c 128
 387.166666667 428 396 457.666666667 396 495 c 0
 396 533.666666667 387.166666667 565.5 369.5 590.5 c 128
 351.833333333 615.5 326 628 292 628 c 0
 258.666666667 628 232.666666667 616.166666667 214 592.5 c 128
 195.333333333 568.833333333 186 538 186 500 c 0
 186 462.666666667 195.333333333 432.166666667 214 408.5 c 128
 232.666666667 384.833333333 258.666666667 373 292 373 c 0
EndSplineSet
Validated: 5
Substitution2: "'pnum' Proportional Numbers in Latin lookup 18 subtable" nine
Substitution2: "'aalt' Access All Alternates in Latin lookup 0 subtable" nine
EndChar

StartChar: two.tf.ss10
Encoding: 65635 -1 340
Width: 592
Flags: HW
LayerCount: 3
Fore
SplineSet
67 0 m 1
 67 76 l 2
 67 118.666666667 74.5 155.5 89.5 186.5 c 128
 104.5 217.5 123.833333333 244.666666667 147.5 268 c 128
 171.166666667 291.333333333 196.166666667 312.666666667 222.5 332 c 128
 248.833333333 351.333333333 273.833333333 370.666666667 297.5 390 c 128
 321.166666667 409.333333333 340.5 430.333333333 355.5 453 c 128
 370.5 475.666666667 378 501.666666667 378 531 c 0
 378 561.666666667 370.833333333 585.5 356.5 602.5 c 128
 342.166666667 619.5 321.666666667 628 295 628 c 0
 267 628 243.833333333 618.5 225.5 599.5 c 128
 207.166666667 580.5 196.333333333 551 193 511 c 1
 59 511 l 1
 65.6666666667 578.333333333 90.1666666667 631.666666667 132.5 671 c 128
 174.833333333 710.333333333 230 730 298 730 c 256
 366 730 419.833333333 711.833333333 459.5 675.5 c 128
 499.166666667 639.166666667 519 589 519 525 c 0
 519 488.333333333 512.833333333 456 500.5 428 c 128
 488.166666667 400 471.666666667 375 451 353 c 128
 430.333333333 331 408 311 384 293 c 128
 360 275 336.333333333 257.666666667 313 241 c 128
 289.666666667 224.333333333 268.5 207.166666667 249.5 189.5 c 128
 230.5 171.833333333 216.166666667 152.833333333 206.5 132.5 c 128
 196.833333333 112.166666667 194 89 198 63 c 1
 180 102 l 1
 532 102 l 1
 532 0 l 1
 67 0 l 1
EndSplineSet
Validated: 37
EndChar

StartChar: hyphen_greater.liga
Encoding: 65636 -1 343
Width: 833
GlyphClass: 3
LigCaretCntFixed: 1
Flags: HW
LayerCount: 3
Fore
SplineSet
60 418 m 1
 695 418 l 1
 625 368 l 1
 291 702 l 1
 450 702 l 1
 790 360 l 1
 450 18 l 1
 291 18 l 1
 625 352 l 1
 695 302 l 1
 60 302 l 1
 60 418 l 1
EndSplineSet
Validated: 5
Ligature2: "'liga' Standard Ligatures in Latin lookup 21 subtable" hyphen greater
LCarets2: 1 417
EndChar

StartChar: period
Encoding: 46 46 344
Width: 271
Flags: HW
LayerCount: 3
Fore
SplineSet
64 0 m 1
 64 144 l 1
 208 144 l 1
 208 0 l 1
 64 0 l 1
EndSplineSet
Validated: 1
Substitution2: "'ss01' Style Set 1 in Latin lookup 22 subtable" period.ss01
Substitution2: "'aalt' Access All Alternates in Latin lookup 0 subtable" period.ss01
EndChar

StartChar: comma
Encoding: 44 44 345
Width: 271
Flags: HW
LayerCount: 3
Fore
SplineSet
133 -119 m 5
 36 -119 l 1
 96 128 l 1
 238 128 l 5
 133 -119 l 5
EndSplineSet
Validated: 1
Substitution2: "'ss01' Style Set 1 in Latin lookup 22 subtable" comma.ss01
Substitution2: "'aalt' Access All Alternates in Latin lookup 0 subtable" comma.ss01
EndChar

StartChar: exclam
Encoding: 33 33 349
Width: 291
Flags: HW
LayerCount: 3
Fore
SplineSet
95 251 m 1
 76 740 l 1
 215 740 l 1
 196 251 l 1
 95 251 l 1
74 0 m 1
 74 144 l 1
 218 144 l 1
 218 0 l 1
 74 0 l 1
EndSplineSet
Validated: 1
Substitution2: "'ss01' Style Set 1 in Latin lookup 22 subtable" exclam.ss01
Substitution2: "'case' Case-Sensitive Forms in Latin lookup 20 subtable" exclam.case
AlternateSubs2: "'aalt' Access All Alternates in Latin lookup 1 subtable" exclam.case exclam.ss01
EndChar

StartChar: exclamdown
Encoding: 161 161 350
Width: 291
Flags: HW
LayerCount: 3
Fore
SplineSet
76 -205 m 1
 95 259 l 1
 196 259 l 1
 215 -205 l 1
 76 -205 l 1
218 510 m 1
 218 366 l 1
 74 366 l 1
 74 510 l 1
 218 510 l 1
EndSplineSet
Validated: 1
Substitution2: "'ss01' Style Set 1 in Latin lookup 22 subtable" exclamdown.ss01
Substitution2: "'case' Case-Sensitive Forms in Latin lookup 20 subtable" exclamdown.case
AlternateSubs2: "'aalt' Access All Alternates in Latin lookup 1 subtable" exclamdown.case exclamdown.ss01
EndChar

StartChar: question
Encoding: 63 63 351
Width: 528
Flags: HW
LayerCount: 3
Fore
SplineSet
157 251 m 5
 157 285 161.333333333 313.5 170 336.5 c 132
 178.666666667 359.5 189.833333333 379 203.5 395 c 132
 217.166666667 411 231.5 425.166666667 246.5 437.5 c 132
 261.5 449.833333333 275.833333333 461.666666667 289.5 473 c 132
 303.166666667 484.333333333 314.333333333 496.833333333 323 510.5 c 132
 331.666666667 524.166666667 336 540.333333333 336 559 c 4
 336 587 326.166666667 608.333333333 306.5 623 c 132
 286.833333333 637.666666667 259.666666667 645 225 645 c 4
 171 645.666666667 124.666666667 635.333333333 86 614 c 5
 84 725 l 5
 122.666666667 742.333333333 170.333333333 750.666666667 227 750 c 4
 275 750 316.666666667 742.166666667 352 726.5 c 132
 387.333333333 710.833333333 415 688.666666667 435 660 c 132
 455 631.333333333 465 598 465 560 c 4
 465 531.333333333 460.5 507 451.5 487 c 132
 442.5 467 431 449.666666667 417 435 c 132
 403 420.333333333 387.833333333 407 371.5 395 c 132
 355.166666667 383 340 370.333333333 326 357 c 132
 312 343.666666667 300.5 328.666666667 291.5 312 c 132
 282.5 295.333333333 278 275 278 251 c 5
 157 251 l 5
146 0 m 5
 146 144 l 5
 290 144 l 5
 290 0 l 5
 146 0 l 5
EndSplineSet
Substitution2: "'ss01' Style Set 1 in Latin lookup 22 subtable" question.ss01
Substitution2: "'case' Case-Sensitive Forms in Latin lookup 20 subtable" question.case
AlternateSubs2: "'aalt' Access All Alternates in Latin lookup 1 subtable" question.case question.ss01
EndChar

StartChar: questiondown
Encoding: 191 191 352
Width: 566
Flags: HW
LayerCount: 3
Fore
SplineSet
333 330 m 5
 333 296 328.666666667 267.5 320 244.5 c 132
 311.333007813 221.5 300.166341146 202 286.5 186 c 132
 272.833007813 170 258.499674479 155.833333333 243.5 143.5 c 132
 228.631114047 131.274794225 214.297780714 119.441460892 200.5 108 c 132
 186.833007813 96.6669921875 175.666341146 84.1669921875 167 70.5 c 132
 158.333007813 56.8330078125 153.999674479 40.6663411459 154 22 c 4
 154 -6 163.833333333 -27.3333333333 183.5 -42 c 132
 203.166992187 -56.6669921875 230.333658854 -64.0003255208 265 -64 c 4
 319 -64.6669921875 365.333333333 -54.3336588541 404 -33 c 5
 406 -144 l 5
 367.333007813 -161.333007813 319.666341146 -169.666341146 263 -169 c 4
 215 -169 173.333333333 -161.166666667 138 -145.5 c 132
 102.666992187 -129.833007813 75.0003255208 -107.666341146 55 -79 c 132
 35 -50.3330078125 25 -16.9996744792 25 21 c 4
 25 49.6669921875 29.5 74.0003255208 38.5 94 c 132
 47.5 114 59 131.333333333 73 146 c 132
 87 160.666992187 102.166666667 174.000325521 118.5 186 c 132
 134.833007813 198 149.999674479 210.666666667 164 224 c 132
 178 237.333007813 189.5 252.333007813 198.5 269 c 132
 207.5 285.666992187 212 306.000325521 212 330 c 5
 333 330 l 5
344 581 m 5
 344 437 l 5
 200 437 l 5
 200 581 l 5
 344 581 l 5
EndSplineSet
Substitution2: "'ss01' Style Set 1 in Latin lookup 22 subtable" questiondown.ss01
Substitution2: "'case' Case-Sensitive Forms in Latin lookup 20 subtable" questiondown.case
AlternateSubs2: "'aalt' Access All Alternates in Latin lookup 1 subtable" questiondown.case questiondown.ss01
EndChar

StartChar: bullet
Encoding: 8226 8226 354
Width: 332
Flags: HW
LayerCount: 3
Fore
SplineSet
64 263 m 1
 64 468 l 1
 269 468 l 1
 269 263 l 1
 64 263 l 1
EndSplineSet
Validated: 1
Substitution2: "'ss01' Style Set 1 in Latin lookup 22 subtable" bullet.ss01
Substitution2: "'case' Case-Sensitive Forms in Latin lookup 20 subtable" bullet.case
AlternateSubs2: "'aalt' Access All Alternates in Latin lookup 1 subtable" bullet.case bullet.ss01
EndChar

StartChar: asterisk
Encoding: 42 42 355
Width: 427
Flags: HW
LayerCount: 3
Fore
SplineSet
160 417 m 1
 185 530 l 1
 97 452 l 1
 43 544 l 1
 156 579 l 1
 43 614 l 1
 97 706 l 1
 185 628 l 1
 160 740 l 1
 268 740 l 1
 243 628 l 1
 331 706 l 1
 385 614 l 1
 272 579 l 1
 385 544 l 1
 331 452 l 1
 243 530 l 1
 268 417 l 1
 160 417 l 1
EndSplineSet
Validated: 1
EndChar

StartChar: numbersign
Encoding: 35 35 356
Width: 706
Flags: HW
LayerCount: 3
Fore
SplineSet
126 0 m 1
 226 720 l 1
 335 720 l 1
 235 0 l 1
 126 0 l 1
371 0 m 1
 471 720 l 1
 580 720 l 1
 480 0 l 1
 371 0 l 1
59 532 m 1
 673 532 l 1
 673 429 l 1
 59 429 l 1
 59 532 l 1
34 301 m 1
 648 301 l 1
 648 198 l 1
 34 198 l 1
 34 301 l 1
EndSplineSet
Validated: 5
EndChar

StartChar: slash
Encoding: 47 47 357
Width: 432
Flags: HW
LayerCount: 3
Fore
SplineSet
37 -73 m 1
 286 763 l 1
 395 763 l 1
 146 -73 l 1
 37 -73 l 1
EndSplineSet
Validated: 1
EndChar

StartChar: backslash
Encoding: 92 92 358
Width: 432
Flags: HW
LayerCount: 3
Fore
SplineSet
37 763 m 1
 146 763 l 1
 395 -73 l 1
 286 -73 l 1
 37 763 l 1
EndSplineSet
Validated: 1
EndChar

StartChar: exclam.case
Encoding: 65639 -1 361
Width: 291
Flags: HW
LayerCount: 3
Fore
SplineSet
95 251 m 1
 76 720 l 1
 215 720 l 1
 196 251 l 1
 95 251 l 1
74 0 m 1
 74 144 l 1
 218 144 l 1
 218 0 l 1
 74 0 l 1
EndSplineSet
Validated: 1
EndChar

StartChar: exclamdown.case
Encoding: 65640 -1 362
Width: 291
Flags: HW
LayerCount: 3
Fore
SplineSet
76 0 m 1
 95 469 l 1
 196 469 l 1
 215 0 l 1
 76 0 l 1
218 720 m 1
 218 576 l 1
 74 576 l 1
 74 720 l 1
 218 720 l 1
EndSplineSet
Validated: 1
EndChar

StartChar: question.case
Encoding: 65641 -1 363
Width: 566
Flags: HW
LayerCount: 3
Fore
SplineSet
231 251 m 1
 231 283 235.333333333 310 244 332 c 128
 252.666666667 354 263.833333333 372.666666667 277.5 388 c 128
 291.166666667 403.333333333 305.5 417 320.5 429 c 128
 335.5 441 349.833333333 452.5 363.5 463.5 c 128
 377.166666667 474.5 388.333333333 486.833333333 397 500.5 c 128
 405.666666667 514.166666667 410 530.333333333 410 549 c 0
 410 571.666666667 400.5 590.5 381.5 605.5 c 128
 362.5 620.5 335 628 299 628 c 0
 259.666666667 628 227.5 618.166666667 202.5 598.5 c 128
 177.5 578.833333333 162.333333333 550.333333333 157 513 c 1
 33 513 l 1
 39 557 53.6666666667 595.333333333 77 628 c 128
 100.333333333 660.666666667 131.166666667 685.833333333 169.5 703.5 c 128
 207.833333333 721.166666667 251.666666667 730 301 730 c 0
 349.666666667 730 391.666666667 722.333333333 427 707 c 128
 462.333333333 691.666666667 489.833333333 670.333333333 509.5 643 c 128
 529.166666667 615.666666667 539 584.666666667 539 550 c 0
 539 521.333333333 534.5 497 525.5 477 c 128
 516.5 457 505 439.833333333 491 425.5 c 128
 477 411.166666667 461.833333333 398 445.5 386 c 128
 429.166666667 374 414 361.833333333 400 349.5 c 128
 386 337.166666667 374.5 323.333333333 365.5 308 c 128
 356.5 292.666666667 352 273.666666667 352 251 c 1
 231 251 l 1
220 0 m 1
 220 144 l 1
 364 144 l 1
 364 0 l 1
 220 0 l 1
EndSplineSet
Validated: 1
EndChar

StartChar: questiondown.case
Encoding: 65642 -1 364
Width: 566
Flags: HW
LayerCount: 3
Fore
SplineSet
265 -10 m 0
 218.333333333 -10 177.166666667 -2.5 141.5 12.5 c 128
 105.833333333 27.5 77.8333333333 48.8333333333 57.5 76.5 c 128
 37.1666666667 104.166666667 27 136.333333333 27 173 c 0
 27 202.333333333 31.5 227 40.5 247 c 128
 49.5 267 61 284.166666667 75 298.5 c 128
 89 312.833333333 104.166666667 325.833333333 120.5 337.5 c 128
 136.833333333 349.166666667 152 360.833333333 166 372.5 c 128
 180 384.166666667 191.5 397.833333333 200.5 413.5 c 128
 209.5 429.166666667 214 447.666666667 214 469 c 1
 335 469 l 1
 335 437 330.833333333 410.333333333 322.5 389 c 128
 314.166666667 367.666666667 303.166666667 349.666666667 289.5 335 c 128
 275.833333333 320.333333333 261.333333333 307.333333333 246 296 c 128
 230.666666667 284.666666667 216.166666667 273.666666667 202.5 263 c 128
 188.833333333 252.333333333 177.833333333 240.333333333 169.5 227 c 128
 161.166666667 213.666666667 157 197.333333333 157 178 c 0
 157 150.666666667 167.166666667 129.5 187.5 114.5 c 128
 207.833333333 99.5 236 92 272 92 c 0
 307.333333333 92 337.833333333 100.166666667 363.5 116.5 c 128
 389.166666667 132.833333333 404.333333333 157 409 189 c 1
 533 189 l 1
 527.666666667 147.666666667 513 112.166666667 489 82.5 c 128
 465 52.8333333333 433.833333333 30 395.5 14 c 128
 357.166666667 -2 313.666666667 -10 265 -10 c 0
346 720 m 1
 346 576 l 1
 203 576 l 1
 203 720 l 1
 346 720 l 1
EndSplineSet
Validated: 1
EndChar

StartChar: bullet.case
Encoding: 65643 -1 365
Width: 705
Flags: HW
LayerCount: 3
Fore
SplineSet
64 90 m 1
 64 667 l 1
 641 667 l 1
 641 90 l 1
 64 90 l 1
EndSplineSet
Validated: 1
Substitution2: "'ss01' Style Set 1 in Latin lookup 22 subtable" bullet.case.ss01
Substitution2: "'aalt' Access All Alternates in Latin lookup 0 subtable" bullet.case.ss01
EndChar

StartChar: period.ss01
Encoding: 65645 -1 367
Width: 271
Flags: HW
LayerCount: 3
Fore
SplineSet
136 -10 m 0
 113.333333333 -10 94.1666666667 -2.5 78.5 12.5 c 128
 62.8333333333 27.5 55 47 55 71 c 0
 55 94.3333333333 62.8333333333 113.5 78.5 128.5 c 128
 94.1666666667 143.5 113.333333333 151 136 151 c 0
 157.333333333 151 176 143.5 192 128.5 c 128
 208 113.5 216 94.3333333333 216 71 c 0
 216 46.3333333333 208 26.6666666667 192 12 c 128
 176 -2.66666666667 157.333333333 -10 136 -10 c 0
EndSplineSet
Validated: 1
EndChar

StartChar: comma.ss01
Encoding: 65646 -1 368
Width: 271
Flags: HW
LayerCount: 3
Fore
SplineSet
71 -159 m 1
 71 -97 l 1
 95 -88.3333333333 113.166666667 -75.5 125.5 -58.5 c 128
 137.833333333 -41.5 144 -18 144 12 c 1
 184 12 l 1
 178 6.66666666667 170.5 2.33333333333 161.5 -1 c 128
 152.5 -4.33333333333 144 -6 136 -6 c 0
 112.666666667 -6 93.3333333333 1.33333333333 78 16 c 128
 62.6666666667 30.6666666667 55 49.3333333333 55 72 c 0
 55 96 62.8333333333 115.166666667 78.5 129.5 c 128
 94.1666666667 143.833333333 112.333333333 151 133 151 c 0
 155.666666667 151 175.166666667 142.166666667 191.5 124.5 c 128
 207.833333333 106.833333333 216 78.3333333333 216 39 c 0
 216 -10.3333333333 203.166666667 -52.5 177.5 -87.5 c 128
 151.833333333 -122.5 116.333333333 -146.333333333 71 -159 c 1
EndSplineSet
Validated: 5
EndChar

StartChar: exclam.ss01
Encoding: 65650 -1 372
Width: 291
Flags: HW
LayerCount: 3
Fore
SplineSet
95 251 m 1
 76 740 l 1
 215 740 l 1
 196 251 l 1
 95 251 l 1
146 -10 m 0
 123.333333333 -10 104.166666667 -2.5 88.5 12.5 c 128
 72.8333333333 27.5 65 47 65 71 c 0
 65 94.3333333333 72.8333333333 113.5 88.5 128.5 c 128
 104.166666667 143.5 123.333333333 151 146 151 c 0
 167.333333333 151 186 143.5 202 128.5 c 128
 218 113.5 226 94.3333333333 226 71 c 0
 226 46.3333333333 218 26.6666666667 202 12 c 128
 186 -2.66666666667 167.333333333 -10 146 -10 c 0
EndSplineSet
Validated: 1
EndChar

StartChar: exclamdown.ss01
Encoding: 65651 -1 373
Width: 308
Flags: HW
LayerCount: 3
Fore
SplineSet
84 -205 m 1
 103 259 l 1
 204 259 l 1
 223 -205 l 1
 84 -205 l 1
153 520 m 0
 176.333333333 520 195.666666667 512.5 211 497.5 c 128
 226.333333333 482.5 234 463 234 439 c 0
 234 415.666666667 226.333333333 396.5 211 381.5 c 128
 195.666666667 366.5 176.333333333 359 153 359 c 0
 133 359 114.666666667 366.5 98 381.5 c 128
 81.3333333333 396.5 73 415.666666667 73 439 c 0
 73 463.666666667 81.3333333333 483.333333333 98 498 c 128
 114.666666667 512.666666667 133 520 153 520 c 0
EndSplineSet
Validated: 1
EndChar

StartChar: question.ss01
Encoding: 65652 -1 374
Width: 566
Flags: HW
LayerCount: 3
Fore
SplineSet
231 251 m 1
 231 285 235.333333333 313.5 244 336.5 c 128
 252.666666667 359.5 263.833333333 379 277.5 395 c 128
 291.166666667 411 305.5 425.166666667 320.5 437.5 c 128
 335.5 449.833333333 349.833333333 461.666666667 363.5 473 c 128
 377.166666667 484.333333333 388.333333333 496.833333333 397 510.5 c 128
 405.666666667 524.166666667 410 540.333333333 410 559 c 0
 410 587 400.166666667 608.833333333 380.5 624.5 c 128
 360.833333333 640.166666667 333.666666667 648 299 648 c 0
 259.666666667 648 227.5 638.166666667 202.5 618.5 c 128
 177.5 598.833333333 162.333333333 570.333333333 157 533 c 1
 33 533 l 1
 39 577 53.6666666667 615.333333333 77 648 c 128
 100.333333333 680.666666667 131.166666667 705.833333333 169.5 723.5 c 128
 207.833333333 741.166666667 251.666666667 750 301 750 c 0
 349 750 390.666666667 742.166666667 426 726.5 c 128
 461.333333333 710.833333333 489 688.666666667 509 660 c 128
 529 631.333333333 539 598 539 560 c 0
 539 531.333333333 534.5 507 525.5 487 c 128
 516.5 467 505 449.666666667 491 435 c 128
 477 420.333333333 461.833333333 407 445.5 395 c 128
 429.166666667 383 414 370.333333333 400 357 c 128
 386 343.666666667 374.5 328.666666667 365.5 312 c 128
 356.5 295.333333333 352 275 352 251 c 1
 231 251 l 1
292 -10 m 0
 269.333333333 -10 250.166666667 -2.66666666667 234.5 12 c 128
 218.833333333 26.6666666667 211 46.3333333333 211 71 c 0
 211 94.3333333333 218.833333333 113.5 234.5 128.5 c 128
 250.166666667 143.5 269.333333333 151 292 151 c 0
 313.333333333 151 332 143.5 348 128.5 c 128
 364 113.5 372 94.3333333333 372 71 c 0
 372 46.3333333333 364 26.6666666667 348 12 c 128
 332 -2.66666666667 313.333333333 -10 292 -10 c 0
EndSplineSet
Validated: 1
EndChar

StartChar: questiondown.ss01
Encoding: 65653 -1 375
Width: 566
Flags: HW
LayerCount: 3
Fore
SplineSet
265 -215 m 0
 218.333333333 -215 177.166666667 -207.5 141.5 -192.5 c 128
 105.833333333 -177.5 77.8333333333 -156.333333333 57.5 -129 c 128
 37.1666666667 -101.666666667 27 -70 27 -34 c 0
 27 -5.33333333333 31.5 18.8333333333 40.5 38.5 c 128
 49.5 58.1666666667 61 75.1666666667 75 89.5 c 128
 89 103.833333333 104.166666667 116.666666667 120.5 128 c 128
 136.833333333 139.333333333 152 151 166 163 c 128
 180 175 191.5 188.666666667 200.5 204 c 128
 209.5 219.333333333 214 237.666666667 214 259 c 1
 335 259 l 1
 335 227 330.833333333 200.333333333 322.5 179 c 128
 314.166666667 157.666666667 303.166666667 139.666666667 289.5 125 c 128
 275.833333333 110.333333333 261.333333333 97.3333333333 246 86 c 128
 230.666666667 74.6666666667 216.166666667 63.6666666667 202.5 53 c 128
 188.833333333 42.3333333333 177.833333333 30.3333333333 169.5 17 c 128
 161.166666667 3.66666666667 157 -12.6666666667 157 -32 c 0
 157 -56.6666666667 167.166666667 -76.3333333333 187.5 -91 c 128
 207.833333333 -105.666666667 236 -113 272 -113 c 0
 307.333333333 -113 337.833333333 -104.833333333 363.5 -88.5 c 128
 389.166666667 -72.1666666667 404.333333333 -48 409 -16 c 1
 533 -16 l 1
 527.666666667 -57.3333333333 513 -92.8333333333 489 -122.5 c 128
 465 -152.166666667 433.833333333 -175 395.5 -191 c 128
 357.166666667 -207 313.666666667 -215 265 -215 c 0
274 520 m 0
 296.666666667 520 315.833333333 512.666666667 331.5 498 c 128
 347.166666667 483.333333333 355 463.666666667 355 439 c 0
 355 415.666666667 347.166666667 396.5 331.5 381.5 c 128
 315.833333333 366.5 296.666666667 359 274 359 c 0
 253.333333333 359 234.833333333 366.5 218.5 381.5 c 128
 202.166666667 396.5 194 415.666666667 194 439 c 0
 194 463.666666667 202.166666667 483.333333333 218.5 498 c 128
 234.833333333 512.666666667 253.333333333 520 274 520 c 0
EndSplineSet
Validated: 1
EndChar

StartChar: bullet.ss01
Encoding: 65655 -1 377
Width: 357
Flags: HW
LayerCount: 3
Fore
SplineSet
179 249 m 0
 147 249 119.833333333 259.5 97.5 280.5 c 128
 75.1666666667 301.5 64 329.333333333 64 364 c 0
 64 396.666666667 75.1666666667 423.833333333 97.5 445.5 c 128
 119.833333333 467.166666667 147 478 179 478 c 0
 209 478 235.5 467.166666667 258.5 445.5 c 128
 281.5 423.833333333 293 396.666666667 293 364 c 0
 293 329.333333333 281.5 301.5 258.5 280.5 c 128
 235.5 259.5 209 249 179 249 c 0
EndSplineSet
Validated: 1
EndChar

StartChar: bullet.case.ss01
Encoding: 65657 -1 379
Width: 774
Flags: HW
LayerCount: 3
Fore
SplineSet
389 48 m 0
 297.666666667 48 220.666666667 77.6666666667 158 137 c 128
 95.3333333333 196.333333333 64 275 64 373 c 0
 64 465.666666667 95.3333333333 542.333333333 158 603 c 128
 220.666666667 663.666666667 297.666666667 694 389 694 c 0
 473 694 547.5 663.666666667 612.5 603 c 128
 677.5 542.333333333 710 465.666666667 710 373 c 0
 710 275 677.5 196.333333333 612.5 137 c 128
 547.5 77.6666666667 473 48 389 48 c 0
EndSplineSet
Validated: 1
EndChar

StartChar: hyphen
Encoding: 45 45 381
Width: 481
Flags: HW
LayerCount: 3
Fore
SplineSet
65 219 m 1
 65 325 l 1
 416 325 l 1
 416 219 l 1
 65 219 l 1
EndSplineSet
Validated: 1
Substitution2: "'case' Case-Sensitive Forms in Latin lookup 20 subtable" hyphen.case
Substitution2: "'aalt' Access All Alternates in Latin lookup 0 subtable" hyphen.case
EndChar

StartChar: endash
Encoding: 8211 8211 382
Width: 587
Flags: HW
LayerCount: 3
Fore
SplineSet
65 224 m 1
 65 320 l 1
 522 320 l 1
 522 224 l 1
 65 224 l 1
EndSplineSet
Validated: 1
Substitution2: "'case' Case-Sensitive Forms in Latin lookup 20 subtable" endash.case
Substitution2: "'aalt' Access All Alternates in Latin lookup 0 subtable" endash.case
EndChar

StartChar: emdash
Encoding: 8212 8212 383
Width: 879
Flags: HW
LayerCount: 3
Fore
SplineSet
65 224 m 1
 65 320 l 1
 813 320 l 1
 813 224 l 1
 65 224 l 1
EndSplineSet
Validated: 1
Substitution2: "'case' Case-Sensitive Forms in Latin lookup 20 subtable" emdash.case
Substitution2: "'aalt' Access All Alternates in Latin lookup 0 subtable" emdash.case
EndChar

StartChar: hyphen.case
Encoding: 65659 -1 385
Width: 481
Flags: HW
LayerCount: 3
Fore
SplineSet
65 307 m 1
 65 413 l 1
 416 413 l 1
 416 307 l 1
 65 307 l 1
EndSplineSet
Validated: 1
EndChar

StartChar: endash.case
Encoding: 65660 -1 386
Width: 587
Flags: HW
LayerCount: 3
Fore
SplineSet
65 312 m 1
 65 408 l 1
 522 408 l 1
 522 312 l 1
 65 312 l 1
EndSplineSet
Validated: 1
EndChar

StartChar: emdash.case
Encoding: 65661 -1 387
Width: 879
Flags: HW
LayerCount: 3
Fore
SplineSet
65 312 m 1
 65 408 l 1
 813 408 l 1
 813 312 l 1
 65 312 l 1
EndSplineSet
Validated: 1
EndChar

StartChar: parenleft
Encoding: 40 40 388
Width: 433
Flags: HW
LayerCount: 3
Fore
SplineSet
268 -110 m 1
 201.333333333 -47.3333333333 152.166666667 20.8333333333 120.5 94.5 c 128
 88.8333333333 168.166666667 73 243.333333333 73 320 c 0
 73 395.333333333 89 470 121 544 c 128
 153 618 202 686.666666667 268 750 c 1
 390 750 l 1
 324 686.666666667 274.5 619.166666667 241.5 547.5 c 128
 208.5 475.833333333 192 400 192 320 c 0
 192 239.333333333 209 163.166666667 243 91.5 c 128
 277 19.8333333333 326 -47.3333333333 390 -110 c 1
 268 -110 l 1
EndSplineSet
Validated: 1
Substitution2: "'case' Case-Sensitive Forms in Latin lookup 20 subtable" parenleft.case
Substitution2: "'aalt' Access All Alternates in Latin lookup 0 subtable" parenleft.case
EndChar

StartChar: parenright
Encoding: 41 41 389
Width: 433
Flags: HW
LayerCount: 3
Fore
SplineSet
165 754 m 1
 231.666666667 691.333333333 280.833333333 623.166666667 312.5 549.5 c 128
 344.166666667 475.833333333 360 400.666666667 360 324 c 0
 360 248.666666667 344 173.833333333 312 99.5 c 128
 280 25.1666666667 231 -43.3333333333 165 -106 c 1
 43 -106 l 1
 109 -43.3333333333 158.5 23.8333333333 191.5 95.5 c 128
 224.5 167.166666667 241 243.333333333 241 324 c 256
 241 404.666666667 224 480.833333333 190 552.5 c 128
 156 624.166666667 107 691.333333333 43 754 c 1
 165 754 l 1
EndSplineSet
Validated: 1
Substitution2: "'case' Case-Sensitive Forms in Latin lookup 20 subtable" parenright.case
Substitution2: "'aalt' Access All Alternates in Latin lookup 0 subtable" parenright.case
EndChar

StartChar: braceleft
Encoding: 123 123 390
Width: 433
Flags: HW
LayerCount: 3
Fore
SplineSet
286 -108 m 2
 240.666666667 -108 204.666666667 -100.166666667 178 -84.5 c 128
 151.333333333 -68.8333333333 133.5 -47.6666666667 124.5 -21 c 128
 115.5 5.66666666667 114.333333333 36 121 70 c 2
 143 173 l 2
 150.333333333 207 148 231.833333333 136 247.5 c 128
 124 263.166666667 102 271 70 271 c 2
 33 271 l 1
 33 371 l 1
 70 371 l 2
 102 371 124 379 136 395 c 128
 148 411 150.333333333 435.666666667 143 469 c 2
 121 572 l 2
 114.333333333 606 115.5 636.333333333 124.5 663 c 128
 133.5 689.666666667 151.333333333 710.833333333 178 726.5 c 128
 204.666666667 742.166666667 240.666666667 750 286 750 c 2
 380 750 l 1
 380 651 l 1
 294 651 l 2
 270.666666667 651 253.666666667 644 243 630 c 128
 232.333333333 616 230 596.666666667 236 572 c 2
 259 473 l 2
 269 433.666666667 266.5 401 251.5 375 c 128
 236.5 349 213.333333333 331 182 321 c 1
 213.333333333 311 236.5 293 251.5 267 c 128
 266.5 241 269 208.333333333 259 169 c 2
 236 70 l 2
 230 45.3333333333 232.333333333 26 243 12 c 128
 253.666666667 -2 270.666666667 -9 294 -9 c 2
 380 -9 l 1
 380 -108 l 1
 286 -108 l 2
EndSplineSet
Validated: 33
Substitution2: "'case' Case-Sensitive Forms in Latin lookup 20 subtable" braceleft.case
Substitution2: "'aalt' Access All Alternates in Latin lookup 0 subtable" braceleft.case
EndChar

StartChar: braceright
Encoding: 125 125 391
Width: 433
Flags: HW
LayerCount: 3
Fore
SplineSet
147 750 m 2
 192.333333333 750 228.333333333 742.166666667 255 726.5 c 128
 281.666666667 710.833333333 299.666666667 689.666666667 309 663 c 128
 318.333333333 636.333333333 319.333333333 606 312 572 c 2
 290 469 l 2
 282.666666667 435.666666667 285 411 297 395 c 128
 309 379 331 371 363 371 c 2
 400 371 l 1
 400 271 l 1
 363 271 l 2
 331 271 309 263.166666667 297 247.5 c 128
 285 231.833333333 282.666666667 207 290 173 c 2
 312 70 l 2
 319.333333333 36 318.333333333 5.66666666667 309 -21 c 128
 299.666666667 -47.6666666667 281.666666667 -68.8333333333 255 -84.5 c 128
 228.333333333 -100.166666667 192.333333333 -108 147 -108 c 2
 53 -108 l 1
 53 -9 l 1
 139 -9 l 2
 162.333333333 -9 179.333333333 -2 190 12 c 128
 200.666666667 26 203 45.3333333333 197 70 c 2
 174 169 l 2
 164 208.333333333 166.5 241 181.5 267 c 128
 196.5 293 219.666666667 311 251 321 c 1
 219.666666667 331 196.5 349 181.5 375 c 128
 166.5 401 164 433.666666667 174 473 c 2
 197 572 l 2
 203 596.666666667 200.666666667 616 190 630 c 128
 179.333333333 644 162.333333333 651 139 651 c 2
 53 651 l 1
 53 750 l 1
 147 750 l 2
EndSplineSet
Validated: 33
Substitution2: "'case' Case-Sensitive Forms in Latin lookup 20 subtable" braceright.case
Substitution2: "'aalt' Access All Alternates in Latin lookup 0 subtable" braceright.case
EndChar

StartChar: bracketleft
Encoding: 91 91 392
Width: 433
Flags: HW
LayerCount: 3
Fore
SplineSet
83 -108 m 1
 83 750 l 1
 380 750 l 1
 380 651 l 1
 201 651 l 1
 201 -9 l 1
 380 -9 l 1
 380 -108 l 1
 83 -108 l 1
EndSplineSet
Validated: 1
Substitution2: "'case' Case-Sensitive Forms in Latin lookup 20 subtable" bracketleft.case
Substitution2: "'aalt' Access All Alternates in Latin lookup 0 subtable" bracketleft.case
EndChar

StartChar: bracketright
Encoding: 93 93 393
Width: 433
Flags: HW
LayerCount: 3
Fore
SplineSet
350 750 m 1
 350 -108 l 1
 53 -108 l 1
 53 -9 l 1
 232 -9 l 1
 232 651 l 1
 53 651 l 1
 53 750 l 1
 350 750 l 1
EndSplineSet
Validated: 1
Substitution2: "'case' Case-Sensitive Forms in Latin lookup 20 subtable" bracketright.case
Substitution2: "'aalt' Access All Alternates in Latin lookup 0 subtable" bracketright.case
EndChar

StartChar: parenleft.case
Encoding: 65662 -1 394
Width: 433
Flags: HW
LayerCount: 3
Fore
SplineSet
268 -40 m 1
 224 -2 187.5 39 158.5 83 c 128
 129.5 127 108 172.666666667 94 220 c 128
 80 267.333333333 73 313.666666667 73 359 c 0
 73 405 80 451.666666667 94 499 c 128
 108 546.333333333 129.666666667 592.166666667 159 636.5 c 128
 188.333333333 680.833333333 224.666666667 722 268 760 c 1
 390 760 l 1
 324 703.333333333 274.5 640.5 241.5 571.5 c 128
 208.5 502.5 192 431.666666667 192 359 c 256
 192 286.333333333 209 215.833333333 243 147.5 c 128
 277 79.1666666667 326 16.6666666667 390 -40 c 1
 268 -40 l 1
EndSplineSet
Validated: 1
EndChar

StartChar: parenright.case
Encoding: 65663 -1 395
Width: 433
Flags: HW
LayerCount: 3
Fore
SplineSet
165 760 m 1
 209 722.666666667 245.5 681.833333333 274.5 637.5 c 128
 303.5 593.166666667 325 547.5 339 500.5 c 128
 353 453.5 360 407 360 361 c 256
 360 315 353 268.333333333 339 221 c 128
 325 173.666666667 303.5 127.833333333 274.5 83.5 c 128
 245.5 39.1666666667 209 -2 165 -40 c 1
 43 -40 l 1
 109 16.6666666667 158.5 79.5 191.5 148.5 c 128
 224.5 217.5 241 288.333333333 241 361 c 256
 241 433.666666667 224 504.166666667 190 572.5 c 128
 156 640.833333333 107 703.333333333 43 760 c 1
 165 760 l 1
EndSplineSet
Validated: 1
EndChar

StartChar: braceleft.case
Encoding: 65664 -1 396
Width: 433
Flags: HW
LayerCount: 3
Fore
SplineSet
286 -40 m 2
 240.666666667 -40 203.833333333 -32 175.5 -16 c 128
 147.166666667 0 128.333333333 21.5 119 48.5 c 128
 109.666666667 75.5 110.333333333 105.333333333 121 138 c 2
 143 212 l 2
 153.666666667 244.666666667 152.166666667 269.166666667 138.5 285.5 c 128
 124.833333333 301.833333333 102 310 70 310 c 2
 33 310 l 1
 33 410 l 1
 70 410 l 2
 102 410 124.833333333 418.166666667 138.5 434.5 c 128
 152.166666667 450.833333333 153.666666667 475.333333333 143 508 c 2
 121 582 l 2
 110.333333333 615.333333333 109.666666667 645.5 119 672.5 c 128
 128.333333333 699.5 147.166666667 720.833333333 175.5 736.5 c 128
 203.833333333 752.166666667 240.666666667 760 286 760 c 2
 380 760 l 1
 380 661 l 1
 294 661 l 2
 270.666666667 661 253.166666667 653.833333333 241.5 639.5 c 128
 229.833333333 625.166666667 228 606 236 582 c 2
 259 512 l 2
 268.333333333 486.666666667 270.666666667 463.666666667 266 443 c 128
 261.333333333 422.333333333 251.5 405 236.5 391 c 128
 221.5 377 203.333333333 366.666666667 182 360 c 1
 203.333333333 353.333333333 221.5 343 236.5 329 c 128
 251.5 315 261.333333333 297.833333333 266 277.5 c 128
 270.666666667 257.166666667 268.333333333 234 259 208 c 2
 236 138 l 2
 228 114 229.833333333 94.8333333333 241.5 80.5 c 128
 253.166666667 66.1666666667 270.666666667 59 294 59 c 2
 380 59 l 1
 380 -40 l 1
 286 -40 l 2
EndSplineSet
Validated: 33
EndChar

StartChar: braceright.case
Encoding: 65665 -1 397
Width: 433
Flags: HW
LayerCount: 3
Fore
SplineSet
147 760 m 2
 192.333333333 760 229.166666667 752.166666667 257.5 736.5 c 128
 285.833333333 720.833333333 304.666666667 699.5 314 672.5 c 128
 323.333333333 645.5 322.666666667 615.333333333 312 582 c 2
 290 508 l 2
 279.333333333 475.333333333 280.833333333 450.833333333 294.5 434.5 c 128
 308.166666667 418.166666667 331 410 363 410 c 2
 400 410 l 1
 400 310 l 1
 363 310 l 2
 331 310 308.166666667 301.833333333 294.5 285.5 c 128
 280.833333333 269.166666667 279.333333333 244.666666667 290 212 c 2
 312 138 l 2
 322.666666667 105.333333333 323.333333333 75.5 314 48.5 c 128
 304.666666667 21.5 285.833333333 0 257.5 -16 c 128
 229.166666667 -32 192.333333333 -40 147 -40 c 2
 53 -40 l 1
 53 59 l 1
 139 59 l 2
 162.333333333 59 179.833333333 66.1666666667 191.5 80.5 c 128
 203.166666667 94.8333333333 205 114 197 138 c 2
 174 208 l 2
 164.666666667 234 162.333333333 257.166666667 167 277.5 c 128
 171.666666667 297.833333333 181.666666667 315 197 329 c 128
 212.333333333 343 230.333333333 353.333333333 251 360 c 1
 230.333333333 366.666666667 212.333333333 377 197 391 c 128
 181.666666667 405 171.666666667 422.333333333 167 443 c 128
 162.333333333 463.666666667 164.666666667 486.666666667 174 512 c 2
 197 582 l 2
 205 606 203.166666667 625.166666667 191.5 639.5 c 128
 179.833333333 653.833333333 162.333333333 661 139 661 c 2
 53 661 l 1
 53 760 l 1
 147 760 l 2
EndSplineSet
Validated: 33
EndChar

StartChar: bracketleft.case
Encoding: 65666 -1 398
Width: 433
Flags: HW
LayerCount: 3
Fore
SplineSet
83 -40 m 1
 83 760 l 1
 380 760 l 1
 380 661 l 1
 201 661 l 1
 201 59 l 1
 380 59 l 1
 380 -40 l 1
 83 -40 l 1
EndSplineSet
Validated: 1
EndChar

StartChar: bracketright.case
Encoding: 65667 -1 399
Width: 433
Flags: HW
LayerCount: 3
Fore
SplineSet
350 760 m 1
 350 -40 l 1
 53 -40 l 1
 53 59 l 1
 232 59 l 1
 232 661 l 1
 53 661 l 1
 53 760 l 1
 350 760 l 1
EndSplineSet
Validated: 1
EndChar

StartChar: quoteleft
Encoding: 8216 8216 404
Width: 271
Flags: HW
LayerCount: 3
Fore
SplineSet
201 477 m 1
 73 477 l 5
 166 723 l 5
 255 723 l 1
 201 477 l 1
EndSplineSet
Validated: 1
Substitution2: "'ss01' Style Set 1 in Latin lookup 22 subtable" quoteleft.ss01
Substitution2: "'aalt' Access All Alternates in Latin lookup 0 subtable" quoteleft.ss01
EndChar

StartChar: quoteright
Encoding: 8217 8217 405
Width: 271
Flags: HW
LayerCount: 3
Fore
SplineSet
169 477 m 5
 77 477 l 1
 133 723 l 1
 262 723 l 5
 169 477 l 5
EndSplineSet
Validated: 1
Substitution2: "'ss01' Style Set 1 in Latin lookup 22 subtable" quoteright.ss01
Substitution2: "'aalt' Access All Alternates in Latin lookup 0 subtable" quoteright.ss01
EndChar

StartChar: guillemotright
Encoding: 187 187 407
Width: 539
Flags: HW
LayerCount: 3
Fore
SplineSet
362 434 m 1
 492 251 l 1
 362 68 l 1
 242 68 l 1
 368 251 l 1
 242 434 l 1
 362 434 l 1
177 434 m 1
 307 251 l 1
 177 68 l 1
 58 68 l 1
 183 251 l 1
 58 434 l 1
 177 434 l 1
EndSplineSet
Validated: 1
EndChar

StartChar: guilsinglleft
Encoding: 8249 8249 408
Width: 354
Flags: HW
LayerCount: 3
Fore
SplineSet
177 68 m 1
 48 251 l 1
 177 434 l 1
 297 434 l 1
 171 251 l 1
 297 68 l 1
 177 68 l 1
EndSplineSet
Validated: 1
EndChar

StartChar: guilsinglright
Encoding: 8250 8250 409
Width: 354
Flags: HW
LayerCount: 3
Fore
SplineSet
177 68 m 1
 58 68 l 1
 183 251 l 1
 58 434 l 1
 177 434 l 1
 307 251 l 1
 177 68 l 1
EndSplineSet
Validated: 1
EndChar

StartChar: quotesingle
Encoding: 39 39 411
Width: 252
Flags: HW
LayerCount: 3
Fore
SplineSet
105 447 m 1
 72 575 l 2
 66 597.666666667 61.5 616.666666667 58.5 632 c 128
 55.5 647.333333333 54 662 54 676 c 0
 54 687.333333333 56.6666666667 698.833333333 62 710.5 c 128
 67.3333333333 722.166666667 75.1666666667 731.666666667 85.5 739 c 128
 95.8333333333 746.333333333 109.333333333 750 126 750 c 256
 142.666666667 750 156.333333333 746.333333333 167 739 c 128
 177.666666667 731.666666667 185.5 722.166666667 190.5 710.5 c 128
 195.5 698.833333333 198 687.333333333 198 676 c 0
 198 662 196.5 647.333333333 193.5 632 c 128
 190.5 616.666666667 186 597.666666667 180 575 c 2
 147 447 l 1
 105 447 l 1
EndSplineSet
Validated: 1
EndChar

StartChar: quoteleft.ss01
Encoding: 65672 -1 416
Width: 287
Flags: HW
LayerCount: 3
Fore
SplineSet
148 443 m 0
 124 443 104 451.666666667 88 469 c 128
 72 486.333333333 64 514 64 552 c 0
 64 599.333333333 77.3333333333 640.166666667 104 674.5 c 128
 130.666666667 708.833333333 169 730.666666667 219 740 c 1
 219 678 l 1
 190.333333333 673.333333333 169.333333333 662.666666667 156 646 c 128
 142.666666667 629.333333333 136 606 136 576 c 1
 96 576 l 1
 102 580.666666667 109.666666667 584.833333333 119 588.5 c 128
 128.333333333 592.166666667 136.666666667 594 144 594 c 0
 168.666666667 594 188.5 586.833333333 203.5 572.5 c 128
 218.5 558.166666667 226 540.333333333 226 519 c 0
 226 497 218.333333333 478.833333333 203 464.5 c 128
 187.666666667 450.166666667 169.333333333 443 148 443 c 0
EndSplineSet
Validated: 5
EndChar

StartChar: quoteright.ss01
Encoding: 65673 -1 417
Width: 271
Flags: HW
LayerCount: 3
Fore
SplineSet
61 456 m 1
 61 518 l 1
 90.3333333333 522 111.5 532.166666667 124.5 548.5 c 128
 137.5 564.833333333 144 587.666666667 144 617 c 1
 184 618 l 1
 178 612.666666667 170.5 608.333333333 161.5 605 c 128
 152.5 601.666666667 144 600 136 600 c 0
 112 600 92.3333333333 607 77 621 c 128
 61.6666666667 635 54 653 54 675 c 256
 54 697 61.6666666667 715 77 729 c 128
 92.3333333333 743 110.666666667 750 132 750 c 0
 156 750 176 741.333333333 192 724 c 128
 208 706.666666667 216 679 216 641 c 0
 216 593.666666667 202.833333333 553.166666667 176.5 519.5 c 128
 150.166666667 485.833333333 111.666666667 464.666666667 61 456 c 1
EndSplineSet
Validated: 5
EndChar

StartChar: less_hyphen.liga
Encoding: 65674 -1 418
Width: 833
GlyphClass: 3
LigCaretCntFixed: 1
Flags: HW
LayerCount: 3
Fore
SplineSet
790 302 m 1
 155 302 l 1
 225 352 l 1
 559 18 l 1
 401 18 l 1
 60 360 l 1
 401 702 l 1
 560 702 l 1
 225 368 l 1
 155 418 l 1
 790 418 l 1
 790 302 l 1
EndSplineSet
Validated: 5
Ligature2: "'liga' Standard Ligatures in Latin lookup 21 subtable" less hyphen
LCarets2: 1 417
EndChar

StartChar: at
Encoding: 64 64 419
Width: 859
Flags: HW
LayerCount: 3
Fore
SplineSet
427 -10 m 0
 347.666666667 -10 278.833333333 3.83333333333 220.5 31.5 c 128
 162.166666667 59.1666666667 116.833333333 98.1666666667 84.5 148.5 c 128
 52.1666666667 198.833333333 36 258 36 326 c 0
 36 383.333333333 46 436.5 66 485.5 c 128
 86 534.5 115.166666667 577.333333333 153.5 614 c 128
 191.833333333 650.666666667 238.333333333 679.166666667 293 699.5 c 128
 347.666666667 719.833333333 409.333333333 730 478 730 c 0
 547.333333333 730 607.666666667 717.833333333 659 693.5 c 128
 710.333333333 669.166666667 750.333333333 635.333333333 779 592 c 128
 807.666666667 548.666666667 822 498 822 440 c 0
 822 402 816 365.666666667 804 331 c 128
 792 296.333333333 775.166666667 265.5 753.5 238.5 c 128
 731.833333333 211.5 707.166666667 190.166666667 679.5 174.5 c 128
 651.833333333 158.833333333 622.666666667 151 592 151 c 0
 567.333333333 151 546.5 156.333333333 529.5 167 c 128
 512.5 177.666666667 501 192.166666667 495 210.5 c 128
 489 228.833333333 489.333333333 249.666666667 496 273 c 1
 498 249 l 1
 482 218.333333333 461.166666667 194.5 435.5 177.5 c 128
 409.833333333 160.5 382 152 352 152 c 0
 310 152 275.666666667 167.166666667 249 197.5 c 128
 222.333333333 227.833333333 209 268.333333333 209 319 c 0
 209 353 214.333333333 385.166666667 225 415.5 c 128
 235.666666667 445.833333333 250.5 472.833333333 269.5 496.5 c 128
 288.5 520.166666667 310.333333333 538.666666667 335 552 c 128
 359.666666667 565.333333333 386 572 414 572 c 0
 455.333333333 572 486.5 560.666666667 507.5 538 c 128
 528.5 515.333333333 537.333333333 486.666666667 534 452 c 1
 524 453 l 1
 548 544 l 1
 659 544 l 1
 598 308 l 2
 591.333333333 282 589.833333333 262.833333333 593.5 250.5 c 128
 597.166666667 238.166666667 606 232 620 232 c 0
 635.333333333 232 649.833333333 237.333333333 663.5 248 c 128
 677.166666667 258.666666667 689.333333333 273.166666667 700 291.5 c 128
 710.666666667 309.833333333 719.166666667 331 725.5 355 c 128
 731.833333333 379 735 404 735 430 c 0
 735 476.666666667 724.5 516.333333333 703.5 549 c 128
 682.5 581.666666667 652.666666667 606.5 614 623.5 c 128
 575.333333333 640.5 529.333333333 649 476 649 c 0
 418.666666667 649 368.166666667 640.833333333 324.5 624.5 c 128
 280.833333333 608.166666667 244.166666667 585.5 214.5 556.5 c 128
 184.833333333 527.5 162.333333333 493.5 147 454.5 c 128
 131.666666667 415.5 124 373.333333333 124 328 c 0
 124 275.333333333 136 229.666666667 160 191 c 128
 184 152.333333333 218.333333333 122.666666667 263 102 c 128
 307.666666667 81.3333333333 360.666666667 71 422 71 c 0
 456.666666667 71 491.5 74.6666666667 526.5 82 c 128
 561.5 89.3333333333 595 99.6666666667 627 113 c 1
 657 39 l 1
 626.333333333 23.6666666667 591.166666667 11.6666666667 551.5 3 c 128
 511.833333333 -5.66666666667 470.333333333 -10 427 -10 c 0
399 244 m 0
 413.666666667 244 427.333333333 247.833333333 440 255.5 c 128
 452.666666667 263.166666667 463.833333333 273.666666667 473.5 287 c 128
 483.166666667 300.333333333 490.666666667 315.5 496 332.5 c 128
 501.333333333 349.5 504 367.666666667 504 387 c 0
 504 415.666666667 497.333333333 438.333333333 484 455 c 128
 470.666666667 471.666666667 452.333333333 480 429 480 c 0
 414.333333333 480 400.666666667 476.333333333 388 469 c 128
 375.333333333 461.666666667 364 451.333333333 354 438 c 128
 344 424.666666667 336.333333333 409.5 331 392.5 c 128
 325.666666667 375.5 323 357.333333333 323 338 c 0
 323 308 330 284.833333333 344 268.5 c 128
 358 252.166666667 376.333333333 244 399 244 c 0
EndSplineSet
Validated: 37
EndChar

StartChar: ampersand
Encoding: 65675 -1 420
Width: 752
Flags: HW
LayerCount: 3
Fore
SplineSet
580 0 m 1
 210 398 l 2
 188.666666667 421.333333333 171.833333333 442.166666667 159.5 460.5 c 128
 147.166666667 478.833333333 138.5 496.333333333 133.5 513 c 128
 128.5 529.666666667 126 547.333333333 126 566 c 0
 126 596.666666667 134.333333333 624.333333333 151 649 c 128
 167.666666667 673.666666667 190.833333333 693.333333333 220.5 708 c 128
 250.166666667 722.666666667 284.666666667 730 324 730 c 0
 362 730 396 723.166666667 426 709.5 c 128
 456 695.833333333 479.666666667 676.333333333 497 651 c 128
 514.333333333 625.666666667 523 595.666666667 523 561 c 0
 523 519.666666667 507.833333333 482.166666667 477.5 448.5 c 128
 447.166666667 414.833333333 402 387.666666667 342 367 c 1
 283 441 l 1
 327 455.666666667 359.333333333 473.333333333 380 494 c 128
 400.666666667 514.666666667 411 537.666666667 411 563 c 0
 411 585 403.333333333 603.333333333 388 618 c 128
 372.666666667 632.666666667 352 640 326 640 c 256
 300 640 280 632.833333333 266 618.5 c 128
 252 604.166666667 245 586.666666667 245 566 c 0
 245 554.666666667 247.166666667 542.833333333 251.5 530.5 c 128
 255.833333333 518.166666667 265.166666667 503 279.5 485 c 128
 293.833333333 467 315 443.333333333 343 414 c 2
 740 0 l 1
 580 0 l 1
301 -10 m 0
 246.333333333 -10 198.5 -1 157.5 17 c 128
 116.5 35 84.6666666667 59.8333333333 62 91.5 c 128
 39.3333333333 123.166666667 28 159.666666667 28 201 c 0
 28 256.333333333 46.6666666667 303.333333333 84 342 c 128
 121.333333333 380.666666667 175.333333333 410.666666667 246 432 c 1
 306 358 l 1
 268.666666667 346 238.666666667 332.666666667 216 318 c 128
 193.333333333 303.333333333 177.166666667 287.5 167.5 270.5 c 128
 157.833333333 253.5 153 234.333333333 153 213 c 0
 153 175 167 145.5 195 124.5 c 128
 223 103.5 261.666666667 93 311 93 c 0
 345.666666667 93 378 98.6666666667 408 110 c 128
 438 121.333333333 464.666666667 138.833333333 488 162.5 c 128
 511.333333333 186.166666667 529.666666667 216.666666667 543 254 c 128
 556.333333333 291.333333333 563 336 563 388 c 1
 682 388 l 1
 682 340 675.833333333 295.5 663.5 254.5 c 128
 651.166666667 213.5 633.5 176.666666667 610.5 144 c 128
 587.5 111.333333333 560.333333333 83.5 529 60.5 c 128
 497.666666667 37.5 462.666666667 20 424 8 c 128
 385.333333333 -4 344.333333333 -10 301 -10 c 0
EndSplineSet
Validated: 5
Substitution2: "'calt' Contextual Alternates in Latin lookup 32 subtable" ampersand.ss11
Substitution2: "'aalt' Access All Alternates in Latin lookup 0 subtable" ampersand.ss11
EndChar

StartChar: paragraph
Encoding: 182 182 421
Width: 652
Flags: HW
LayerCount: 3
Fore
SplineSet
279 -130 m 1
 279 326 l 1
 230 326 l 2
 192 326 157.666666667 334.166666667 127 350.5 c 128
 96.3333333333 366.833333333 72.1666666667 389.666666667 54.5 419 c 128
 36.8333333333 448.333333333 28 482 28 520 c 0
 28 559.333333333 36.8333333333 594 54.5 624 c 128
 72.1666666667 654 96.5 677.5 127.5 694.5 c 128
 158.5 711.5 193.666666667 720 233 720 c 2
 591 720 l 1
 591 -130 l 1
 473 -130 l 1
 473 626 l 1
 397 626 l 1
 397 -130 l 1
 279 -130 l 1
EndSplineSet
Validated: 1
EndChar

StartChar: section
Encoding: 167 167 422
Width: 506
Flags: HW
LayerCount: 3
Fore
SplineSet
269 182 m 1
 270 262 l 1
 302.666666667 262 326.5 267.5 341.5 278.5 c 128
 356.5 289.5 364 305 364 325 c 0
 364 343.666666667 358.166666667 358.333333333 346.5 369 c 128
 334.833333333 379.666666667 317 388.333333333 293 395 c 2
 212 415 l 2
 161.333333333 427.666666667 123.333333333 447 98 473 c 128
 72.6666666667 499 60 532.333333333 60 573 c 0
 60 621.666666667 77.6666666667 660 113 688 c 128
 148.333333333 716 197 730 259 730 c 256
 321 730 370.666666667 716.333333333 408 689 c 128
 445.333333333 661.666666667 466 623.666666667 470 575 c 1
 356 575 l 1
 353.333333333 596.333333333 343.5 612.333333333 326.5 623 c 128
 309.5 633.666666667 286.333333333 639 257 639 c 0
 229.666666667 639 208.833333333 634.166666667 194.5 624.5 c 128
 180.166666667 614.833333333 173 601.333333333 173 584 c 0
 173 568.666666667 178.666666667 556 190 546 c 128
 201.333333333 536 220 527.666666667 246 521 c 2
 332 499 l 2
 379.333333333 487.666666667 415.333333333 467.833333333 440 439.5 c 128
 464.666666667 411.166666667 477 376.666666667 477 336 c 0
 477 287.333333333 458.833333333 249.5 422.5 222.5 c 128
 386.166666667 195.5 335 182 269 182 c 1
248 -56 m 256
 186 -56 136.5 -42.3333333333 99.5 -15 c 128
 62.5 12.3333333333 42 50.3333333333 38 99 c 1
 151 99 l 1
 154.333333333 77.6666666667 164.5 61.6666666667 181.5 51 c 128
 198.5 40.3333333333 221.333333333 35 250 35 c 0
 278 35 299 39.8333333333 313 49.5 c 128
 327 59.1666666667 334 72.6666666667 334 90 c 0
 334 105.333333333 328.666666667 118 318 128 c 128
 307.333333333 138 288.666666667 146.333333333 262 153 c 2
 176 175 l 2
 128 187.666666667 91.6666666667 208 67 236 c 128
 42.3333333333 264 30 298 30 338 c 0
 30 386.666666667 48.1666666667 424.5 84.5 451.5 c 128
 120.833333333 478.5 172 492 238 492 c 1
 237 412 l 1
 204.333333333 412 180.5 406.666666667 165.5 396 c 128
 150.5 385.333333333 143 369.666666667 143 349 c 0
 143 331 148.833333333 316.666666667 160.5 306 c 128
 172.166666667 295.333333333 190.333333333 286.666666667 215 280 c 2
 295 259 l 2
 346.333333333 247 384.5 227.833333333 409.5 201.5 c 128
 434.5 175.166666667 447 141.666666667 447 101 c 0
 447 52.3333333333 429.333333333 14 394 -14 c 128
 358.666666667 -42 310 -56 248 -56 c 256
EndSplineSet
Validated: 5
EndChar

StartChar: copyright
Encoding: 169 169 423
Width: 823
Flags: HW
LayerCount: 3
Fore
SplineSet
411 -15 m 256
 359 -15 310.333333333 -5.33333333333 265 14 c 128
 219.666666667 33.3333333333 179.833333333 60.1666666667 145.5 94.5 c 128
 111.166666667 128.833333333 84.3333333333 168.666666667 65 214 c 128
 45.6666666667 259.333333333 36 308 36 360 c 256
 36 412 45.6666666667 460.666666667 65 506 c 128
 84.3333333333 551.333333333 111.166666667 591.166666667 145.5 625.5 c 128
 179.833333333 659.833333333 219.666666667 686.666666667 265 706 c 128
 310.333333333 725.333333333 359 735 411 735 c 256
 463 735 511.666666667 725.333333333 557 706 c 128
 602.333333333 686.666666667 642.166666667 659.833333333 676.5 625.5 c 128
 710.833333333 591.166666667 737.666666667 551.333333333 757 506 c 128
 776.333333333 460.666666667 786 412 786 360 c 256
 786 308 776.333333333 259.333333333 757 214 c 128
 737.666666667 168.666666667 710.833333333 128.833333333 676.5 94.5 c 128
 642.166666667 60.1666666667 602.333333333 33.3333333333 557 14 c 128
 511.666666667 -5.33333333333 463 -15 411 -15 c 256
411 41 m 0
 455 41 496.166666667 49.3333333333 534.5 66 c 128
 572.833333333 82.6666666667 606.5 105.666666667 635.5 135 c 128
 664.5 164.333333333 687.166666667 198.333333333 703.5 237 c 128
 719.833333333 275.666666667 728 316.666666667 728 360 c 256
 728 403.333333333 719.833333333 444.333333333 703.5 483 c 128
 687.166666667 521.666666667 664.5 555.666666667 635.5 585 c 128
 606.5 614.333333333 572.833333333 637.333333333 534.5 654 c 128
 496.166666667 670.666666667 455 679 411 679 c 0
 367.666666667 679 326.833333333 670.666666667 288.5 654 c 128
 250.166666667 637.333333333 216.5 614.333333333 187.5 585 c 128
 158.5 555.666666667 135.666666667 521.666666667 119 483 c 128
 102.333333333 444.333333333 94 403.333333333 94 360 c 256
 94 316.666666667 102.333333333 275.666666667 119 237 c 128
 135.666666667 198.333333333 158.5 164.333333333 187.5 135 c 128
 216.5 105.666666667 250.166666667 82.6666666667 288.5 66 c 128
 326.833333333 49.3333333333 367.666666667 41 411 41 c 0
418 140 m 0
 376.666666667 140 340 149.5 308 168.5 c 128
 276 187.5 251 213.666666667 233 247 c 128
 215 280.333333333 206 318.333333333 206 361 c 256
 206 403.666666667 215 441.333333333 233 474 c 128
 251 506.666666667 276 532.5 308 551.5 c 128
 340 570.5 376.333333333 580 417 580 c 0
 468.333333333 580 511.5 565 546.5 535 c 128
 581.5 505 602.333333333 465.666666667 609 417 c 1
 532 417 l 1
 527.333333333 447 514.666666667 470.666666667 494 488 c 128
 473.333333333 505.333333333 447.666666667 514 417 514 c 0
 377.666666667 514 345.833333333 500 321.5 472 c 128
 297.166666667 444 285 407.333333333 285 362 c 0
 285 315.333333333 297.333333333 277.666666667 322 249 c 128
 346.666666667 220.333333333 378.666666667 206 418 206 c 0
 447.333333333 206 472.333333333 214.833333333 493 232.5 c 128
 513.666666667 250.166666667 526.666666667 273.666666667 532 303 c 1
 610 303 l 1
 602.666666667 253.666666667 581.5 214.166666667 546.5 184.5 c 128
 511.5 154.833333333 468.666666667 140 418 140 c 0
EndSplineSet
Validated: 1
EndChar

StartChar: registered
Encoding: 174 174 424
Width: 823
Flags: HW
LayerCount: 3
Fore
SplineSet
411 -15 m 256
 359 -15 310.333333333 -5.33333333333 265 14 c 128
 219.666666667 33.3333333333 179.833333333 60.1666666667 145.5 94.5 c 128
 111.166666667 128.833333333 84.3333333333 168.666666667 65 214 c 128
 45.6666666667 259.333333333 36 308 36 360 c 256
 36 412 45.6666666667 460.666666667 65 506 c 128
 84.3333333333 551.333333333 111.166666667 591.166666667 145.5 625.5 c 128
 179.833333333 659.833333333 219.666666667 686.666666667 265 706 c 128
 310.333333333 725.333333333 359 735 411 735 c 256
 463 735 511.666666667 725.333333333 557 706 c 128
 602.333333333 686.666666667 642.166666667 659.833333333 676.5 625.5 c 128
 710.833333333 591.166666667 737.666666667 551.333333333 757 506 c 128
 776.333333333 460.666666667 786 412 786 360 c 256
 786 308 776.333333333 259.333333333 757 214 c 128
 737.666666667 168.666666667 710.833333333 128.833333333 676.5 94.5 c 128
 642.166666667 60.1666666667 602.333333333 33.3333333333 557 14 c 128
 511.666666667 -5.33333333333 463 -15 411 -15 c 256
411 41 m 0
 455 41 496.166666667 49.3333333333 534.5 66 c 128
 572.833333333 82.6666666667 606.5 105.666666667 635.5 135 c 128
 664.5 164.333333333 687.166666667 198.333333333 703.5 237 c 128
 719.833333333 275.666666667 728 316.666666667 728 360 c 256
 728 403.333333333 719.833333333 444.333333333 703.5 483 c 128
 687.166666667 521.666666667 664.5 555.666666667 635.5 585 c 128
 606.5 614.333333333 572.833333333 637.333333333 534.5 654 c 128
 496.166666667 670.666666667 455 679 411 679 c 0
 367.666666667 679 326.833333333 670.666666667 288.5 654 c 128
 250.166666667 637.333333333 216.5 614.333333333 187.5 585 c 128
 158.5 555.666666667 135.666666667 521.666666667 119 483 c 128
 102.333333333 444.333333333 94 403.333333333 94 360 c 256
 94 316.666666667 102.333333333 275.666666667 119 237 c 128
 135.666666667 198.333333333 158.5 164.333333333 187.5 135 c 128
 216.5 105.666666667 250.166666667 82.6666666667 288.5 66 c 128
 326.833333333 49.3333333333 367.666666667 41 411 41 c 0
255 145 m 1
 255 575 l 1
 440 575 l 2
 486 575 522 564.5 548 543.5 c 128
 574 522.5 587 493.666666667 587 457 c 0
 587 398.333333333 548.666666667 361 472 345 c 1
 474 361 l 1
 507.333333333 362.333333333 533.333333333 354.666666667 552 338 c 128
 570.666666667 321.333333333 580 297.666666667 580 267 c 2
 580 196 l 2
 580 189.333333333 580.333333333 181.833333333 581 173.5 c 128
 581.666666667 165.166666667 583 155.666666667 585 145 c 1
 506 145 l 1
 504.666666667 151 503.666666667 158.166666667 503 166.5 c 128
 502.333333333 174.833333333 502 184.666666667 502 196 c 2
 502 247 l 2
 502 273.666666667 495.666666667 293.666666667 483 307 c 128
 470.333333333 320.333333333 451 327 425 327 c 2
 291 327 l 1
 291 389 l 1
 436 389 l 2
 459.333333333 389 477.333333333 394.333333333 490 405 c 128
 502.666666667 415.666666667 509 430.666666667 509 450 c 0
 509 470 502.666666667 485 490 495 c 128
 477.333333333 505 459.333333333 510 436 510 c 2
 332 510 l 1
 332 145 l 1
 255 145 l 1
EndSplineSet
Validated: 37
EndChar

StartChar: trademark
Encoding: 8482 8482 425
Width: 836
Flags: HW
LayerCount: 3
Fore
SplineSet
163 360 m 1
 163 704 l 1
 253 704 l 1
 253 360 l 1
 163 360 l 1
53 646 m 1
 53 720 l 1
 364 720 l 1
 364 646 l 1
 53 646 l 1
384 360 m 1
 384 720 l 1
 516 720 l 1
 610 374 l 1
 557 374 l 1
 650 720 l 1
 784 720 l 1
 784 360 l 1
 695 360 l 1
 695 696 l 1
 711 696 l 1
 625 360 l 1
 538 360 l 1
 454 694 l 1
 468 694 l 1
 468 360 l 1
 384 360 l 1
EndSplineSet
Validated: 5
EndChar

StartChar: degree
Encoding: 176 176 426
Width: 373
Flags: HW
LayerCount: 3
Fore
SplineSet
187 449 m 0
 160.333333333 449 136 455.5 114 468.5 c 128
 92 481.5 74.6666666667 499 62 521 c 128
 49.3333333333 543 43 567 43 593 c 256
 43 619 49.3333333333 642.833333333 62 664.5 c 128
 74.6666666667 686.166666667 92 703.333333333 114 716 c 128
 136 728.666666667 160.333333333 735 187 735 c 0
 214.333333333 735 238.666666667 728.666666667 260 716 c 128
 281.333333333 703.333333333 298.166666667 686.166666667 310.5 664.5 c 128
 322.833333333 642.833333333 329 619 329 593 c 256
 329 567 322.833333333 543 310.5 521 c 128
 298.166666667 499 281.333333333 481.5 260 468.5 c 128
 238.666666667 455.5 214.333333333 449 187 449 c 0
188 515 m 0
 208.666666667 515 226.166666667 522.666666667 240.5 538 c 128
 254.833333333 553.333333333 262 571.666666667 262 593 c 0
 262 613.666666667 254.833333333 631.5 240.5 646.5 c 128
 226.166666667 661.5 208.666666667 669 188 669 c 0
 165.333333333 669 146.833333333 661.5 132.5 646.5 c 128
 118.166666667 631.5 111 613.666666667 111 593 c 0
 111 571.666666667 118.166666667 553.333333333 132.5 538 c 128
 146.833333333 522.666666667 165.333333333 515 188 515 c 0
EndSplineSet
Validated: 1
EndChar

StartChar: bar
Encoding: 124 124 427
Width: 232
Flags: HW
LayerCount: 3
Fore
SplineSet
62 -130 m 1
 62 790 l 1
 171 790 l 1
 171 -130 l 1
 62 -130 l 1
EndSplineSet
Validated: 1
EndChar

StartChar: ampersand.ss11
Encoding: 38 38 428
Width: 752
Flags: HW
LayerCount: 3
Fore
SplineSet
251 0 m 2
 207 0 168.666666667 8 136 24 c 128
 103.333333333 40 77.8333333333 62.6666666667 59.5 92 c 128
 41.1666666667 121.333333333 32 155.666666667 32 195 c 0
 32 233 40.5 266.666666667 57.5 296 c 128
 74.5 325.333333333 97.8333333333 348.333333333 127.5 365 c 128
 157.166666667 381.666666667 190.666666667 390 228 390 c 1
 239 369 l 1
 205.666666667 369 175.666666667 376.5 149 391.5 c 128
 122.333333333 406.5 101.166666667 427.5 85.5 454.5 c 128
 69.8333333333 481.5 62 512 62 546 c 0
 62 602.666666667 84.3333333333 647.5 129 680.5 c 128
 173.666666667 713.5 237.666666667 730 321 730 c 0
 344.333333333 730 366.5 728.5 387.5 725.5 c 128
 408.5 722.5 429.666666667 717.666666667 451 711 c 1
 451 611 l 1
 433.666666667 617 414.666666667 621.5 394 624.5 c 128
 373.333333333 627.5 353 629 333 629 c 0
 284.333333333 629 248.5 620.166666667 225.5 602.5 c 128
 202.5 584.833333333 191 559.666666667 191 527 c 256
 191 494.333333333 201.5 469 222.5 451 c 128
 243.5 433 273.666666667 424 313 424 c 2
 725 424 l 1
 725 330 l 1
 282 330 l 2
 245.333333333 330 216.333333333 319.166666667 195 297.5 c 128
 173.666666667 275.833333333 163 246.333333333 163 209 c 0
 163 173.666666667 173 146 193 126 c 128
 213 106 241 96 277 96 c 2
 535 96 l 1
 535 0 l 1
 251 0 l 2
467 0 m 1
 467 555 l 5
 596 604 l 5
 596 0 l 1
 467 0 l 1
EndSplineSet
EndChar

StartChar: cent
Encoding: 162 162 429
Width: 540
GlyphClass: 2
Flags: HW
AnchorPoint: "Anchor-2" 276 0 basechar 0
AnchorPoint: "Anchor-0" 285 510 basechar 0
LayerCount: 3
Fore
SplineSet
232 482 m 1
 232 616 l 1
 334 616 l 1
 334 482 l 1
 232 482 l 1
334 20 m 1
 334 -109 l 1
 232 -109 l 1
 232 20 l 1
 334 20 l 1
282 -10 m 0
 232 -10 187.833333333 1.33333333333 149.5 24 c 128
 111.166666667 46.6666666667 81.1666666667 78 59.5 118 c 128
 37.8333333333 158 27 204 27 256 c 0
 27 307.333333333 37.8333333333 353 59.5 393 c 128
 81.1666666667 433 111.166666667 464.166666667 149.5 486.5 c 128
 187.833333333 508.833333333 232 520 282 520 c 0
 323.333333333 520 360.666666667 512.166666667 394 496.5 c 128
 427.333333333 480.833333333 454.5 458.833333333 475.5 430.5 c 128
 496.5 402.166666667 510 368.666666667 516 330 c 1
 396 330 l 1
 389.333333333 358.666666667 376.166666667 380.666666667 356.5 396 c 128
 336.833333333 411.333333333 312.666666667 419 284 419 c 0
 258 419 235.5 412.5 216.5 399.5 c 128
 197.5 386.5 182.833333333 367.833333333 172.5 343.5 c 128
 162.166666667 319.166666667 157 290 157 256 c 256
 157 222 162.166666667 192.666666667 172.5 168 c 128
 182.833333333 143.333333333 197.5 124.333333333 216.5 111 c 128
 235.5 97.6666666667 258 91 284 91 c 0
 312 91 336.166666667 98.6666666667 356.5 114 c 128
 376.833333333 129.333333333 390 151.333333333 396 180 c 1
 516 180 l 1
 510 141.333333333 496.333333333 107.833333333 475 79.5 c 128
 453.666666667 51.1666666667 426.333333333 29.1666666667 393 13.5 c 128
 359.666666667 -2.16666666667 322.666666667 -10 282 -10 c 0
EndSplineSet
Validated: 5
Substitution2: "'ss12' Style Set 12 in Latin lookup 33 subtable" cent.ss12
Substitution2: "'aalt' Access All Alternates in Latin lookup 0 subtable" cent.ss12
EndChar

StartChar: dollar
Encoding: 36 36 430
Width: 621
GlyphClass: 2
Flags: HW
AnchorPoint: "Anchor-2" 326 0 basechar 0
AnchorPoint: "Anchor-0" 320 720 basechar 0
LayerCount: 3
Fore
SplineSet
268 696 m 1
 268 830 l 1
 371 830 l 1
 371 696 l 1
 268 696 l 1
371 20 m 1
 371 -109 l 1
 268 -109 l 1
 268 20 l 1
 371 20 l 1
331 -9 m 0
 243 -9 172.833333333 11.8333333333 120.5 53.5 c 128
 68.1666666667 95.1666666667 38 154 30 230 c 1
 154 230 l 1
 159.333333333 185.333333333 177.833333333 150.833333333 209.5 126.5 c 128
 241.166666667 102.166666667 283.333333333 90 336 90 c 0
 378.666666667 90 411.333333333 98.1666666667 434 114.5 c 128
 456.666666667 130.833333333 468 153.333333333 468 182 c 0
 468 208 460.833333333 229.166666667 446.5 245.5 c 128
 432.166666667 261.833333333 408 275.333333333 374 286 c 2
 249 327 l 2
 185 347.666666667 138.166666667 374.333333333 108.5 407 c 128
 78.8333333333 439.666666667 64 480.333333333 64 529 c 0
 64 570.333333333 74.3333333333 606.166666667 95 636.5 c 128
 115.666666667 666.833333333 145 690.166666667 183 706.5 c 128
 221 722.833333333 265.333333333 731 316 731 c 0
 394 731 456.333333333 711.5 503 672.5 c 128
 549.666666667 633.5 576 580.666666667 582 514 c 1
 458 514 l 1
 451.333333333 554.666666667 435.5 584.333333333 410.5 603 c 128
 385.5 621.666666667 352 631 310 631 c 0
 272 631 242.166666667 623.5 220.5 608.5 c 128
 198.833333333 593.5 188 572.666666667 188 546 c 0
 188 524.666666667 194.833333333 506 208.5 490 c 128
 222.166666667 474 247 460.333333333 283 449 c 2
 411 407 l 2
 474.333333333 387 520.5 360.166666667 549.5 326.5 c 128
 578.5 292.833333333 593 251 593 201 c 0
 593 133.666666667 570 81.8333333333 524 45.5 c 128
 478 9.16666666667 413.666666667 -9 331 -9 c 0
EndSplineSet
Validated: 5
Substitution2: "'ss12' Style Set 12 in Latin lookup 33 subtable" dollar.ss12
Substitution2: "'aalt' Access All Alternates in Latin lookup 0 subtable" dollar.ss12
EndChar

StartChar: Euro
Encoding: 8364 8364 431
Width: 697
Flags: HW
LayerCount: 3
Fore
SplineSet
393 -10 m 256
 346.333333333 -10 303.666666667 -1 265 17 c 128
 226.333333333 35 192.833333333 60.6666666667 164.5 94 c 128
 136.166666667 127.333333333 114.166666667 166.666666667 98.5 212 c 128
 82.8333333333 257.333333333 75 307.333333333 75 362 c 256
 75 416.666666667 82.6666666667 466.333333333 98 511 c 128
 113.333333333 555.666666667 135.166666667 594.5 163.5 627.5 c 128
 191.833333333 660.5 225.333333333 685.833333333 264 703.5 c 128
 302.666666667 721.166666667 345.666666667 730 393 730 c 0
 439.666666667 730 481.666666667 721.833333333 519 705.5 c 128
 556.333333333 689.166666667 587.666666667 666.166666667 613 636.5 c 128
 638.333333333 606.833333333 655.666666667 571.333333333 665 530 c 1
 533 530 l 1
 525 561.333333333 508.833333333 585.166666667 484.5 601.5 c 128
 460.166666667 617.833333333 429.333333333 626 392 626 c 256
 354.666666667 626 322 615.333333333 294 594 c 128
 266 572.666666667 244.333333333 542.333333333 229 503 c 128
 213.666666667 463.666666667 206 417 206 363 c 0
 206 308.333333333 213.833333333 260.833333333 229.5 220.5 c 128
 245.166666667 180.166666667 267.166666667 149 295.5 127 c 128
 323.833333333 105 356.333333333 94 393 94 c 256
 429.666666667 94 459.833333333 102 483.5 118 c 128
 507.166666667 134 523.333333333 157.666666667 532 189 c 1
 666 189 l 1
 656 147.666666667 638.333333333 112.166666667 613 82.5 c 128
 587.666666667 52.8333333333 556.333333333 30 519 14 c 128
 481.666666667 -2 439.666666667 -10 393 -10 c 256
0 388 m 1
 15 476 l 1
 489 476 l 1
 473 388 l 1
 0 388 l 1
0 246 m 1
 15 334 l 1
 464 334 l 1
 449 246 l 1
 0 246 l 1
EndSplineSet
Validated: 5
EndChar

StartChar: sterling
Encoding: 163 163 432
Width: 586
Flags: HW
LayerCount: 3
Fore
SplineSet
42 0 m 1
 42 104 l 1
 71.3333333333 142.666666667 91.5 176 102.5 204 c 128
 113.5 232 119 257.333333333 119 280 c 0
 119 302 115.333333333 322 108 340 c 128
 100.666666667 358 92 376 82 394 c 128
 72 412 63.1666666667 431.166666667 55.5 451.5 c 128
 47.8333333333 471.833333333 44 495.333333333 44 522 c 0
 44 563.333333333 53.8333333333 599.5 73.5 630.5 c 128
 93.1666666667 661.5 121.333333333 685.833333333 158 703.5 c 128
 194.666666667 721.166666667 238.333333333 730 289 730 c 0
 341 730 385.833333333 721 423.5 703 c 128
 461.166666667 685 491 659.833333333 513 627.5 c 128
 535 595.166666667 547.666666667 557.666666667 551 515 c 1
 428 515 l 1
 423.333333333 552.333333333 410 580.5 388 599.5 c 128
 366 618.5 335.333333333 628 296 628 c 0
 255.333333333 628 224.833333333 618.333333333 204.5 599 c 128
 184.166666667 579.666666667 174 553.666666667 174 521 c 0
 174 501.666666667 177.5 483 184.5 465 c 128
 191.5 447 199.5 429 208.5 411 c 128
 217.5 393 225.5 374 232.5 354 c 128
 239.5 334 243 312.333333333 243 289 c 0
 243 261 236 229.333333333 222 194 c 128
 208 158.666666667 182 117.666666667 144 71 c 1
 132 109 l 1
 527 109 l 1
 527 0 l 1
 42 0 l 1
14 289 m 1
 14 395 l 1
 452 395 l 1
 452 289 l 1
 14 289 l 1
EndSplineSet
Validated: 5
EndChar

StartChar: yen
Encoding: 165 165 433
Width: 624
Flags: HW
LayerCount: 3
Fore
SplineSet
248 0 m 1
 248 303 l 1
 15 720 l 1
 169 720 l 1
 363 331 l 1
 275 331 l 1
 468 720 l 1
 609 720 l 1
 377 303 l 1
 377 0 l 1
 248 0 l 1
44 246 m 1
 44 334 l 1
 581 334 l 1
 581 246 l 1
 44 246 l 1
271 388 m 1
 44 388 l 1
 44 476 l 1
 227 476 l 1
 271 388 l 1
421 476 m 1
 581 476 l 1
 581 388 l 1
 374 388 l 1
 421 476 l 1
EndSplineSet
Validated: 5
EndChar

StartChar: cent.ss12
Encoding: 65676 -1 434
Width: 540
Flags: HW
LayerCount: 3
Fore
SplineSet
282 -10 m 0
 232 -10 187.833333333 1.33333333333 149.5 24 c 128
 111.166666667 46.6666666667 81.1666666667 78 59.5 118 c 128
 37.8333333333 158 27 204 27 256 c 0
 27 307.333333333 37.8333333333 353 59.5 393 c 128
 81.1666666667 433 111.166666667 464.166666667 149.5 486.5 c 128
 187.833333333 508.833333333 232 520 282 520 c 0
 323.333333333 520 360.666666667 512.166666667 394 496.5 c 128
 427.333333333 480.833333333 454.5 458.833333333 475.5 430.5 c 128
 496.5 402.166666667 510 368.666666667 516 330 c 1
 404 330 l 1
 397.333333333 361.333333333 383.666666667 385.333333333 363 402 c 128
 342.333333333 418.666666667 315.666666667 427 283 427 c 0
 240.333333333 427 207.333333333 412 184 382 c 128
 160.666666667 352 149 310 149 256 c 256
 149 202 160.666666667 159.666666667 184 129 c 128
 207.333333333 98.3333333333 240.666666667 83 284 83 c 0
 316 83 342.333333333 91.3333333333 363 108 c 128
 383.666666667 124.666666667 397.333333333 148.666666667 404 180 c 1
 516 180 l 1
 510 141.333333333 496.333333333 107.833333333 475 79.5 c 128
 453.666666667 51.1666666667 426.333333333 29.1666666667 393 13.5 c 128
 359.666666667 -2.16666666667 322.666666667 -10 282 -10 c 0
232 -109 m 1
 232 32 l 1
 236 58 l 1
 236 455 l 1
 232 485 l 1
 232 616 l 1
 334 616 l 1
 334 482 l 1
 330 457 l 1
 330 61 l 1
 334 36 l 1
 334 -109 l 1
 232 -109 l 1
EndSplineSet
Validated: 5
EndChar

StartChar: dollar.ss12
Encoding: 65677 -1 435
Width: 621
Flags: HW
LayerCount: 3
Fore
SplineSet
331 -9 m 0
 243 -9 172.833333333 11.8333333333 120.5 53.5 c 128
 68.1666666667 95.1666666667 38 154 30 230 c 1
 153 230 l 1
 157.666666667 185.333333333 176 150.833333333 208 126.5 c 128
 240 102.166666667 282.666666667 90 336 90 c 0
 379.333333333 90 412.5 98 435.5 114 c 128
 458.5 130 470 152.666666667 470 182 c 0
 470 208 462.5 229.166666667 447.5 245.5 c 128
 432.5 261.833333333 408 275.666666667 374 287 c 2
 249 328 l 2
 185 348.666666667 138.166666667 375.166666667 108.5 407.5 c 128
 78.8333333333 439.833333333 64 480.333333333 64 529 c 0
 64 570.333333333 74.3333333333 606.166666667 95 636.5 c 128
 115.666666667 666.833333333 145 690.166666667 183 706.5 c 128
 221 722.833333333 265.333333333 731 316 731 c 0
 394 731 456.166666667 711.5 502.5 672.5 c 128
 548.833333333 633.5 575.333333333 580.666666667 582 514 c 1
 459 514 l 1
 452.333333333 554.666666667 436.5 584.5 411.5 603.5 c 128
 386.5 622.5 352.666666667 632 310 632 c 0
 271.333333333 632 241.166666667 624.5 219.5 609.5 c 128
 197.833333333 594.5 187 573.333333333 187 546 c 0
 187 524.666666667 193.833333333 506 207.5 490 c 128
 221.166666667 474 246.333333333 460 283 448 c 2
 411 406 l 2
 474.333333333 386 520.333333333 359.333333333 549 326 c 128
 577.666666667 292.666666667 592 251 592 201 c 0
 592 133.666666667 569.166666667 81.8333333333 523.5 45.5 c 128
 477.833333333 9.16666666667 413.666666667 -9 331 -9 c 0
268 -109 m 1
 268 32 l 1
 273 58 l 1
 273 669 l 1
 268 699 l 1
 268 830 l 1
 371 830 l 1
 371 696 l 1
 366 671 l 1
 366 61 l 1
 371 36 l 1
 371 -109 l 1
 268 -109 l 1
EndSplineSet
Validated: 5
EndChar

StartChar: plus
Encoding: 43 43 436
Width: 544
Flags: HW
LayerCount: 3
Fore
SplineSet
224 140 m 1
 224 603 l 1
 321 603 l 1
 321 140 l 1
 224 140 l 1
53 324 m 1
 53 418 l 1
 491 418 l 1
 491 324 l 1
 53 324 l 1
EndSplineSet
Validated: 5
Substitution2: "'tnum' Tabular Numbers in Latin lookup 19 subtable" plus.tf
Substitution2: "'aalt' Access All Alternates in Latin lookup 0 subtable" plus.tf
EndChar

StartChar: minus
Encoding: 8722 8722 437
Width: 544
Flags: HW
LayerCount: 3
Fore
SplineSet
53 324 m 1
 53 418 l 1
 491 418 l 1
 491 324 l 1
 53 324 l 1
EndSplineSet
Validated: 1
Substitution2: "'tnum' Tabular Numbers in Latin lookup 19 subtable" minus.tf
Substitution2: "'aalt' Access All Alternates in Latin lookup 0 subtable" minus.tf
EndChar

StartChar: multiply
Encoding: 215 215 438
Width: 544
Flags: HW
LayerCount: 3
Fore
SplineSet
422 154 m 1
 55 522 l 1
 123 590 l 1
 490 222 l 1
 422 154 l 1
123 154 m 1
 55 222 l 1
 422 590 l 1
 490 522 l 1
 123 154 l 1
EndSplineSet
Validated: 5
Substitution2: "'tnum' Tabular Numbers in Latin lookup 19 subtable" multiply.tf
Substitution2: "'aalt' Access All Alternates in Latin lookup 0 subtable" multiply.tf
EndChar

StartChar: divide
Encoding: 247 247 439
Width: 544
Flags: HW
LayerCount: 3
Fore
SplineSet
53 324 m 1
 53 418 l 1
 491 418 l 1
 491 324 l 1
 53 324 l 1
273 479 m 0
 253 479 236.5 485.333333333 223.5 498 c 128
 210.5 510.666666667 204 527.333333333 204 548 c 0
 204 567.333333333 210.5 583.5 223.5 596.5 c 128
 236.5 609.5 253 616 273 616 c 0
 290.333333333 616 305.833333333 609.666666667 319.5 597 c 128
 333.166666667 584.333333333 340 568 340 548 c 0
 340 527.333333333 333.166666667 510.666666667 319.5 498 c 128
 305.833333333 485.333333333 290.333333333 479 273 479 c 0
273 127 m 0
 253 127 236.5 133.333333333 223.5 146 c 128
 210.5 158.666666667 204 175.333333333 204 196 c 0
 204 215.333333333 210.5 231.5 223.5 244.5 c 128
 236.5 257.5 253 264 273 264 c 0
 290.333333333 264 305.833333333 257.5 319.5 244.5 c 128
 333.166666667 231.5 340 215.333333333 340 196 c 0
 340 175.333333333 333.166666667 158.666666667 319.5 146 c 128
 305.833333333 133.333333333 290.333333333 127 273 127 c 0
EndSplineSet
Validated: 1
Substitution2: "'tnum' Tabular Numbers in Latin lookup 19 subtable" divide.tf
Substitution2: "'aalt' Access All Alternates in Latin lookup 0 subtable" divide.tf
EndChar

StartChar: equal
Encoding: 61 61 440
Width: 544
Flags: HW
LayerCount: 3
Fore
SplineSet
53 424 m 1
 53 518 l 1
 491 518 l 1
 491 424 l 1
 53 424 l 1
53 224 m 1
 53 318 l 1
 491 318 l 1
 491 224 l 1
 53 224 l 1
EndSplineSet
Validated: 1
Substitution2: "'tnum' Tabular Numbers in Latin lookup 19 subtable" equal.tf
Substitution2: "'aalt' Access All Alternates in Latin lookup 0 subtable" equal.tf
EndChar

StartChar: greater
Encoding: 62 62 441
Width: 544
Flags: HW
LayerCount: 3
Fore
SplineSet
53 166 m 1
 53 266 l 1
 396 382 l 1
 396 359 l 1
 53 473 l 1
 53 573 l 1
 491 423 l 1
 491 319 l 1
 53 166 l 1
EndSplineSet
Validated: 5
Substitution2: "'tnum' Tabular Numbers in Latin lookup 19 subtable" greater.tf
Substitution2: "'aalt' Access All Alternates in Latin lookup 0 subtable" greater.tf
EndChar

StartChar: less
Encoding: 60 60 442
Width: 544
Flags: HW
LayerCount: 3
Fore
SplineSet
491 576 m 1
 491 476 l 1
 148 360 l 1
 148 383 l 1
 491 269 l 1
 491 169 l 1
 53 319 l 1
 53 423 l 1
 491 576 l 1
EndSplineSet
Validated: 5
Substitution2: "'tnum' Tabular Numbers in Latin lookup 19 subtable" less.tf
Substitution2: "'aalt' Access All Alternates in Latin lookup 0 subtable" less.tf
EndChar

StartChar: asciitilde
Encoding: 126 126 443
Width: 544
Flags: HW
LayerCount: 3
Fore
SplineSet
387 277 m 0
 414.333333333 277 438.833333333 282.5 460.5 293.5 c 128
 482.166666667 304.5 499.666666667 321.166666667 513 343.5 c 128
 526.333333333 365.833333333 534.333333333 394 537 428 c 1
 455 428 l 1
 451 410 443.166666667 396.666666667 431.5 388 c 128
 419.833333333 379.333333333 404.666666667 375 386 375 c 0
 369.333333333 375 352.833333333 378.166666667 336.5 384.5 c 128
 320.166666667 390.833333333 303 398.166666667 285 406.5 c 128
 267 414.833333333 247.5 422.166666667 226.5 428.5 c 128
 205.5 434.833333333 182.333333333 438 157 438 c 0
 130.333333333 438 106.166666667 432.5 84.5 421.5 c 128
 62.8333333333 410.5 45.3333333333 394 32 372 c 128
 18.6666666667 350 10.6666666667 321.666666667 8 287 c 1
 90 287 l 1
 94.6666666667 305 102.666666667 318.333333333 114 327 c 128
 125.333333333 335.666666667 140.333333333 340 159 340 c 0
 176.333333333 340 193.166666667 336.833333333 209.5 330.5 c 128
 225.833333333 324.166666667 242.666666667 316.833333333 260 308.5 c 128
 277.333333333 300.166666667 296.333333333 292.833333333 317 286.5 c 128
 337.666666667 280.166666667 361 277 387 277 c 0
EndSplineSet
Validated: 9
EndChar

StartChar: asciicircum
Encoding: 94 94 444
Width: 544
Flags: HW
LayerCount: 3
Fore
SplineSet
163 491 m 1
 68 491 l 1
 219 740 l 1
 325 740 l 1
 476 491 l 1
 381 491 l 1
 237 699 l 1
 308 699 l 1
 163 491 l 1
EndSplineSet
Validated: 5
EndChar

StartChar: percent
Encoding: 37 37 445
Width: 772
Flags: HW
LayerCount: 3
Fore
SplineSet
76 0 m 1
 599 720 l 1
 701 720 l 1
 179 0 l 1
 76 0 l 1
576 -10 m 0
 548.666666667 -10 522.833333333 -3.33333333333 498.5 10 c 128
 474.166666667 23.3333333333 454.5 43.6666666667 439.5 71 c 128
 424.5 98.3333333333 417 132.666666667 417 174 c 0
 417 216 424.333333333 250.5 439 277.5 c 128
 453.666666667 304.5 473.166666667 324.5 497.5 337.5 c 128
 521.833333333 350.5 548 357 576 357 c 0
 606 357 633.166666667 350.333333333 657.5 337 c 128
 681.833333333 323.666666667 701.333333333 303.666666667 716 277 c 128
 730.666666667 250.333333333 738 216 738 174 c 0
 738 132.666666667 730.333333333 98.3333333333 715 71 c 128
 699.666666667 43.6666666667 679.833333333 23.3333333333 655.5 10 c 128
 631.166666667 -3.33333333333 604.666666667 -10 576 -10 c 0
576 65 m 256
 598.666666667 65 617.5 74.5 632.5 93.5 c 128
 647.5 112.5 655 139.666666667 655 175 c 0
 655 209.666666667 647.5 236.166666667 632.5 254.5 c 128
 617.5 272.833333333 598.666666667 282 576 282 c 256
 553.333333333 282 535 272.833333333 521 254.5 c 128
 507 236.166666667 500 209.666666667 500 175 c 0
 500 139.666666667 507 112.5 521 93.5 c 128
 535 74.5 553.333333333 65 576 65 c 256
194 363 m 0
 166 363 139.833333333 369.5 115.5 382.5 c 128
 91.1666666667 395.5 71.6666666667 415.666666667 57 443 c 128
 42.3333333333 470.333333333 35 505 35 547 c 0
 35 588.333333333 42.3333333333 622.5 57 649.5 c 128
 71.6666666667 676.5 91.1666666667 696.666666667 115.5 710 c 128
 139.833333333 723.333333333 166 730 194 730 c 0
 223.333333333 730 250.166666667 723.333333333 274.5 710 c 128
 298.833333333 696.666666667 318.166666667 676.5 332.5 649.5 c 128
 346.833333333 622.5 354 588.333333333 354 547 c 0
 354 505 346.5 470.333333333 331.5 443 c 128
 316.5 415.666666667 297 395.5 273 382.5 c 128
 249 369.5 222.666666667 363 194 363 c 0
194 438 m 0
 216 438 234.5 447.333333333 249.5 466 c 128
 264.5 484.666666667 272 512 272 548 c 0
 272 582.666666667 264.833333333 609.166666667 250.5 627.5 c 128
 236.166666667 645.833333333 217.333333333 655 194 655 c 0
 171.333333333 655 153 645.833333333 139 627.5 c 128
 125 609.166666667 118 582.666666667 118 548 c 0
 118 512 125 484.666666667 139 466 c 128
 153 447.333333333 171.333333333 438 194 438 c 0
EndSplineSet
Validated: 1
Substitution2: "'tnum' Tabular Numbers in Latin lookup 19 subtable" percent.tf
Substitution2: "'aalt' Access All Alternates in Latin lookup 0 subtable" percent.tf
EndChar

StartChar: perthousand
Encoding: 8240 8240 446
Width: 823
Flags: HW
LayerCount: 3
Fore
SplineSet
170 363 m 256
 145.333333333 363 122.333333333 369.5 101 382.5 c 128
 79.6666666667 395.5 62.5 415.666666667 49.5 443 c 128
 36.5 470.333333333 30 505 30 547 c 0
 30 588.333333333 36.5 622.5 49.5 649.5 c 128
 62.5 676.5 79.5 696.666666667 100.5 710 c 128
 121.5 723.333333333 144.666666667 730 170 730 c 0
 208.666666667 730 241.666666667 715 269 685 c 128
 296.333333333 655 310 609 310 547 c 0
 310 505 303.5 470.333333333 290.5 443 c 128
 277.5 415.666666667 260.333333333 395.5 239 382.5 c 128
 217.666666667 369.5 194.666666667 363 170 363 c 256
169 432 m 256
 188.333333333 432 204.333333333 441.833333333 217 461.5 c 128
 229.666666667 481.166666667 236 510 236 548 c 0
 236 584 229.833333333 611.666666667 217.5 631 c 128
 205.166666667 650.333333333 189 660 169 660 c 0
 149.666666667 660 134 650.5 122 631.5 c 128
 110 612.5 104 584.666666667 104 548 c 0
 104 510 110 481.166666667 122 461.5 c 128
 134 441.833333333 149.666666667 432 169 432 c 256
65 0 m 1
 509 720 l 1
 601 720 l 1
 159 0 l 1
 65 0 l 1
486 -10 m 0
 464.666666667 -10 443.833333333 -3.16666666667 423.5 10.5 c 128
 403.166666667 24.1666666667 386.833333333 44.6666666667 374.5 72 c 128
 362.166666667 99.3333333333 356 133.333333333 356 174 c 0
 356 215.333333333 362.166666667 249.333333333 374.5 276 c 128
 386.833333333 302.666666667 403 322.833333333 423 336.5 c 128
 443 350.166666667 464 357 486 357 c 0
 520 357 547.666666667 342.5 569 313.5 c 128
 590.333333333 284.5 601 238 601 174 c 256
 601 110 590 63.3333333333 568 34 c 128
 546 4.66666666667 518.666666667 -10 486 -10 c 0
486 60 m 0
 502.666666667 60 516.333333333 69.8333333333 527 89.5 c 128
 537.666666667 109.166666667 543 137.666666667 543 175 c 0
 543 211.666666667 537.666666667 239.666666667 527 259 c 128
 516.333333333 278.333333333 502.666666667 288 486 288 c 256
 469.333333333 288 455.833333333 278.333333333 445.5 259 c 128
 435.166666667 239.666666667 430 211.666666667 430 175 c 0
 430 137.666666667 435 109.166666667 445 89.5 c 128
 455 69.8333333333 468.666666667 60 486 60 c 0
662 60 m 256
 678.666666667 60 692.333333333 69.8333333333 703 89.5 c 128
 713.666666667 109.166666667 719 137.666666667 719 175 c 0
 719 211.666666667 713.833333333 239.666666667 703.5 259 c 128
 693.166666667 278.333333333 679.333333333 288 662 288 c 0
 645.333333333 288 631.833333333 278.333333333 621.5 259 c 128
 611.166666667 239.666666667 606 211.666666667 606 175 c 0
 606 137.666666667 611.166666667 109.166666667 621.5 89.5 c 128
 631.833333333 69.8333333333 645.333333333 60 662 60 c 256
662 -10 m 0
 629.333333333 -10 602 4.66666666667 580 34 c 128
 558 63.3333333333 547 110 547 174 c 256
 547 238 557.833333333 284.5 579.5 313.5 c 128
 601.166666667 342.5 628.666666667 357 662 357 c 0
 684.666666667 357 706 350.166666667 726 336.5 c 128
 746 322.833333333 762.166666667 302.666666667 774.5 276 c 128
 786.833333333 249.333333333 793 215.333333333 793 174 c 0
 793 133.333333333 786.666666667 99.3333333333 774 72 c 128
 761.333333333 44.6666666667 745 24.1666666667 725 10.5 c 128
 705 -3.16666666667 684 -10 662 -10 c 0
EndSplineSet
Validated: 5
Substitution2: "'tnum' Tabular Numbers in Latin lookup 19 subtable" perthousand.tf
Substitution2: "'aalt' Access All Alternates in Latin lookup 0 subtable" perthousand.tf
EndChar

StartChar: plus.tf
Encoding: 65678 -1 447
Width: 592
Flags: HW
LayerCount: 3
Fore
SplineSet
247 140 m 1
 247 603 l 1
 346 603 l 1
 346 140 l 1
 247 140 l 1
66 324 m 1
 66 418 l 1
 526 418 l 1
 526 324 l 1
 66 324 l 1
EndSplineSet
Validated: 5
Substitution2: "'pnum' Proportional Numbers in Latin lookup 18 subtable" plus
Substitution2: "'aalt' Access All Alternates in Latin lookup 0 subtable" plus
EndChar

StartChar: minus.tf
Encoding: 65679 -1 448
Width: 592
Flags: HW
LayerCount: 3
Fore
SplineSet
66 324 m 1
 66 418 l 1
 526 418 l 1
 526 324 l 1
 66 324 l 1
EndSplineSet
Validated: 1
Substitution2: "'pnum' Proportional Numbers in Latin lookup 18 subtable" minus
Substitution2: "'aalt' Access All Alternates in Latin lookup 0 subtable" minus
EndChar

StartChar: multiply.tf
Encoding: 65680 -1 449
Width: 592
Flags: HW
LayerCount: 3
Fore
SplineSet
457 154 m 1
 66 522 l 1
 134 590 l 1
 525 222 l 1
 457 154 l 1
134 154 m 1
 66 222 l 1
 457 590 l 1
 525 522 l 1
 134 154 l 1
EndSplineSet
Validated: 5
Substitution2: "'pnum' Proportional Numbers in Latin lookup 18 subtable" multiply
Substitution2: "'aalt' Access All Alternates in Latin lookup 0 subtable" multiply
EndChar

StartChar: divide.tf
Encoding: 65681 -1 450
Width: 592
Flags: HW
LayerCount: 3
Fore
SplineSet
66 324 m 1
 66 418 l 1
 526 418 l 1
 526 324 l 1
 66 324 l 1
297 479 m 0
 276.333333333 479 259.333333333 485.333333333 246 498 c 128
 232.666666667 510.666666667 226 527.333333333 226 548 c 0
 226 567.333333333 232.666666667 583.5 246 596.5 c 128
 259.333333333 609.5 276.333333333 616 297 616 c 0
 315 616 331 609.666666667 345 597 c 128
 359 584.333333333 366 568 366 548 c 0
 366 527.333333333 359 510.666666667 345 498 c 128
 331 485.333333333 315 479 297 479 c 0
297 127 m 0
 276.333333333 127 259.333333333 133.333333333 246 146 c 128
 232.666666667 158.666666667 226 175.333333333 226 196 c 0
 226 215.333333333 232.666666667 231.5 246 244.5 c 128
 259.333333333 257.5 276.333333333 264 297 264 c 0
 315 264 331 257.5 345 244.5 c 128
 359 231.5 366 215.333333333 366 196 c 0
 366 175.333333333 359 158.666666667 345 146 c 128
 331 133.333333333 315 127 297 127 c 0
EndSplineSet
Validated: 1
Substitution2: "'pnum' Proportional Numbers in Latin lookup 18 subtable" divide
Substitution2: "'aalt' Access All Alternates in Latin lookup 0 subtable" divide
EndChar

StartChar: equal.tf
Encoding: 65682 -1 451
Width: 592
Flags: HW
LayerCount: 3
Fore
SplineSet
65 424 m 1
 65 518 l 1
 526 518 l 1
 526 424 l 1
 65 424 l 1
65 224 m 1
 65 318 l 1
 526 318 l 1
 526 224 l 1
 65 224 l 1
EndSplineSet
Validated: 1
Substitution2: "'pnum' Proportional Numbers in Latin lookup 18 subtable" equal
Substitution2: "'aalt' Access All Alternates in Latin lookup 0 subtable" equal
EndChar

StartChar: greater.tf
Encoding: 65683 -1 452
Width: 592
Flags: HW
LayerCount: 3
Fore
SplineSet
66 166 m 1
 66 266 l 1
 433 382 l 1
 433 359 l 1
 66 473 l 1
 66 573 l 1
 526 423 l 1
 526 319 l 1
 66 166 l 1
EndSplineSet
Validated: 5
Substitution2: "'pnum' Proportional Numbers in Latin lookup 18 subtable" greater
Substitution2: "'aalt' Access All Alternates in Latin lookup 0 subtable" greater
EndChar

StartChar: less.tf
Encoding: 65684 -1 453
Width: 592
Flags: HW
LayerCount: 3
Fore
SplineSet
491 576 m 1
 491 476 l 1
 148 360 l 1
 148 383 l 1
 491 269 l 1
 491 169 l 1
 53 319 l 1
 53 423 l 1
 491 576 l 1
EndSplineSet
Validated: 5
Substitution2: "'pnum' Proportional Numbers in Latin lookup 18 subtable" less
Substitution2: "'aalt' Access All Alternates in Latin lookup 0 subtable" less
EndChar

